<svg xmlns="http://www.w3.org/2000/svg" width="40" height="40" viewBox="0 0 40 40">
  <g id="Selected_BestPractices" data-name="Selected/BestPractices" transform="translate(1260 730)">
    <rect id="Rectangle_33" data-name="Rectangle 33" width="40" height="40" transform="translate(-1260 -730)" fill="none"/>
    <g id="Group_83" data-name="Group 83" transform="translate(-1253 -726)">
      <path id="Path_2045" data-name="Path 2045" d="M15.265,31.853a1.579,1.579,0,0,1-.424-.066A18.756,18.756,0,0,1,2,13.958V5.323A1.326,1.326,0,0,1,2.9,4L14.841.017a1.326,1.326,0,0,1,.849,0L27.628,4a1.326,1.326,0,0,1,.9,1.326v8.635A18.756,18.756,0,0,1,15.69,31.853,1.578,1.578,0,0,1,15.265,31.853ZM4.653,6.278v7.68A16.117,16.117,0,0,0,15.265,29.12,16.117,16.117,0,0,0,25.877,13.958V6.278L15.265,2.736Z" transform="translate(-1.999 0.053)" fill="#2b2d71"/>
      <path id="Path_2046" data-name="Path 2046" d="M16.908,19.267a1.327,1.327,0,0,1-.637-.159l-2.653-1.459-2.653,1.459a1.326,1.326,0,0,1-1.95-1.326L9.533,14.6,7.371,12.3a1.326,1.326,0,0,1,.756-2.228L11.1,9.623l1.326-2.852a1.326,1.326,0,0,1,2.414,0l1.326,2.852,2.971.451a1.326,1.326,0,0,1,.756,2.228L17.7,14.544l.517,3.184a1.326,1.326,0,0,1-1.326,1.539ZM13.632,14.8a1.326,1.326,0,0,1,.637.172l.889.491-.2-1.141a1.326,1.326,0,0,1,.358-1.141l.849-.875-1.114-.172a1.326,1.326,0,0,1-.995-.743l-.424-.942-.438.942a1.326,1.326,0,0,1-.995.743l-1.114.172.849.875a1.326,1.326,0,0,1,.358,1.141l-.186,1.141.889-.491a1.326,1.326,0,0,1,.637-.172Z" transform="translate(-0.365 2.027)" fill="#2b2d71"/>
    </g>
  </g>
</svg>
