<svg xmlns="http://www.w3.org/2000/svg" width="40" height="40" viewBox="0 0 40 40">
  <defs>
    <style>
      .cls-1 {
        fill: none;
      }

      .cls-2 {
        fill: #2b2d71;
        stroke: #2b2d71;
      }
    </style>
  </defs>
  <g id="Group_4" data-name="Group 4" transform="translate(-739 -236)">
    <rect id="Rectangle_33" data-name="Rectangle 33" class="cls-1" width="40" height="40" transform="translate(739 236)"/>
    <path id="Path_1" data-name="Path 1" class="cls-2" d="M31.855,42.6h6.764a1.41,1.41,0,0,0,1.393-1.393V28.674h2.467a1.438,1.438,0,0,0,1.313-.875,1.411,1.411,0,0,0-.358-1.552L29.03,12.958a1.452,1.452,0,0,0-1.91,0l-14.4,13.289a1.411,1.411,0,0,0-.358,1.552,1.341,1.341,0,0,0,1.313.875h2.467V41.207A1.41,1.41,0,0,0,17.531,42.6H24.3a1.41,1.41,0,0,0,1.393-1.393V32.693h4.775v8.515A1.41,1.41,0,0,0,31.855,42.6ZM25.489,31.1A1.41,1.41,0,0,0,24.1,32.494v8.515H17.73V28.475a1.41,1.41,0,0,0-1.393-1.393H14.149L28.075,14.231,42,27.083H39.812a1.41,1.41,0,0,0-1.393,1.393V41.008H32.054V32.494A1.41,1.41,0,0,0,30.661,31.1Z" transform="translate(731.234 228.9)"/>
  </g>
</svg>
