<svg xmlns="http://www.w3.org/2000/svg" width="1206.91" height="810.075" viewBox="0 0 1206.91 810.075"><defs><style>.a{opacity:0.75;}.b{fill:rgba(255,255,255,0.35);stroke:#fff;stroke-linecap:round;stroke-linejoin:round;stroke-width:2px;}</style></defs><g class="a" transform="translate(1116.517 943.256) rotate(-163)"><path class="b" d="M0,0,158.346,119.482,315.528,37.909Z" transform="translate(0 185.418)"/><path class="b" d="M0,83.639,212.4,244.264,159.582,0Z" transform="translate(157.764 221.261)"/><path class="b" d="M52.849,318.558,433.969,89.044,144.269,0,0,76.653Z" transform="translate(317.312 146.968)"/><path class="b" d="M415.063,120.063,382.35,0,0,227.989Z" transform="translate(370.84 238.032)"/><path class="b" d="M0,146.969l291.882,87.748V0Z" transform="translate(459.791 0)"/><path class="b" d="M358.762,269.322,0,233.94V0Z" transform="translate(752.098 0.472)"/><path class="b" d="M0,0,36.263,123.557,361.615,36.626Z" transform="translate(751.281 234.717)"/><path class="b" d="M427.021,184.67,329.594,0,0,85.383Z" transform="translate(786.307 270.836)"/><path class="b" d="M332.489,196.895,260.142,62.737,0,0Z" transform="translate(954.412 394.709)"/></g></svg>