<svg xmlns="http://www.w3.org/2000/svg" width="256" height="254" viewBox="0 0 256 254"><defs><style>.a{fill:#3d56a5;}.a,.b,.c,.d,.e{fill-rule:evenodd;}.b{fill:#ddf1ff;}.c{fill:#ff7946;}.d{fill:#faad14;}.e{fill:#7cb305;}.f{fill:#fff;opacity:0.998;}.g{fill:#58aee8;}.g,.h,.i,.j{stroke:#fff;}.h,.j,.k,.m{fill:none;}.h{opacity:0.999;}.i{fill:#f58220;}.k{stroke:#b9b9b9;stroke-linecap:round;stroke-width:2px;}.l{stroke:none;}</style></defs><g transform="translate(-800 -5022.394)"><g transform="translate(799.999 5022.394)"><path class="a" d="M367.706,145.319H112v-22a8.826,8.826,0,0,1,9-8.642H358.706a8.826,8.826,0,0,1,9,8.642Z" transform="translate(-111.706 -114.677)"/><path class="b" d="M358.706,431.4H121a9.023,9.023,0,0,1-9-9.046V206.951H367.706V422.356A9.023,9.023,0,0,1,358.706,431.4Z" transform="translate(-112 -177.403)"/><path class="c" d="M162.947,150.454a5.693,5.693,0,1,1-5.693-5.685A5.689,5.689,0,0,1,162.947,150.454Z" transform="translate(-138.59 -135.133)"/><path class="d" d="M228.88,150.454a5.693,5.693,0,1,1-5.693-5.685A5.689,5.689,0,0,1,228.88,150.454Z" transform="translate(-183.395 -135.133)"/><path class="e" d="M294.814,150.454a5.693,5.693,0,1,1-5.693-5.685A5.689,5.689,0,0,1,294.814,150.454Z" transform="translate(-228.338 -135.133)"/><rect class="f" width="227.244" height="192.314" rx="8" transform="translate(14.526 46.151)"/></g><g transform="translate(823.603 5081.245)"><g class="g"><rect class="l" width="209.088" height="74.386" rx="8"/><rect class="m" x="0.5" y="0.5" width="208.088" height="73.386" rx="7.5"/></g><g transform="translate(3.38 1.766)"><line class="h" x2="201.887" y2="71.235"/><line class="h" x1="201.887" y2="71.235"/></g><g transform="translate(9.078 88.9)"><g class="i"><rect class="l" width="44.482" height="44.299" rx="8"/><rect class="m" x="0.5" y="0.5" width="43.482" height="43.299" rx="7.5"/></g><g transform="translate(2.537 2.607)"><line class="j" x2="39.331" y2="39.085"/><line class="j" x1="39.331" y2="39.085"/></g><line class="k" x2="44.482" transform="translate(0 55.336)"/><line class="k" x2="44.482" transform="translate(0 63.5)"/><line class="k" x2="44.482" transform="translate(0 71.664)"/></g><g transform="translate(82.758 88.9)"><g class="i"><rect class="l" width="44.482" height="44.299" rx="8"/><rect class="m" x="0.5" y="0.5" width="43.482" height="43.299" rx="7.5"/></g><g transform="translate(2.537 2.607)"><line class="j" x2="39.331" y2="39.085"/><line class="j" x1="39.331" y2="39.085"/></g><line class="k" x2="44.482" transform="translate(0 55.336)"/><line class="k" x2="44.482" transform="translate(0 63.5)"/><line class="k" x2="44.482" transform="translate(0 71.664)"/></g><g transform="translate(155.528 88.9)"><g class="i"><rect class="l" width="44.482" height="44.299" rx="8"/><rect class="m" x="0.5" y="0.5" width="43.482" height="43.299" rx="7.5"/></g><g transform="translate(2.537 2.607)"><line class="j" x2="39.331" y2="39.085"/><line class="j" x1="39.331" y2="39.085"/></g><line class="k" x2="44.482" transform="translate(0 55.336)"/><line class="k" x2="44.482" transform="translate(0 63.5)"/><line class="k" x2="44.482" transform="translate(0 71.664)"/></g></g></g></svg>