<svg xmlns="http://www.w3.org/2000/svg" width="292" height="254" viewBox="0 0 292 254"><defs><style>.a{fill:#f2f2f2;opacity:0;}.b{fill:#3d56a5;}.b,.c,.e,.f,.g,.h,.j{fill-rule:evenodd;}.c{fill:#ddf1ff;}.d{fill:#fff;opacity:0.998;}.e{fill:#ff7946;}.f{fill:#faad14;}.g{fill:#7cb305;}.h{fill:#58aee8;}.i{fill:#f8d548;}.j{fill:#f58220;}</style></defs><g transform="translate(-1330 -2854)"><rect class="a" width="292" height="254" transform="translate(1330 2854)"/><g transform="translate(1346.937 2854)"><path class="b" d="M361.033,140.414H103V117.285a9.084,9.084,0,0,1,9.082-9.085H351.951a9.083,9.083,0,0,1,9.082,9.085Z" transform="translate(-102.999 -108.2)"/><path class="c" d="M351.951,426.227H112.081A9.065,9.065,0,0,1,103,417.178V201.731H361.033V417.178A9.065,9.065,0,0,1,351.951,426.227Z" transform="translate(-102.705 -172.227)"/><rect class="d" width="226.708" height="192.314" rx="8" transform="translate(17.524 45.357)"/><path class="e" d="M144.748,143.351a5.7,5.7,0,1,1-5.7-5.7A5.7,5.7,0,0,1,144.748,143.351Z" transform="translate(-123.778 -128.359)"/><path class="f" d="M212.248,143.351a5.7,5.7,0,1,1-5.7-5.7A5.7,5.7,0,0,1,212.248,143.351Z" transform="translate(-169.993 -128.359)"/><path class="g" d="M279.748,143.351a5.7,5.7,0,1,1-5.7-5.7A5.7,5.7,0,0,1,279.748,143.351Z" transform="translate(-216.207 -128.359)"/><path class="h" d="M343.142,408.761H305a5.218,5.218,0,0,1-5.2-5.2V365.4a5.218,5.218,0,0,1,5.2-5.2h38.14a5.218,5.218,0,0,1,5.2,5.2v38.153A5.218,5.218,0,0,1,343.142,408.761Z" transform="translate(-230.279 -274.557)"/><ellipse class="i" cx="24.272" cy="24.28" rx="24.272" ry="24.28" transform="translate(69.521 151.449)"/><path class="j" d="M579.87,368.488l-26.994,27a5.221,5.221,0,0,1-7.364,0l-26.994-27a5.226,5.226,0,0,1,0-7.366l26.994-27a5.221,5.221,0,0,1,7.364,0l26.994,27A5.225,5.225,0,0,1,579.87,368.488Z" transform="translate(-386.462 -254.708)"/><path class="h" d="M587.915,643.961H549.828a5.245,5.245,0,0,1-5.228-5.23v-38.1a5.245,5.245,0,0,1,5.228-5.23h38.087a5.245,5.245,0,0,1,5.229,5.23v38.1A5.245,5.245,0,0,1,587.915,643.961Z" transform="translate(-406.308 -443.951)"/></g></g></svg>