<svg xmlns="http://www.w3.org/2000/svg" width="290" height="254" viewBox="0 0 290 254"><defs><style>.a{fill:#f2f2f2;opacity:0;}.b{fill:#3d56a5;}.b,.c,.d,.f,.g{fill-rule:evenodd;}.c{fill:#ddf1ff;}.d{fill:#ff7946;}.e,.l{fill:#fff;}.e{opacity:0.998;}.f{fill:#faad14;}.g{fill:#7cb305;}.h{fill:#15bcf2;}.i{fill:#f58220;}.j{fill:#fed301;}.k{fill:#58aee8;}</style></defs><g transform="translate(-212.313 -2851.988)"><rect class="a" width="290" height="252.543" transform="translate(212.313 2853.445)"/><g transform="translate(229.532 2851.988)"><path class="b" d="M366.975,145.319H112v-22a8.813,8.813,0,0,1,8.974-8.642H358a8.813,8.813,0,0,1,8.974,8.642Z" transform="translate(-111.819 -114.677)"/><path class="c" d="M358,429.589H120.974A8.974,8.974,0,0,1,112,420.616V206.951H366.975V420.616A8.974,8.974,0,0,1,358,429.589Z" transform="translate(-112 -175.589)"/><path class="d" d="M162.927,150.454a5.683,5.683,0,1,1-5.684-5.685A5.685,5.685,0,0,1,162.927,150.454Z" transform="translate(-138.725 -133.319)"/><rect class="e" width="226.563" height="192.314" rx="8" transform="translate(14.5 46.151)"/><path class="f" d="M228.861,150.454a5.683,5.683,0,1,1-5.683-5.685A5.684,5.684,0,0,1,228.861,150.454Z" transform="translate(-183.566 -133.319)"/><path class="g" d="M294.795,150.454a5.683,5.683,0,1,1-5.683-5.685A5.684,5.684,0,0,1,294.795,150.454Z" transform="translate(-228.611 -133.319)"/><g transform="translate(33.928 62.053)"><path class="h" d="M236.57,764.549H191.71a4.987,4.987,0,0,0-4.985,4.99v12.474A4.987,4.987,0,0,0,191.71,787h44.86a4.987,4.987,0,0,0,4.985-4.989V769.539A4.987,4.987,0,0,0,236.57,764.549Z" transform="translate(-184.856 -626.476)"/><path class="i" d="M465.142,764.549h-44.86a4.987,4.987,0,0,0-4.984,4.99v12.474A4.987,4.987,0,0,0,420.281,787h44.86a4.987,4.987,0,0,0,4.984-4.989V769.539A4.987,4.987,0,0,0,465.142,764.549Z" transform="translate(-349.031 -626.476)"/><path class="j" d="M693.713,764.549h-44.86a4.987,4.987,0,0,0-4.985,4.99v12.474A4.987,4.987,0,0,0,648.853,787h44.86a4.987,4.987,0,0,0,4.985-4.989V769.539A4.987,4.987,0,0,0,693.713,764.549Z" transform="translate(-513.204 -626.476)"/><path class="k" d="M365.385,276.637h-173.7a4.976,4.976,0,0,0-4.963,4.99V396.382a4.976,4.976,0,0,0,4.963,4.99h173.7a4.976,4.976,0,0,0,4.963-4.99V281.627A4.976,4.976,0,0,0,365.385,276.637Z" transform="translate(-184.856 -276.637)"/><path class="l" d="M364.642,549.165a.624.624,0,0,1,.044,1.246H181.117a.624.624,0,0,1-.044-1.246H364.642Z" transform="translate(-180.392 -471.895)"/><path class="l" d="M364.642,456.857a.624.624,0,0,1,.044,1.246l-.044,0H181.117a.624.624,0,0,1-.044-1.246l.044,0Z" transform="translate(-180.392 -405.7)"/><path class="l" d="M364.642,360.154a.624.624,0,0,1,.044,1.246H181.117a.624.624,0,0,1-.044-1.246H364.642Z" transform="translate(-180.392 -336.352)"/><path class="l" d="M273.428,278.835a.623.623,0,0,1,.622.579V401.7a.623.623,0,0,1-1.245.045V279.459A.623.623,0,0,1,273.428,278.835Z" transform="translate(-246.694 -278.212)"/><path class="l" d="M370.131,278.835a.623.623,0,0,1,.621.579l0,.044V401.7a.623.623,0,0,1-1.245.045l0-.045V279.459A.623.623,0,0,1,370.131,278.835Z" transform="translate(-316.08 -278.212)"/><path class="l" d="M462.439,278.835a.623.623,0,0,1,.621.579l0,.044V401.7a.623.623,0,0,1-1.245.045V279.459A.623.623,0,0,1,462.439,278.835Z" transform="translate(-382.313 -278.212)"/><path class="l" d="M559.142,278.835a.623.623,0,0,1,.622.579l0,.044V401.7a.623.623,0,0,1-1.245.045l0-.045V279.459A.623.623,0,0,1,559.142,278.835Z" transform="translate(-451.7 -278.212)"/><path class="l" d="M651.45,278.835a.623.623,0,0,1,.621.579l0,.044V401.7a.623.623,0,0,1-1.244.045l0-.045V279.459A.623.623,0,0,1,651.45,278.835Z" transform="translate(-517.933 -278.212)"/><path class="l" d="M748.153,278.835a.623.623,0,0,1,.621.579l0,.044V401.7a.623.623,0,0,1-1.245.045l0-.045V279.459A.623.623,0,0,1,748.153,278.835Z" transform="translate(-587.318 -278.212)"/><path class="l" d="M365.626,645.868a.624.624,0,0,1,.044,1.246l-.044,0H180.752a.624.624,0,0,1-.044-1.246l.044,0Z" transform="translate(-180.132 -541.243)"/></g></g></g></svg>