<svg xmlns="http://www.w3.org/2000/svg" width="60.016" height="12" viewBox="0 0 60.016 12"><defs><style>.a,.e{fill:none;}.a{opacity:0.6;}.b{fill:#2a2e7d;stroke:#00008c;stroke-width:2px;opacity:0.8;}.c,.d{stroke:none;}.d{fill:#2b2f78;}</style></defs><g class="a" transform="translate(24.008)"><path class="c" d="M6,0A6,6,0,1,1,0,6,6,6,0,0,1,6,0Z"/><path class="d" d="M 6 2 C 3.794389724731445 2 2 3.794389724731445 2 6 C 2 8.205610275268555 3.794389724731445 10 6 10 C 8.205610275268555 10 10 8.205610275268555 10 6 C 10 3.794389724731445 8.205610275268555 2 6 2 M 6 0 C 9.31371021270752 0 12 2.68628978729248 12 6 C 12 9.31371021270752 9.31371021270752 12 6 12 C 2.68628978729248 12 0 9.31371021270752 0 6 C 0 2.68628978729248 2.68628978729248 0 6 0 Z"/></g><g class="a" transform="translate(48.016)"><path class="c" d="M6,0A6,6,0,1,1,0,6,6,6,0,0,1,6,0Z"/><path class="d" d="M 6 2 C 3.794389724731445 2 2 3.794389724731445 2 6 C 2 8.205610275268555 3.794389724731445 10 6 10 C 8.205610275268555 10 10 8.205610275268555 10 6 C 10 3.794389724731445 8.205610275268555 2 6 2 M 6 0 C 9.31371021270752 0 12 2.68628978729248 12 6 C 12 9.31371021270752 9.31371021270752 12 6 12 C 2.68628978729248 12 0 9.31371021270752 0 6 C 0 2.68628978729248 2.68628978729248 0 6 0 Z"/></g><g class="b"><circle class="c" cx="6" cy="6" r="6"/><circle class="e" cx="6" cy="6" r="5"/></g></svg>