<svg xmlns="http://www.w3.org/2000/svg" xmlns:xlink="http://www.w3.org/1999/xlink" width="980.843" height="773.653" viewBox="0 0 980.843 773.653"><defs><style>.a{fill:#2c2d8b;}.b{fill:url(#a);}.c{fill:#0670ba;}.d{fill:url(#b);}.e{fill:url(#c);}.f{fill:url(#d);}.g{fill:url(#e);}</style><linearGradient id="a" y1="0.662" x2="0.866" y2="0.54" gradientUnits="objectBoundingBox"><stop offset="0" stop-color="#ffd400"/><stop offset="0.704" stop-color="#f89f15"/><stop offset="1" stop-color="#f58220"/></linearGradient><linearGradient id="b" x2="0.955" y2="0.744" gradientUnits="objectBoundingBox"><stop offset="0" stop-color="#15bcf2"/><stop offset="0.798" stop-color="#2559ab"/><stop offset="1" stop-color="#2c2d8b"/></linearGradient><linearGradient id="c" y1="0.377" x2="1" y2="0.5" gradientUnits="objectBoundingBox"><stop offset="0" stop-color="#fff"/><stop offset="0.567" stop-color="#378cc8"/><stop offset="1" stop-color="#0670ba"/></linearGradient><linearGradient id="d" x1="1" y1="0.714" x2="0.046" y2="0.5" gradientUnits="objectBoundingBox"><stop offset="0" stop-color="#ffd400"/><stop offset="0.704" stop-color="#faa911"/><stop offset="1" stop-color="#f58220"/></linearGradient><linearGradient id="e" x1="0.881" y1="0.533" x2="0" y2="0.539" gradientUnits="objectBoundingBox"><stop offset="0" stop-color="#15bcf2"/><stop offset="1" stop-color="#2c2d8b"/></linearGradient></defs><g transform="translate(-617.205 -1545.946) rotate(41)"><path class="a" d="M1536.138,664.014l125.482-94.685,124.561,64.643Z" transform="translate(0 162.334)"/><path class="b" d="M1571.832,660.277l168.317-127.289L1698.3,726.558Z" transform="translate(89.329 71.386)"/><path class="c" d="M1649.81,532.988l302.022,181.88-229.575,70.563L1607.93,724.688Z" transform="translate(179.666 71.386)"/><path class="d" d="M1948.961,618.4l-25.922,95.145-303-180.672Z" transform="translate(209.975 71.106)"/><path class="e" d="M1640.165,654.745l231.3-69.537v186Z" transform="translate(260.34 202.073)"/><path class="a" d="M1990.6,577.272l-284.3,28.039V790.7Z" transform="translate(425.848 182.212)"/><path class="f" d="M1706.115,655.167l28.736-97.913,257.83,68.889Z" transform="translate(425.385 132.114)"/><path class="g" d="M2052.438,535.255,1975.229,681.6l-261.191-67.662Z" transform="translate(445.217 77.06)"/><path class="a" d="M2015.557,504.464l-57.333,106.314-206.152,49.716Z" transform="translate(540.401 0)"/></g></svg>