<svg xmlns="http://www.w3.org/2000/svg" width="953.563" height="352.756" viewBox="0 0 953.563 352.756"><defs><style>.a{opacity:0.304;}.b{fill:none;stroke:#00008c;stroke-width:2px;}</style></defs><g class="a" transform="translate(2.055 2.638)"><path class="b" d="M1902.892,562.408l59.082,87.938,92.979-68.888Z" transform="translate(-1902.893 -412.537)"/><path class="b" d="M2018.526,569.363l92.716,48.082-185.459,22.31Z" transform="translate(-1866.465 -401.468)"/><path class="b" d="M2086.1,532.723l-30.56,143.646-93.9-47.7Z" transform="translate(-1809.447 -459.771)"/><path class="b" d="M2251.18,669.394,2027.748,532.5,1998.49,676.929l83.8,43.76Z" transform="translate(-1750.84 -460.134)"/><path class="b" d="M2254.235,597.329l-20.225,71.739-224.164-136.84Z" transform="translate(-1732.778 -460.558)"/><path class="b" d="M2200.069,724.151V584.982L2030.607,638.22Z" transform="translate(-1699.745 -376.623)"/><path class="b" d="M2309.321,576.776l-213,161.013V598.941Z" transform="translate(-1595.232 -389.681)"/><path class="b" d="M2117.508,557.381l190.652,49.672L2096.4,630.109Z" transform="translate(-1595.103 -420.533)"/><path class="b" d="M2354.228,534.654l-57.783,108.615-191.675-48.8Z" transform="translate(-1581.797 -456.698)"/><path class="b" d="M2415,517.164,2178.8,672l58.212-108.46Z" transform="translate(-1464.038 -484.522)"/><path class="b" d="M2244.875,504.63l133.855,33-177.558,45.6Z" transform="translate(-1428.441 -504.468)"/><path class="b" d="M2141.546,617.927l198.109-113.359-43.329,78.561Z" transform="translate(-1523.33 -504.568)"/></g></svg>