<svg xmlns="http://www.w3.org/2000/svg" xmlns:xlink="http://www.w3.org/1999/xlink" width="480" height="585.999" viewBox="0 0 480 585.999"><defs><style>.a{fill:url(#a);}.b{clip-path:url(#b);}.c{opacity:0.75;}.d{fill:rgba(255,255,255,0.35);stroke:#fff;stroke-linecap:round;stroke-linejoin:round;stroke-width:2px;}</style><linearGradient id="a" x1="0.916" y1="-0.524" x2="0" y2="1.022" gradientUnits="objectBoundingBox"><stop offset="0" stop-color="#ffd400"/><stop offset="0.658" stop-color="#f6891d"/><stop offset="1" stop-color="#d06000"/></linearGradient><clipPath id="b"><rect class="a" width="480" height="585.999"/></clipPath></defs><g class="b"><g class="c" transform="translate(763.486 144.683) rotate(133)"><path class="d" d="M0,0,110.535,83.513l109.47-56.682Z" transform="translate(-0.059 128.099)"/><path class="d" d="M-.027,58.067,148.239,170.336,111.114-.052Z" transform="translate(110.096 153.543)"/><path class="d" d="M37.121,221.963,302.514,62.407,100.45-.047-.025,53.22Z" transform="translate(221.214 101.917)"/><path class="d" d="M289.134,83.636,266.179-.124-.073,158.368Z" transform="translate(258.883 165.858)"/><path class="d" d="M-.047,102.017,203.536,163.57,203.24-.094Z" transform="translate(320.464 -0.149)"/><path class="d" d="M253.646,188.761.295,163.122,0,0Z" transform="translate(524.001 0.087)"/><path class="d" d="M0,0,25.435,86.2l226.7-60.206Z" transform="translate(523.727 163.421)"/><path class="d" d="M297.778,128.784,229.628-.107-.027,59.014Z" transform="translate(548.324 189.172)"/><path class="d" d="M232.029,137.71l-50.6-93.637L0,0Z" transform="translate(665.533 275.237)"/></g></g></svg>