<svg xmlns="http://www.w3.org/2000/svg" xmlns:xlink="http://www.w3.org/1999/xlink" width="48.333" height="42.818" viewBox="0 0 48.333 42.818">
  <defs>
    <linearGradient id="linear-gradient" x1="0.524" x2="0.522" y2="1.345" gradientUnits="objectBoundingBox">
      <stop offset="0" stop-color="#0670ba"/>
      <stop offset="1" stop-color="#2a2e7d"/>
    </linearGradient>
    <filter id="Path_11839" x="2.068" y="0" width="44.197" height="37.303" filterUnits="userSpaceOnUse">
      <feOffset dy="3" input="SourceAlpha"/>
      <feGaussianBlur stdDeviation="3" result="blur"/>
      <feFlood flood-opacity="0.098"/>
      <feComposite operator="in" in2="blur"/>
      <feComposite in="SourceGraphic"/>
    </filter>
    <filter id="Path_11840" x="0" y="22.061" width="48.333" height="20.758" filterUnits="userSpaceOnUse">
      <feOffset dy="3" input="SourceAlpha"/>
      <feGaussianBlur stdDeviation="3" result="blur-2"/>
      <feFlood flood-opacity="0.098"/>
      <feComposite operator="in" in2="blur-2"/>
      <feComposite in="SourceGraphic"/>
    </filter>
  </defs>
  <g id="_01_Web_-_Selected" data-name="01 Web - Selected" transform="translate(7.621 1.864)">
    <g id="invisible_box" data-name="invisible box">
      <rect id="Rectangle_11146" data-name="Rectangle 11146" width="33.091" height="33.091" fill="none"/>
    </g>
    <g id="icons_Q2" data-name="icons Q2" transform="translate(1.379 4.136)">
      <g transform="matrix(1, 0, 0, 1, -9, -6)" filter="url(#Path_11839)">
        <path id="Path_11839-2" data-name="Path 11839" d="M29.818,6H6.379A1.379,1.379,0,0,0,5,7.379V23.924A1.379,1.379,0,0,0,6.379,25.3H29.818A1.379,1.379,0,0,0,31.2,23.924V7.379A1.379,1.379,0,0,0,29.818,6Z" transform="translate(6.07 0)" fill="url(#linear-gradient)"/>
      </g>
      <g transform="matrix(1, 0, 0, 1, -9, -6)" filter="url(#Path_11840)">
        <path id="Path_11840-2" data-name="Path 11840" d="M30.955,40.758H3.379a1.379,1.379,0,1,1,0-2.758H30.955a1.379,1.379,0,0,1,0,2.758Z" transform="translate(7 -9.94)" fill="url(#linear-gradient)"/>
      </g>
    </g>
  </g>
</svg>
