<svg id="_01_Web_-_White" data-name="01 Web - White" xmlns="http://www.w3.org/2000/svg" width="33.091" height="33.091" viewBox="0 0 33.091 33.091">
  <g id="invisible_box" data-name="invisible box">
    <rect id="Rectangle_11146" data-name="Rectangle 11146" width="33.091" height="33.091" fill="none"/>
  </g>
  <g id="icons_Q2" data-name="icons Q2" transform="translate(1.379 4.136)">
    <path id="Path_11839" data-name="Path 11839" d="M29.818,6H6.379A1.379,1.379,0,0,0,5,7.379V23.924A1.379,1.379,0,0,0,6.379,25.3H29.818A1.379,1.379,0,0,0,31.2,23.924V7.379A1.379,1.379,0,0,0,29.818,6Z" transform="translate(-2.932 -6)" fill="#fff"/>
    <path id="Path_11840" data-name="Path 11840" d="M30.955,40.758H3.379a1.379,1.379,0,1,1,0-2.758H30.955a1.379,1.379,0,0,1,0,2.758Z" transform="translate(-2 -15.939)" fill="#fff"/>
  </g>
</svg>
