<svg xmlns="http://www.w3.org/2000/svg" xmlns:xlink="http://www.w3.org/1999/xlink" width="1123.066" height="859.631" viewBox="0 0 1123.066 859.631"><defs><style>.a{fill:#2c2d8b;}.b{fill:url(#a);}.c{fill:#0670ba;}.d{fill:url(#b);}.e{fill:url(#c);}.f{fill:url(#d);}.g{fill:url(#e);}</style><linearGradient id="a" y1="0.338" x2="0.866" y2="0.46" gradientUnits="objectBoundingBox"><stop offset="0" stop-color="#ffd400"/><stop offset="0.704" stop-color="#f89f15"/><stop offset="1" stop-color="#f58220"/></linearGradient><linearGradient id="b" y1="1" x2="0.955" y2="0.256" gradientUnits="objectBoundingBox"><stop offset="0" stop-color="#15bcf2"/><stop offset="0.798" stop-color="#2559ab"/><stop offset="1" stop-color="#2c2d8b"/></linearGradient><linearGradient id="c" y1="0.623" x2="1" y2="0.5" gradientUnits="objectBoundingBox"><stop offset="0" stop-color="#fff"/><stop offset="0.567" stop-color="#378cc8"/><stop offset="1" stop-color="#0670ba"/></linearGradient><linearGradient id="d" x1="1" y1="0.286" x2="0.046" y2="0.5" gradientUnits="objectBoundingBox"><stop offset="0" stop-color="#ffd400"/><stop offset="0.704" stop-color="#faa911"/><stop offset="1" stop-color="#f58220"/></linearGradient><linearGradient id="e" x1="0.881" y1="0.467" x2="0" y2="0.461" gradientUnits="objectBoundingBox"><stop offset="0" stop-color="#15bcf2"/><stop offset="1" stop-color="#2c2d8b"/></linearGradient></defs><g transform="translate(1227.406 234.699) rotate(141)"><path class="a" d="M0,0,141.623,106.839,282.207,33.9Z" transform="translate(0 165.798)"/><path class="b" d="M0,74.789,189.968,218.417,142.731,0Z" transform="translate(141.104 197.848)"/><path class="c" d="M47.267,284.848,388.28,78.644,129.033,0,0,68.541Z" transform="translate(283.803 131.417)"/><path class="d" d="M371.96,110.2,341.181,0,0,206.25Z" transform="translate(330.95 210.003)"/><path class="e" d="M0,131.416l260.875,78.646L261.058,0Z" transform="translate(411.236 0)"/><path class="a" d="M321.486,240.823,0,209.564.611,0Z" transform="translate(672.063 0.423)"/><path class="f" d="M0,0,30.826,110.195,323.291,32.65Z" transform="translate(672.079 209.979)"/><path class="g" d="M382.273,165.129,295.133,0,0,77.976Z" transform="translate(702.924 242.176)"/><path class="a" d="M297.377,176.059,232.67,56.1,0,0Z" transform="translate(853.623 352.942)"/></g></svg>