<svg xmlns="http://www.w3.org/2000/svg" width="36" height="36" viewBox="0 0 36 36"><defs><style>.a{fill:rgba(42,46,125,0.1);}.b{fill:none;}.c{fill:#2a2e7d;}</style></defs><g transform="translate(-1643 -3988)"><rect class="a" width="36" height="36" rx="4" transform="translate(1643 3988)"/><g transform="translate(1649 3994)"><rect class="b" width="24" height="24"/><g transform="translate(2.5 1.5)"><path class="c" d="M24,5.9a1.15,1.15,0,0,1-.3.8A.85.85,0,0,1,23,7H17a1,1,0,0,1-1-1V5H13V6a1,1,0,0,1-1,1H6.05A1.05,1.05,0,0,1,5,6.1a1.15,1.15,0,0,1,.3-.8A.85.85,0,0,1,6,5h5V4a1,1,0,0,1,1-1h5a1,1,0,0,1,1,1V5h4.95A1.05,1.05,0,0,1,24,5.9Z" transform="translate(-4.999 -3)"/><path class="c" d="M21.995,15.9,20.795,28h-8.4l-1.2-12.1a1,1,0,0,0-1-.9h0a1,1,0,0,0-1,1.1l1.3,13a1,1,0,0,0,1,.9h10.2a1,1,0,0,0,1-.9l1.3-13a1,1,0,0,0-1-1.1h0A1,1,0,0,0,21.995,15.9Z" transform="translate(-7.095 -9)"/></g></g></g></svg>