<svg xmlns="http://www.w3.org/2000/svg" width="36" height="36" viewBox="0 0 36 36"><defs><style>.a{fill:rgba(42,46,125,0.1);}.b{fill:none;}.c{fill:#2a2e7d;}</style></defs><g transform="translate(-1643 -3988)"><rect class="a" width="36" height="36" rx="4" transform="translate(1643 3988)"/><g transform="translate(1649 3994)"><rect class="b" width="24" height="24"/><g transform="translate(2 2)"><path class="c" d="M23,42H5a1,1,0,1,1,0-2H23a1,1,0,1,1,0,2Z" transform="translate(-4 -22)"/><path class="c" d="M16.3,16.75l3,2.95a.95.95,0,0,0,1.4,0l3-2.95a1.05,1.05,0,0,0,.1-1.35.95.95,0,0,0-1.5-.1L21,16.6V5a1,1,0,1,0-2,0V16.6l-1.3-1.3a.95.95,0,0,0-1.5.1A1.05,1.05,0,0,0,16.3,16.75Z" transform="translate(-10.001 -4)"/></g></g></g></svg>