<svg xmlns="http://www.w3.org/2000/svg" width="36" height="36" viewBox="0 0 36 36"><defs><style>.a{fill:rgba(42,46,125,0.1);}.b{fill:none;}.c{fill:#2a2e7d;}</style></defs><g transform="translate(-1595 -3988)"><rect class="a" width="36" height="36" rx="4" transform="translate(1595 3988)"/><g transform="translate(1599 3992)"><rect class="b" width="28" height="28"/><g transform="translate(1.179 6.417)"><path class="c" d="M27.267,17.475h0C26.042,15.958,21.492,11,14.842,11s-11.2,4.958-12.425,6.475a1.75,1.75,0,0,0,0,2.217c1.225,1.517,5.775,6.475,12.425,6.475s11.2-4.958,12.425-6.475A1.75,1.75,0,0,0,27.267,17.475ZM14.842,23.833c-5.133,0-8.925-3.617-10.325-5.25,1.4-1.633,5.192-5.25,10.325-5.25s8.925,3.617,10.325,5.25C23.767,20.217,19.976,23.833,14.842,23.833Z" transform="translate(-2.022 -11)"/><circle class="c" cx="3.5" cy="3.5" r="3.5" transform="translate(9.321 4.083)"/></g></g></g></svg>