<svg xmlns="http://www.w3.org/2000/svg" width="24" height="24" viewBox="0 0 24 24"><defs><style>.a{fill:none;}.b{fill:#2e2e2e;}</style></defs><rect class="a" width="24" height="24"/><g transform="translate(0 0)"><path class="b" d="M20.364,10a4.364,4.364,0,1,0,4.364,4.364A4.364,4.364,0,0,0,20.364,10Zm0,6.545a2.182,2.182,0,1,1,2.182-2.182A2.182,2.182,0,0,1,20.364,16.545Z" transform="translate(-8.364 -5.636)"/><path class="b" d="M14,2a11.945,11.945,0,1,0,8.5,3.5A12,12,0,0,0,14,2ZM7.345,21.2A14.4,14.4,0,0,1,14,19.454,14.4,14.4,0,0,1,20.654,21.2a9.764,9.764,0,0,1-13.309,0Zm14.782-1.691h0A16.745,16.745,0,0,0,14,17.272a16.745,16.745,0,0,0-8.127,2.236h0A9.654,9.654,0,0,1,4.182,14a9.818,9.818,0,1,1,19.636,0,9.654,9.654,0,0,1-1.691,5.509Z" transform="translate(-2 -2)"/></g></svg>