<svg xmlns="http://www.w3.org/2000/svg" width="21" height="20.561" viewBox="0 0 21 20.561"><defs><style>.a{fill:none;}.b{fill:#223360;}</style></defs><g transform="translate(0 0)"><rect class="a" width="21" height="20" transform="translate(0 0.339)"/><path class="b" d="M22.863,31.561a.79.79,0,0,1-.559-.232L19.14,28.166a.79.79,0,0,1-.232-.559V20.49a1.451,1.451,0,0,0-.327-.791L11.232,12.35A.791.791,0,0,1,11.791,11H30.77a.791.791,0,0,1,.559,1.35L23.981,19.7a1.451,1.451,0,0,0-.327.791V30.77a.791.791,0,0,1-.791.791ZM20.49,27.28l1.582,1.582V20.49a2.965,2.965,0,0,1,.791-1.909l6-6H13.7l6,6a2.963,2.963,0,0,1,.791,1.909Z" transform="translate(-10.851 -11)"/></g></svg>