<svg xmlns="http://www.w3.org/2000/svg" width="23.877" height="23.588" viewBox="0 0 23.877 23.588"><defs><style>.a{fill:#fff;}</style></defs><path class="a" d="M5.345,23.589H.394V7.84h4.95ZM2.867,5.692A2.873,2.873,0,0,1,0,2.833,2.85,2.85,0,0,1,2.867,0,2.85,2.85,0,0,1,5.734,2.833,2.873,2.873,0,0,1,2.867,5.692Zm21.005,17.9h-4.94V15.922c0-1.827-.037-4.17-2.574-4.17-2.574,0-2.968,1.985-2.968,4.038v7.8H8.446V7.84h4.748V9.988h.069a5.213,5.213,0,0,1,4.684-2.543c5.01,0,5.931,3.259,5.931,7.492v8.651Z" transform="translate(0 0)"/></svg>