<svg xmlns="http://www.w3.org/2000/svg" xmlns:xlink="http://www.w3.org/1999/xlink" width="68.76" height="68.76" viewBox="0 0 68.76 68.76"><defs><style>.a{fill:#1c5dd8;}.b{filter:url(#a);}</style><filter id="a" x="0" y="0" width="68.76" height="68.76" filterUnits="userSpaceOnUse"><feOffset dy="3" input="SourceAlpha"/><feGaussianBlur stdDeviation="3" result="b"/><feFlood flood-opacity="0.09"/><feComposite operator="in" in2="b"/><feComposite in="SourceGraphic"/></filter></defs><g class="b" transform="matrix(1, 0, 0, 1, 0, 0)"><path class="a" d="M28.755,3.375a25.38,25.38,0,1,0,25.38,25.38A25.376,25.376,0,0,0,28.755,3.375ZM39.8,30.707h-9.09V39.8a1.952,1.952,0,0,1-3.9,0v-9.09h-9.09a1.952,1.952,0,0,1,0-3.9H26.8v-9.09a1.952,1.952,0,0,1,3.9,0V26.8H39.8a1.952,1.952,0,1,1,0,3.9Z" transform="translate(5.63 2.63)"/></g></svg>