<svg xmlns="http://www.w3.org/2000/svg" width="232.095" height="30.434" viewBox="0 0 232.095 30.434"><defs><style>.a{fill:#fff;}</style></defs><path class="a" d="M-1.085,7.715,6.683-21.549H30.9l-2.231,8.361H14.121l-.992,3.721H26.641L24.616-1.858H11.1L8.584,7.715Zm22.148,0,20-29.473h9.586l4.38,29.473H44.739l-.5-3.93H34.12L31.6,7.715ZM38.417-3.154h5.289l-.785-7.107ZM69.531,8.3A20.3,20.3,0,0,1,55.276,2.991L60.812-3.7Q65.688.441,70.564.441q2.107,0,2.107-1.3a1.322,1.322,0,0,0-.785-1.129,35.748,35.748,0,0,0-3.967-1.672,17.7,17.7,0,0,1-6.074-3.365,6.5,6.5,0,0,1-1.818-4.87,8.921,8.921,0,0,1,2.727-6.48q3.719-3.762,10.289-3.762,7.809,0,12.892,4.39L80.4-11.056a12.97,12.97,0,0,0-8.347-3.261q-2.107,0-2.107,1.171a1.085,1.085,0,0,0,.682.982q.682.355,3.946,1.568A18.057,18.057,0,0,1,80.625-7.21a6.554,6.554,0,0,1,2,5.017,9.381,9.381,0,0,1-2.768,6.856Q76.266,8.3,69.531,8.3Zm19.131-.585L94.24-13.271H85.728l2.19-8.277h26.693l-2.19,8.277h-8.512L98.331,7.715Zm20.288,0,7.768-29.264h9.669L120.85-.646h13.181L131.8,7.715Zm22.891,0,20-29.473h9.586l4.38,29.473H155.518l-.5-3.93H144.9l-2.521,3.93ZM149.2-3.154h5.289l-.785-7.107ZM166.509,7.715l7.768-29.264h9.049L189.9-7.586l3.719-13.963H203.2L195.433,7.715h-8.595L179.979-6.833,176.1,7.715Zm32.064,0,7.768-29.264H231.01l-2.149,8.027H213.7l-.785,2.968h14.131l-1.859,7.065H211.052l-.868,3.177h15.371l-2.107,8.027Z" transform="translate(1.085 22.134)"/></svg>