<svg id="Group_114509" data-name="Group 114509" xmlns="http://www.w3.org/2000/svg" width="30" height="30.044" viewBox="0 0 30 30.044">
  <path id="Path_3821" data-name="Path 3821" d="M426.747,253.371a5.451,5.451,0,0,1-1.423,3.72c-.115.128-.236.249-.357.371q-8.527,8.531-17.052,17.062a2.5,2.5,0,0,1-1.012.63c-2.579.849-5.153,1.713-7.731,2.564a1.79,1.79,0,0,1-2.395-1.365,2.054,2.054,0,0,1,.08-.975q1.314-4.014,2.676-8.013a1.567,1.567,0,0,1,.377-.573q8.671-8.686,17.36-17.355a5.267,5.267,0,0,1,5.6-1.365,5.385,5.385,0,0,1,3.8,4.306,3.859,3.859,0,0,1,.071.509C426.756,253.047,426.747,253.209,426.747,253.371Zm-6.6,4.727-3.679-3.674L403,267.852l3.719,3.719Zm2.163-2.092c.234-.243.459-.485.694-.718a2.7,2.7,0,0,0,.819-1.8,2.652,2.652,0,0,0-2.938-2.755,3.894,3.894,0,0,0-2.309,1.535Zm-20.807,14.616-1.219,3.653,3.651-1.219Z" transform="translate(-396.751 -247.779)" fill="#2b2d71"/>
</svg>
