<svg width="512" height="512" xmlns="http://www.w3.org/2000/svg">

 <g>
  <title>background</title>
  <rect fill="none" id="canvas_background" height="402" width="582" y="-1" x="-1"/>
 </g>
 <g>
  <title>Layer 1</title>
  <path id="svg_2" fill="#37404D" d="m444.852,66.908l-99.339,0l0,-19.868c0,-21.943 -17.792,-39.736 -39.736,-39.736l-99.339,0c-21.944,0 -39.736,17.793 -39.736,39.736l0,19.868l-99.339,0l0,19.868l20.47,0l19.887,377.489c0,21.944 17.792,39.736 39.736,39.736l218.546,0c21.944,0 39.736,-17.792 39.736,-39.736l19.538,-377.489l19.577,0l0,-19.868l-0.001,0zm-258.282,-19.868c0,-10.962 8.926,-19.868 19.868,-19.868l99.339,0c10.962,0 19.868,8.906 19.868,19.868l0,19.868l-139.075,0l0,-19.868zm199.338,416.196l-0.039,0.505l0,0.524c0,10.943 -8.906,19.868 -19.868,19.868l-218.546,0c-10.942,0 -19.868,-8.925 -19.868,-19.868l0,-0.524l-0.019,-0.523l-19.848,-376.442l297.669,0l-19.481,376.46z"/>
  <rect id="svg_3" y="126.511" x="246.173" width="19.868" height="317.885" fill="#37404D"/>
  <polygon id="svg_4" points="206.884,443.757 186.551,126.493 166.722,127.753 187.056,445.017  " fill="#37404D"/>
  <polygon id="svg_5" points="345.649,127.132 325.82,125.891 305.777,443.776 325.606,445.017  " fill="#37404D"/>
 </g>
</svg>