<svg id="Delete_Icon" data-name="Delete Icon" xmlns="http://www.w3.org/2000/svg" width="30" height="30" viewBox="0 0 30 30">
  <g id="Rectangle_2196" data-name="Rectangle 2196" fill="#2b2d71" stroke="#707070" stroke-width="1" opacity="0">
    <rect width="30" height="30" stroke="none"/>
    <rect x="0.5" y="0.5" width="29" height="29" fill="none"/>
  </g>
  <g id="Master_Icon" data-name="Master Icon" transform="translate(1.62 1.809)">
    <g id="Group_5682" data-name="Group 5682" transform="translate(0 2.878)">
      <g id="Group_5679" data-name="Group 5679" transform="translate(2.158 0.047)">
        <g id="Group_5678" data-name="Group 5678">
          <path id="Path_3952" data-name="Path 3952" d="M106.226,112.543H99.215c-2.422,0-4.844.038-7.265,0h-.1c-.153-.013-.12-.006.08.019,0,.006-.187-.038-.173-.032a1.319,1.319,0,0,0-.213-.058c-.16-.013.267.147.033.013-.047-.026-.1-.051-.153-.083-.28-.16-.02.013-.013.006s-.32-.269-.307-.295.16.256.033.026c-.033-.064-.073-.122-.107-.179-.127-.218.047.07.027.077a1.769,1.769,0,0,1-.08-.243,1.237,1.237,0,0,0-.033-.166c.113.288.02.115.02-.013V98.757c0-2.151.053-4.316,0-6.467v-.1l-1.334,1.281h18.9l-1.334-1.281V111.7c.007.295.08-.275.007.006a1.639,1.639,0,0,1-.093.327c.02-.051.047-.1.067-.147-.027.051-.053.1-.08.147a1.326,1.326,0,0,1-.14.211c.033-.045.067-.083.1-.128-.04.045-.073.083-.113.122s-.08.077-.127.115c-.107.09-.087.07.067-.045a1.589,1.589,0,0,1-.22.134c-.053.026-.1.051-.153.077.187-.07.207-.083.073-.038-.087.019-.173.045-.26.064-.147.026-.12.019.087-.013a1.575,1.575,0,0,1-.18.006,1.282,1.282,0,1,0,0,2.561,3.624,3.624,0,0,0,3.643-3.5c.007-.231,0-.467,0-.7V92.181a1.329,1.329,0,0,0-1.334-1.281h-18.9A1.329,1.329,0,0,0,88.3,92.181v19.383a3.463,3.463,0,0,0,1.294,2.709,3.974,3.974,0,0,0,2.515.832h14.117a1.282,1.282,0,1,0,0-2.561Z" transform="translate(-88.3 -90.9)" fill="#2b2d71"/>
        </g>
      </g>
      <g id="Group_5681" data-name="Group 5681" transform="translate(0 0)">
        <g id="Group_5680" data-name="Group 5680">
          <path id="Path_3953" data-name="Path 3953" d="M44.737,91.857h20.5c.947,0,1.9.019,2.846,0h.038c.658,0,1.285-.443,1.254-.963a1.161,1.161,0,0,0-1.254-.963H47.62c-.947,0-1.9-.019-2.846,0h-.038c-.658,0-1.285.443-1.254.963a1.152,1.152,0,0,0,1.254.963Z" transform="translate(-43.482 -89.922)" fill="#2b2d71"/>
        </g>
      </g>
    </g>
    <g id="Group_5684" data-name="Group 5684" transform="translate(8.653 0)">
      <g id="Group_5683" data-name="Group 5683">
        <path id="Path_3954" data-name="Path 3954" d="M162.279,34v-1.7c0-.039.024-.13-.01,0-.038.159.014-.048.019-.063.034-.159-.092.13,0,0a.945.945,0,0,1,.067-.106c.019.01-.14.14-.053.072a.492.492,0,0,0,.087-.087c.067-.087-.063.072-.072.053a.334.334,0,0,1,.082-.048c.169-.092.014.019-.029,0,.014,0,.3-.082.125-.039-.125.034-.034,0,.01.01h4.267c.058,0,.116,0,.169,0a.362.362,0,0,0,.072,0c-.043.043-.2-.043-.063,0a.642.642,0,0,0,.092.024c.12.019-.149-.1-.053-.024a.337.337,0,0,0,.082.043c.024.014.125.053,0,0s.01.019.043.048.048.1,0,0c-.063-.135.01.029.029.058.048.072-.01.063,0,0-.029-.077-.034-.077,0,0,0,.019.01.043.014.063.053.173,0-.188,0,.01v1.7a.963.963,0,1,0,1.926,0V32.941a3.62,3.62,0,0,0-.169-1.454,2.179,2.179,0,0,0-1.989-1.329c-.231,0-.462,0-.694,0h-2.745a3.069,3.069,0,0,0-2.572.7,2.212,2.212,0,0,0-.563,1.45c0,.149,0,.3,0,.453V34a.961.961,0,1,0,1.922,0Z" transform="translate(-160.356 -30.156)" fill="#2b2d71"/>
      </g>
    </g>
    <g id="Group_5689" data-name="Group 5689" transform="translate(9.852 9.053)">
      <g id="Group_5686" data-name="Group 5686" transform="translate(0 0)">
        <g id="Group_5685" data-name="Group 5685">
          <path id="Path_3955" data-name="Path 3955" d="M185.8,184.674v10.65c0,.73.443,1.425.963,1.39s.963-.612.963-1.39v-10.65c0-.73-.443-1.425-.963-1.39s-.963.612-.963,1.39Z" transform="translate(-185.8 -183.282)" fill="#2b2d71"/>
        </g>
      </g>
      <g id="Group_5688" data-name="Group 5688" transform="translate(4.257 0)">
        <g id="Group_5687" data-name="Group 5687">
          <path id="Path_3956" data-name="Path 3956" d="M274.2,184.674v10.65c0,.73.443,1.425.963,1.39s.963-.612.963-1.39v-10.65c0-.73-.443-1.425-.963-1.39s-.963.612-.963,1.39Z" transform="translate(-274.2 -183.282)" fill="#2b2d71"/>
        </g>
      </g>
    </g>
  </g>
</svg>
