<svg xmlns="http://www.w3.org/2000/svg" width="32.222" height="32" viewBox="0 0 32.222 32"><defs><style>.a{fill:none;}.b{fill:#1c5dd8;}</style></defs><g transform="translate(0)"><rect class="a" width="32" height="32" transform="translate(0.222)"/><g transform="translate(0 5.937)"><path class="b" d="M30.084,103.926a5.542,5.542,0,0,0-3.782-1.582,9.969,9.969,0,0,0-2.917-6.378A10.113,10.113,0,0,0,16.241,93a9.938,9.938,0,0,0-5.785,1.829,10.261,10.261,0,0,0-3.51,4.351,6.931,6.931,0,0,0-4.919,2.052A7.073,7.073,0,0,0,0,106.176a7.005,7.005,0,0,0,7,7h6.625a.744.744,0,0,0,.742-.742v-5.191a.744.744,0,0,0-.742-.742H13.1l1.434-1.928,1.681-2.3,1.681,2.3,1.434,1.928h-.519a.744.744,0,0,0-.742.742v5.191a.744.744,0,0,0,.742.742h7.441a5.419,5.419,0,0,0,3.832-9.245Zm-1.063,6.6a3.943,3.943,0,0,1-2.793,1.162h-6.7V107.98h1.236a.744.744,0,0,0,.742-.742.78.78,0,0,0-.173-.47l-2.25-3.065-2.274-3.115a.718.718,0,0,0-1.014-.148.577.577,0,0,0-.173.173l-2.274,3.09-2.3,3.09a.714.714,0,0,0,.148,1.014.69.69,0,0,0,.445.148h1.236v3.733H7a5.513,5.513,0,1,1,0-11.025h.4a.744.744,0,0,0,.766-.544,8.608,8.608,0,0,1,16.686,2.966v.049a.717.717,0,0,0,.717.717h.1c.074,0,.173-.025.272-.025H26.2a3.967,3.967,0,0,1,3.955,3.955A3.806,3.806,0,0,1,29.021,110.527Z" transform="translate(0 -93)"/></g></g></svg>