<svg id="_02_Mobile_-_Selected" data-name="02 Mobile - Selected" xmlns="http://www.w3.org/2000/svg" xmlns:xlink="http://www.w3.org/1999/xlink" width="56" height="56" viewBox="0 0 56 56">
  <defs>
    <filter id="Rectangle_11143">
      <feOffset dy="3" input="SourceAlpha"/>
      <feGaussianBlur stdDeviation="3" result="blur"/>
      <feFlood flood-color="#5a5a5a" flood-opacity="0.495" result="color"/>
      <feComposite operator="out" in="SourceGraphic" in2="blur"/>
      <feComposite operator="in" in="color"/>
      <feComposite operator="in" in2="SourceGraphic"/>
    </filter>
    <linearGradient id="linear-gradient" x1="0.707" y1="-0.056" x2="0.447" y2="1.041" gradientUnits="objectBoundingBox">
      <stop offset="0" stop-color="#6465d3"/>
      <stop offset="1" stop-color="#2c2d8b"/>
    </linearGradient>
    <filter id="Path_11841" x="8.659" y="6.833" width="38.682" height="48.333" filterUnits="userSpaceOnUse">
      <feOffset dy="3" input="SourceAlpha"/>
      <feGaussianBlur stdDeviation="3" result="blur-2"/>
      <feFlood flood-opacity="0.161"/>
      <feComposite operator="in" in2="blur-2"/>
      <feComposite in="SourceGraphic"/>
    </filter>
  </defs>
  <g data-type="innerShadowGroup">
    <rect id="Rectangle_11143-2" data-name="Rectangle 11143" width="56" height="56" rx="8" fill="rgba(255,255,255,0.9)"/>
    <g transform="matrix(1, 0, 0, 1, 0, 0)" filter="url(#Rectangle_11143)">
      <rect id="Rectangle_11143-3" data-name="Rectangle 11143" width="56" height="56" rx="8" fill="#fff"/>
    </g>
    <g id="Rectangle_11143-4" data-name="Rectangle 11143" fill="none" stroke="#fff" stroke-width="2">
      <rect width="56" height="56" rx="8" stroke="none"/>
      <rect x="1" y="1" width="54" height="54" rx="7" fill="none"/>
    </g>
  </g>
  <g id="Layer_2" data-name="Layer 2" transform="translate(11.455 11.455)">
    <g id="invisible_box" data-name="invisible box">
      <rect id="Rectangle_11147" data-name="Rectangle 11147" width="33.091" height="33.091" fill="#fff"/>
      <rect id="Rectangle_11148" data-name="Rectangle 11148" width="33.091" height="33.091" fill="#fff"/>
      <rect id="Rectangle_11149" data-name="Rectangle 11149" width="33.091" height="33.091" fill="#fff"/>
    </g>
    <g id="icons_Q2" data-name="icons Q2" transform="translate(6.205 1.379)">
      <g transform="matrix(1, 0, 0, 1, -17.66, -12.83)" filter="url(#Path_11841)">
        <path id="Path_11841-2" data-name="Path 11841" d="M28.3,2H10.379A1.379,1.379,0,0,0,9,3.379V30.955a1.379,1.379,0,0,0,1.379,1.379H28.3a1.379,1.379,0,0,0,1.379-1.379V3.379A1.379,1.379,0,0,0,28.3,2ZM20.03,28.2H18.652a1.379,1.379,0,1,1,0-2.758H20.03a1.379,1.379,0,0,1,0,2.758Z" transform="translate(8.66 10.83)" fill="url(#linear-gradient)"/>
      </g>
    </g>
  </g>
</svg>
