<svg id="_02_Mobile_-_White" data-name="02 Mobile - White" xmlns="http://www.w3.org/2000/svg" width="33.091" height="33.091" viewBox="0 0 33.091 33.091">
  <g id="invisible_box" data-name="invisible box">
    <rect id="Rectangle_11147" data-name="Rectangle 11147" width="33.091" height="33.091" fill="none"/>
    <rect id="Rectangle_11148" data-name="Rectangle 11148" width="33.091" height="33.091" fill="none"/>
    <rect id="Rectangle_11149" data-name="Rectangle 11149" width="33.091" height="33.091" fill="none"/>
  </g>
  <g id="icons_Q2" data-name="icons Q2" transform="translate(6.205 1.379)">
    <path id="Path_11841" data-name="Path 11841" d="M28.3,2H10.379A1.379,1.379,0,0,0,9,3.379V30.955a1.379,1.379,0,0,0,1.379,1.379H28.3a1.379,1.379,0,0,0,1.379-1.379V3.379A1.379,1.379,0,0,0,28.3,2ZM20.03,28.2H18.652a1.379,1.379,0,1,1,0-2.758H20.03a1.379,1.379,0,0,1,0,2.758Z" transform="translate(-9 -2)" fill="#fff"/>
  </g>
</svg>
