<svg xmlns="http://www.w3.org/2000/svg" width="23.891" height="23.596" viewBox="0 0 23.891 23.596"><defs><style>.a{fill:#fff;}</style></defs><path class="a" d="M11.943,7.986a6.05,6.05,0,1,0,6.124,6.05A6.078,6.078,0,0,0,11.943,7.986Zm0,9.983a3.933,3.933,0,1,1,3.981-3.933,3.965,3.965,0,0,1-3.981,3.933Zm7.8-10.23a1.428,1.428,0,1,1-1.428-1.411A1.417,1.417,0,0,1,19.746,7.739ZM23.8,9.171a6.936,6.936,0,0,0-1.929-4.944,7.164,7.164,0,0,0-5-1.906c-1.972-.111-7.883-.111-9.855,0a7.154,7.154,0,0,0-5,1.9A6.959,6.959,0,0,0,.079,9.166c-.112,1.948-.112,7.787,0,9.736a6.936,6.936,0,0,0,1.929,4.944,7.173,7.173,0,0,0,5,1.906c1.972.111,7.883.111,9.855,0a7.117,7.117,0,0,0,5-1.906A6.982,6.982,0,0,0,23.8,18.9c.112-1.948.112-7.782,0-9.73ZM21.254,20.991a4.007,4.007,0,0,1-2.27,2.243c-1.572.616-5.3.474-7.041.474s-5.474.137-7.041-.474a4.007,4.007,0,0,1-2.27-2.243c-.624-1.553-.48-5.239-.48-6.955s-.139-5.407.48-6.955A4.007,4.007,0,0,1,4.9,4.837c1.572-.616,5.3-.474,7.041-.474s5.474-.137,7.041.474a4.007,4.007,0,0,1,2.27,2.243c.624,1.553.48,5.239.48,6.955S21.878,19.443,21.254,20.991Z" transform="translate(0.005 -2.238)"/></svg>