<svg xmlns="http://www.w3.org/2000/svg" width="29.108" height="20.466" viewBox="0 0 29.108 20.466"><defs><style>.a{fill:#fff;}</style></defs><path class="a" d="M29.55,7.7a3.657,3.657,0,0,0-2.573-2.59C24.706,4.5,15.6,4.5,15.6,4.5s-9.1,0-11.372.612A3.658,3.658,0,0,0,1.658,7.7a38.368,38.368,0,0,0-.608,7.052,38.368,38.368,0,0,0,.608,7.052,3.6,3.6,0,0,0,2.573,2.549c2.27.612,11.372.612,11.372.612s9.1,0,11.372-.612a3.6,3.6,0,0,0,2.573-2.549,38.368,38.368,0,0,0,.608-7.052A38.368,38.368,0,0,0,29.55,7.7ZM12.627,19.082V10.426l7.608,4.328-7.608,4.328Z" transform="translate(-1.05 -4.5)"/></svg>