<svg xmlns="http://www.w3.org/2000/svg" width="19.73" height="19.73" viewBox="0 0 19.73 19.73">
  <g id="Group_115309" data-name="Group 115309" transform="translate(13443.65 8350.65)">
    <path id="Path_2026" data-name="Path 2026" d="M14.715,5a9.715,9.715,0,1,0,9.715,9.715A9.729,9.729,0,0,0,14.715,5Zm0,18.566a8.851,8.851,0,1,1,8.851-8.851A8.863,8.863,0,0,1,14.715,23.566Zm0-10.362a1.511,1.511,0,1,0,1.511,1.511A1.5,1.5,0,0,0,14.715,13.2Zm0,2.159a.648.648,0,1,1,.648-.648A.636.636,0,0,1,14.715,15.363ZM9.534,13.2a1.511,1.511,0,1,0,1.511,1.511A1.5,1.5,0,0,0,9.534,13.2Zm0,2.159a.648.648,0,1,1,.648-.648A.636.636,0,0,1,9.534,15.363ZM19.9,13.2a1.511,1.511,0,1,0,1.511,1.511A1.5,1.5,0,0,0,19.9,13.2Zm0,2.159a.648.648,0,1,1,.648-.648A.636.636,0,0,1,19.9,15.363Z" transform="translate(-13448.5 -8355.5)" fill="#ccc" stroke="#ccc" stroke-width="0.3"/>
  </g>
</svg>
