<svg xmlns="http://www.w3.org/2000/svg" width="25" height="17.704" viewBox="0 0 25 17.704">
  <path id="Path_4118" data-name="Path 4118" d="M27.836,19.29a3.8,3.8,0,0,0-1.973,7.042l-2.074,4.232a2.878,2.878,0,0,0-2.514.541l-4.893-4.032a2.089,2.089,0,1,0-3.552.514L8.878,33.445A1.8,1.8,0,1,0,10.24,35.19a1.792,1.792,0,0,0-.349-1.063l3.95-5.857a2.088,2.088,0,0,0,1.764-.256L20.5,32.049a2.882,2.882,0,0,0-.329,1.339A2.915,2.915,0,1,0,24.886,31.1L27,26.793a3.8,3.8,0,1,0,.839-7.5Z" transform="translate(-6.635 -19.29)" fill="#ccc"/>
</svg>
