<svg xmlns="http://www.w3.org/2000/svg" width="19.79" height="18.385" viewBox="0 0 19.79 18.385">
  <g id="Group_115317" data-name="Group 115317" transform="translate(13444.2 7870.2)">
    <path id="Path_2017" data-name="Path 2017" d="M31.749,18H31v8.243h8.243v-.749A7.5,7.5,0,0,0,31.749,18Zm.749,6.744v-5.2a6.008,6.008,0,0,1,5.2,5.2Z" transform="translate(-13463.854 -7888)" fill="#ccc" stroke="#ccc" stroke-width="0.4"/>
    <path id="Path_2018" data-name="Path 2018" d="M25.494,36.987a7.5,7.5,0,0,0,7.494-7.494v-.749H26.243V22h-.749a7.494,7.494,0,1,0,0,14.987Zm-.749-13.442v6.7h6.7a6,6,0,1,1-6.7-6.7Z" transform="translate(-13462 -7889.002)" fill="#ccc" stroke="#ccc" stroke-width="0.4"/>
  </g>
</svg>
