<svg id="Icon_Edit" data-name="Icon/Edit" xmlns="http://www.w3.org/2000/svg" width="24" height="24" viewBox="0 0 24 24">
  <g id="noun_edit_1826622" transform="translate(3 3)">
    <g id="Group_453" data-name="Group 453">
      <path id="Path_2222" data-name="Path 2222" d="M177.936,56.249a2.743,2.743,0,0,0-1.952.809L165.036,68a.613.613,0,0,0-.157.27l-1.44,5.2a.614.614,0,0,0,.755.755l5.2-1.44a.614.614,0,0,0,.27-.157l10.947-10.947a2.761,2.761,0,0,0,0-3.9l-.72-.72h0A2.744,2.744,0,0,0,177.936,56.249ZM166.373,68.4l8.959-8.959,2.889,2.889-8.959,8.959Zm-.577,1.158L168.1,71.87l-3.193.885ZM180.19,59.73a1.524,1.524,0,0,1-.449,1.085l-.651.651L176.2,58.576l.651-.651a1.534,1.534,0,0,1,2.169,0l.72.72A1.524,1.524,0,0,1,180.19,59.73Z" transform="translate(-163.417 -56.249)" fill="#7e7e7e"/>
    </g>
  </g>
  <rect id="Rectangle_453" data-name="Rectangle 453" width="24" height="24" fill="none"/>
</svg>
