<svg id="Component_147_1" data-name="Component 147 – 1" xmlns="http://www.w3.org/2000/svg" width="18.497" height="18.349" viewBox="0 0 18.497 18.349">
  <defs>
    <style>
      .cls-1 {
        fill: #aaa;
      }

      .cls-2 {
        fill: none;
      }
    </style>
  </defs>
  <g id="Group_5427" data-name="Group 5427" transform="translate(0 9.93)">
    <path id="Path_3792" data-name="Path 3792" class="cls-1" d="M1297.608,1463.082c0-.709-.005-1.418,0-2.126a1.921,1.921,0,0,1,1.977-2.013q2.244-.025,4.489,0a1.925,1.925,0,0,1,1.941,2q.005,2.2,0,4.4a1.948,1.948,0,0,1-2.006,2.009q-2.2.005-4.4,0a1.94,1.94,0,0,1-2-1.992C1297.6,1464.6,1297.608,1463.839,1297.608,1463.082Zm4.2-3.219c-.667,0-1.335,0-2,0a1.689,1.689,0,0,0-.387.034,1.149,1.149,0,0,0-.888,1.2q0,2.036,0,4.073a1.522,1.522,0,0,0,.032.353,1.167,1.167,0,0,0,1.218.9q2.028,0,4.055,0a1.174,1.174,0,0,0,1.254-1.251q0-2.028,0-4.056a1.167,1.167,0,0,0-1.247-1.254C1303.168,1459.861,1302.49,1459.863,1301.811,1459.863Z" transform="translate(-1297.606 -1458.93)"/>
    <path id="Path_3793" data-name="Path 3793" class="cls-2" d="M1306.746,1464.831c.679,0,1.358,0,2.036,0a1.167,1.167,0,0,1,1.247,1.254q0,2.028,0,4.056a1.174,1.174,0,0,1-1.254,1.252q-2.028,0-4.056,0a1.167,1.167,0,0,1-1.218-.9,1.523,1.523,0,0,1-.032-.353q0-2.036,0-4.072a1.149,1.149,0,0,1,.888-1.2,1.688,1.688,0,0,1,.387-.034C1305.412,1464.829,1306.079,1464.831,1306.746,1464.831Z" transform="translate(-1302.542 -1463.898)"/>
  </g>
  <g id="Group_5428" data-name="Group 5428" transform="translate(10.084 9.93)">
    <path id="Path_3794" data-name="Path 3794" class="cls-1" d="M1361.431,1463.082c0-.709-.005-1.418,0-2.126a1.921,1.921,0,0,1,1.977-2.013q2.244-.025,4.49,0a1.924,1.924,0,0,1,1.941,2q.005,2.2,0,4.4a1.948,1.948,0,0,1-2.006,2.009q-2.2.005-4.4,0a1.94,1.94,0,0,1-2-1.992C1361.426,1464.6,1361.431,1463.839,1361.431,1463.082Zm4.2-3.219c-.668,0-1.335,0-2,0a1.689,1.689,0,0,0-.387.034,1.149,1.149,0,0,0-.888,1.2q0,2.036,0,4.073a1.516,1.516,0,0,0,.032.353,1.167,1.167,0,0,0,1.218.9q2.028,0,4.056,0a1.174,1.174,0,0,0,1.254-1.251q0-2.028,0-4.056a1.167,1.167,0,0,0-1.247-1.254C1366.991,1459.861,1366.313,1459.863,1365.634,1459.863Z" transform="translate(-1361.429 -1458.93)"/>
    <path id="Path_3795" data-name="Path 3795" class="cls-2" d="M1370.57,1464.831c.679,0,1.358,0,2.036,0a1.167,1.167,0,0,1,1.247,1.254q0,2.028,0,4.056a1.174,1.174,0,0,1-1.254,1.252q-2.028,0-4.056,0a1.167,1.167,0,0,1-1.218-.9,1.524,1.524,0,0,1-.032-.353q0-2.036,0-4.072a1.149,1.149,0,0,1,.888-1.2,1.689,1.689,0,0,1,.387-.034C1369.235,1464.829,1369.9,1464.831,1370.57,1464.831Z" transform="translate(-1366.365 -1463.898)"/>
  </g>
  <g id="Group_5429" data-name="Group 5429">
    <path id="Path_3796" data-name="Path 3796" class="cls-1" d="M1297.608,1400.237c0-.709-.005-1.418,0-2.127a1.921,1.921,0,0,1,1.977-2.013q2.244-.025,4.489,0a1.925,1.925,0,0,1,1.941,2q.005,2.2,0,4.4a1.948,1.948,0,0,1-2.006,2.009q-2.2.005-4.4,0a1.94,1.94,0,0,1-2-1.992C1297.6,1401.752,1297.608,1400.994,1297.608,1400.237Zm4.2-3.22c-.667,0-1.335,0-2,0a1.7,1.7,0,0,0-.387.034,1.149,1.149,0,0,0-.888,1.2q0,2.036,0,4.073a1.521,1.521,0,0,0,.032.353,1.167,1.167,0,0,0,1.218.9q2.028,0,4.055,0a1.173,1.173,0,0,0,1.254-1.251q0-2.028,0-4.056a1.167,1.167,0,0,0-1.247-1.254C1303.168,1397.016,1302.49,1397.017,1301.811,1397.017Z" transform="translate(-1297.606 -1396.085)"/>
    <path id="Path_3797" data-name="Path 3797" class="cls-2" d="M1306.746,1401.986c.679,0,1.358,0,2.036,0a1.167,1.167,0,0,1,1.247,1.254q0,2.028,0,4.056a1.173,1.173,0,0,1-1.254,1.252q-2.028,0-4.056,0a1.167,1.167,0,0,1-1.218-.9,1.522,1.522,0,0,1-.032-.353q0-2.036,0-4.073a1.148,1.148,0,0,1,.888-1.2,1.681,1.681,0,0,1,.387-.034C1305.412,1401.984,1306.079,1401.986,1306.746,1401.986Z" transform="translate(-1302.542 -1401.053)"/>
  </g>
  <path id="Path_3799" data-name="Path 3799" class="cls-1" d="M1370.714,1407.035v.087q0,1.025,0,2.051a.607.607,0,1,1-1.215,0c0-.686,0-1.371,0-2.057v-.085h-2.138a.607.607,0,1,1,0-1.214c.686,0,1.371,0,2.057,0h.085v-.08q0-1.032,0-2.064a.607.607,0,1,1,1.214,0c0,.686,0,1.371,0,2.057v.085h2.138a.607.607,0,1,1,0,1.214c-.686,0-1.371,0-2.057,0Z" transform="translate(-1355.816 -1401.957)"/>
</svg>
