<svg xmlns="http://www.w3.org/2000/svg" width="51.027" height="49.073" viewBox="0 0 51.027 49.073">
  <defs>
    <style>
      .cls-1 {
        fill: #454545;
        stroke: #454545;
        stroke-width: 0.4px;
      }
    </style>
  </defs>
  <g id="noun_case_study_511222" data-name="noun_case study_511222" transform="translate(-16.8 -12.8)">
    <g id="Group_114708" data-name="Group 114708" transform="translate(17 13)">
      <path id="Path_100911" data-name="Path 100911" class="cls-1" d="M35.179,62h-8.6a.987.987,0,1,0,0,1.973h8.6a.987.987,0,1,0,0-1.973Z" transform="translate(-16.649 -29.77)"/>
      <path id="Path_100912" data-name="Path 100912" class="cls-1" d="M62.336,49.136,54.52,41.368a12.439,12.439,0,0,0-1.733-17.662V15.631A2.647,2.647,0,0,0,50.14,13H14.647A2.647,2.647,0,0,0,12,15.631V59.042a2.647,2.647,0,0,0,2.647,2.631H50.14a2.646,2.646,0,0,0,2.647-2.631V43.074c.118-.1.226-.2.341-.3l7.8,7.757a1,1,0,0,0,1.4,0A.982.982,0,0,0,62.336,49.136ZM42.441,38.652H35.686a10.384,10.384,0,0,1-1.4-4.6h8.153a.987.987,0,1,0,0-1.973H34.346a10.421,10.421,0,0,1,1.748-4.6h6.347a.987.987,0,1,0,0-1.973h-4.58A10.591,10.591,0,0,1,50.8,24.7V42.082a10.6,10.6,0,0,1-13.629-1.457h5.269a.987.987,0,1,0,0-1.973ZM55.431,33.39a10.429,10.429,0,0,1-2.644,6.935V26.456A10.426,10.426,0,0,1,55.431,33.39ZM50.8,59.042a.669.669,0,0,1-.662.658H14.647a.669.669,0,0,1-.662-.658V15.631a.669.669,0,0,1,.662-.658H50.139a.669.669,0,0,1,.662.658v6.754A12.625,12.625,0,0,0,35.1,25.5H21.927a.987.987,0,1,0,0,1.973H33.768a12.367,12.367,0,0,0-1.429,4.6H21.927a.987.987,0,1,0,0,1.973H32.3a12.347,12.347,0,0,0,1.147,4.6H21.927a.987.987,0,1,0,0,1.973H34.6A12.611,12.611,0,0,0,50.8,44.4Z" transform="translate(-12 -13)"/>
    </g>
  </g>
</svg>
