<svg xmlns="http://www.w3.org/2000/svg" width="53.422" height="53.335" viewBox="0 0 53.422 53.335"><defs><style>.a{fill:#454545;stroke:#454545;}</style></defs><g transform="translate(0.5 0.486)"><g transform="translate(0 0.014)"><g transform="translate(14.948 19.317)"><path class="a" d="M149.546,199.778a9.232,9.232,0,0,1-2.47-18.086l.545,1.908a7.248,7.248,0,0,0,1.925,14.195,7.15,7.15,0,0,0,6.844-5.272l1.913.528A9.139,9.139,0,0,1,149.546,199.778Z" transform="translate(-140.454 -181.692)"/></g><path class="a" d="M52.076,6.054,46.3.273a.9.9,0,0,0-1.265,0l-8.005,8A23.641,23.641,0,0,0,23.907,4.315,24,24,0,1,0,44.028,15.379l8.048-8.061A.894.894,0,0,0,52.076,6.054ZM46.024,28.332A22.118,22.118,0,1,1,23.907,6.1,21.858,21.858,0,0,1,35.738,9.562L31.3,13.991a15.945,15.945,0,0,0-7.4-1.823A16.164,16.164,0,1,0,39.96,28.332a16.253,16.253,0,0,0-1.683-7.195l4.454-4.459A22.145,22.145,0,0,1,46.024,28.332Zm-22.1.929,6.812-.845a.9.9,0,0,0,.523-.256l5.669-5.676A14.386,14.386,0,0,1,23.907,42.706a14.375,14.375,0,0,1,0-28.749,14.155,14.155,0,0,1,6.061,1.366L24.2,21.086a.894.894,0,0,0-.252.5l-1.012,6.654C22.777,28.631,23,29.385,23.928,29.261Zm6.286-2.583-5.334.662.79-5.2L41.485,6.352,46,10.875ZM47.262,9.609,42.751,5.087,45.67,2.171l4.509,4.516Z" transform="translate(0 -0.014)"/></g></g></svg>