<svg xmlns="http://www.w3.org/2000/svg" width="24" height="24" viewBox="0 0 24 24"><defs><style>.a,.b{fill:#ff7627;}.a{stroke:#707070;opacity:0;}.c{stroke:none;}.d{fill:none;}</style></defs><g class="a"><rect class="c" width="24" height="24"/><rect class="d" x="0.5" y="0.5" width="23" height="23"/></g><g transform="translate(1.62 1.809)"><g transform="translate(0 2.878)"><g transform="translate(2.158 0.047)"><path class="b" d="M101.24,107.178H96.179c-1.748,0-3.5.029-5.245,0h-.072c-.111-.01-.087,0,.058.014,0,0-.135-.029-.125-.024a.923.923,0,0,0-.154-.043c-.116-.01.193.111.024.01-.034-.019-.072-.039-.111-.063-.2-.12-.014.01-.01,0s-.231-.2-.222-.222.116.193.024.019c-.024-.048-.053-.091-.077-.135-.091-.164.034.053.019.058a1.37,1.37,0,0,1-.058-.183.965.965,0,0,0-.024-.125c.082.217.014.087.014-.01v-9.67c0-1.618.039-3.246,0-4.864v-.077l-.963.963H102.9l-.963-.963v14.679c0,.222.058-.207,0,0a1.272,1.272,0,0,1-.067.246c.014-.039.034-.077.048-.111-.019.039-.039.077-.058.111a1,1,0,0,1-.1.159c.024-.034.048-.063.072-.1-.029.034-.053.063-.082.091s-.058.058-.091.087c-.077.067-.063.053.048-.034a1.141,1.141,0,0,1-.159.1l-.111.058c.135-.053.149-.063.053-.029-.063.014-.125.034-.188.048-.106.019-.087.014.063-.01a1.09,1.09,0,0,1-.13,0,.963.963,0,0,0,0,1.926,2.668,2.668,0,0,0,2.63-2.629c0-.173,0-.352,0-.525V91.863a.979.979,0,0,0-.963-.963H89.263a.979.979,0,0,0-.963.963v14.578a2.647,2.647,0,0,0,.934,2.037,2.794,2.794,0,0,0,1.816.626H101.24a.963.963,0,1,0,0-1.926Z" transform="translate(-88.3 -90.9)"/></g><g transform="translate(0 0)"><path class="b" d="M44.446,91.857H60.2c.727,0,1.459.019,2.186,0h.029a.963.963,0,0,0,0-1.926H46.661c-.727,0-1.459-.019-2.186,0h-.029a.963.963,0,0,0,0,1.926Z" transform="translate(-43.482 -89.922)"/></g></g><g transform="translate(5.628)"><g transform="translate(0 0)"><path class="b" d="M162.279,34v-1.7c0-.039.024-.13-.01,0-.038.159.014-.048.019-.063.034-.159-.092.13,0,0a.945.945,0,0,1,.067-.106c.019.01-.14.14-.053.072a.492.492,0,0,0,.087-.087c.067-.087-.063.072-.072.053a.334.334,0,0,1,.082-.048c.169-.092.014.019-.029,0,.014,0,.3-.082.125-.039-.125.034-.034,0,.01.01h4.267c.058,0,.116,0,.169,0a.362.362,0,0,0,.072,0c-.043.043-.2-.043-.063,0a.642.642,0,0,0,.092.024c.12.019-.149-.1-.053-.024a.337.337,0,0,0,.082.043c.024.014.125.053,0,0s.01.019.043.048.048.1,0,0c-.063-.135.01.029.029.058.048.072-.01.063,0,0-.029-.077-.034-.077,0,0,0,.019.01.043.014.063.053.173,0-.188,0,.01v1.7a.963.963,0,1,0,1.926,0V32.941a3.62,3.62,0,0,0-.169-1.454,2.179,2.179,0,0,0-1.989-1.329c-.231,0-.462,0-.694,0h-2.745a3.069,3.069,0,0,0-2.572.7,2.212,2.212,0,0,0-.563,1.45c0,.149,0,.3,0,.453V34a.961.961,0,1,0,1.922,0Z" transform="translate(-160.356 -30.156)"/></g></g><g transform="translate(6.854 7.375)"><g transform="translate(0 0)"><path class="b" d="M185.8,184.246v7.378a.963.963,0,0,0,1.926,0v-7.378a.963.963,0,1,0-1.926,0Z" transform="translate(-185.8 -183.282)"/></g><g transform="translate(4.257 0)"><path class="b" d="M274.2,184.246v7.378a.963.963,0,0,0,1.926,0v-7.378a.963.963,0,1,0-1.926,0Z" transform="translate(-274.2 -183.282)"/></g></g></g></svg>