<svg xmlns="http://www.w3.org/2000/svg" width="56" height="56" viewBox="0 0 56 56">
  <defs>
    <style>
      .cls-1 {
        fill: #fff;
        opacity: 0.7;
      }

      .cls-2 {
        fill: #ff7627;
      }
    </style>
  </defs>
  <g id="Group_114583" data-name="Group 114583" transform="translate(-1700 -421)">
    <rect id="Rectangle_34426" data-name="Rectangle 34426" class="cls-1" width="56" height="56" rx="28" transform="translate(1700 421)"/>
    <g id="Group_114581" data-name="Group 114581" transform="translate(228.594 -295.731)">
      <path id="Path_3761" data-name="Path 3761" class="cls-2" d="M1506.838,728.946q0,2.225,0,4.45a.825.825,0,0,0,0,.083c.031.3-.133.714.208.858.362.153.552-.254.772-.469.7-.679,1.375-1.379,2.068-2.063a1.234,1.234,0,0,1,1.45-.3,1.407,1.407,0,0,1,.841,1.353,1.393,1.393,0,0,1-.479.912q-2.455,2.443-4.906,4.889c-.138.137-.273.278-.414.412a1.173,1.173,0,0,1-1.715-.009q-2.7-2.666-5.4-5.338a1.236,1.236,0,0,1-.368-1.365,1.366,1.366,0,0,1,1.185-.959,1.261,1.261,0,0,1,1.069.43q1.12,1.122,2.24,2.244c.161.16.345.415.575.261a.8.8,0,0,0,.2-.586c.012-3.217.007-6.434.01-9.651a1.333,1.333,0,0,1,2.23-1.006,1.3,1.3,0,0,1,.436,1.014Q1506.835,726.526,1506.838,728.946Z" transform="translate(-6.226 11)"/>
      <path id="Path_3762" data-name="Path 3762" class="cls-2" d="M1499.086,865.576q4.344,0,8.689,0a1.83,1.83,0,0,1,1.849,1.122,1.692,1.692,0,0,1-1.646,2.221c-.11.007-.222,0-.333,0h-17.229a1.846,1.846,0,0,1-1.91-1.14,1.7,1.7,0,0,1,1.819-2.2c1.824-.009,3.648,0,5.472,0Z" transform="translate(0 -112.835)"/>
    </g>
  </g>
</svg>
