<svg xmlns="http://www.w3.org/2000/svg" width="11.448" height="15" viewBox="0 0 11.448 15"><defs><style>.a{fill:#aaa;}</style></defs><g transform="translate(-1298.4 -559)"><path class="a" d="M1504.6,726.963q0,1.515,0,3.03a.517.517,0,0,0,0,.057c.022.2-.1.486.15.585.261.1.4-.173.556-.319.5-.462.99-.939,1.489-1.4a.925.925,0,0,1,1.045-.2.955.955,0,0,1,.606.921.933.933,0,0,1-.345.621q-1.768,1.663-3.534,3.329c-.1.094-.2.189-.3.28a.878.878,0,0,1-1.235-.006q-1.947-1.815-3.89-3.635a.812.812,0,0,1-.265-.93.974.974,0,0,1,.854-.653.935.935,0,0,1,.769.293q.807.764,1.614,1.528c.116.109.249.283.414.177a.526.526,0,0,0,.142-.4c.009-2.191.005-4.381.007-6.572a.863.863,0,0,1,.584-.849.945.945,0,0,1,1.022.164.861.861,0,0,1,.314.69Q1504.593,725.315,1504.6,726.963Z" transform="translate(-199.511 -163.731)"/><path class="a" d="M1494.141,865.575h4.665a.981.981,0,0,1,.993.615.924.924,0,0,1-.884,1.217c-.059,0-.119,0-.178,0h-9.251a.99.99,0,0,1-1.026-.625.929.929,0,0,1,.977-1.208c.979,0,1.959,0,2.938,0Z" transform="translate(-190.006 -293.41)"/></g></svg>