<svg xmlns="http://www.w3.org/2000/svg" width="22.264" height="23.347" viewBox="0 0 22.264 23.347">
  <defs>
    <style>
      .cls-1 {
        fill: #ff7627;
      }
    </style>
  </defs>
  <g id="Group_114582" data-name="Group 114582" transform="translate(-2629.755 -2253)">
    <path id="Path_3761" data-name="Path 3761" class="cls-1" d="M1507.193,729.221q0,2.324,0,4.647a.862.862,0,0,0,0,.087c.032.314-.139.745.217.9.378.16.576-.266.806-.489.729-.709,1.436-1.44,2.159-2.154a1.289,1.289,0,0,1,1.515-.313,1.469,1.469,0,0,1,.879,1.413,1.455,1.455,0,0,1-.5.952q-2.563,2.551-5.123,5.105c-.144.143-.285.29-.433.43a1.225,1.225,0,0,1-1.791-.01q-2.823-2.784-5.639-5.575a1.29,1.29,0,0,1-.384-1.426,1.427,1.427,0,0,1,1.237-1,1.316,1.316,0,0,1,1.116.449q1.17,1.171,2.339,2.343c.168.167.361.434.6.272a.835.835,0,0,0,.206-.612c.013-3.36.007-6.719.01-10.079a1.392,1.392,0,0,1,2.329-1.051,1.353,1.353,0,0,1,.455,1.059Q1507.19,726.694,1507.193,729.221Z" transform="translate(1135.309 1530.269)"/>
    <path id="Path_3762" data-name="Path 3762" class="cls-1" d="M1499.559,865.576q4.537,0,9.073,0a1.911,1.911,0,0,1,1.93,1.172,1.766,1.766,0,0,1-1.719,2.319c-.115.007-.232,0-.347,0H1490.5a1.928,1.928,0,0,1-1.995-1.19,1.78,1.78,0,0,1,1.9-2.3c1.9-.009,3.81,0,5.714,0Z" transform="translate(1141.35 1407.275)"/>
  </g>
</svg>
