<svg xmlns="http://www.w3.org/2000/svg" width="56" height="56" viewBox="0 0 56 56">
  <defs>
    <style>
      .cls-1 {
        fill: #fff;
        opacity: 0.7;
      }

      .cls-2 {
        fill: #ff7627;
      }
    </style>
  </defs>
  <g id="Group_114584" data-name="Group 114584" transform="translate(-1769 -421)">
    <rect id="Rectangle_34427" data-name="Rectangle 34427" class="cls-1" width="56" height="56" rx="28" transform="translate(1769 421)"/>
    <g id="Group_114582" data-name="Group 114582" transform="translate(294.594 -295.731)">
      <path id="Path_3762" data-name="Path 3762" class="cls-2" d="M1499.086,865.576q4.344,0,8.689,0a1.83,1.83,0,0,1,1.849,1.122,1.692,1.692,0,0,1-1.646,2.221c-.11.007-.222,0-.333,0h-17.229a1.846,1.846,0,0,1-1.91-1.14,1.7,1.7,0,0,1,1.819-2.2c1.824-.009,3.648,0,5.472,0Z" transform="translate(0 -112.835)"/>
      <g id="Group_5516" data-name="Group 5516" transform="translate(1060.655 479.793)">
        <path id="Path_3821" data-name="Path 3821" class="cls-2" d="M413.581,250.916a3.058,3.058,0,0,1-.8,2.087c-.064.072-.132.14-.2.208q-4.784,4.786-9.567,9.573a1.405,1.405,0,0,1-.568.354c-1.447.476-2.891.961-4.337,1.439a1,1,0,0,1-1.344-.766,1.153,1.153,0,0,1,.045-.547q.737-2.252,1.5-4.5a.879.879,0,0,1,.212-.322q4.865-4.873,9.74-9.737a2.955,2.955,0,0,1,3.142-.766,3.021,3.021,0,0,1,2.134,2.416,2.155,2.155,0,0,1,.04.285C413.586,250.735,413.581,250.826,413.581,250.916Zm-3.7,2.652-2.064-2.061-7.558,7.534,2.087,2.087Zm1.213-1.173c.131-.136.258-.272.389-.4a1.517,1.517,0,0,0,.459-1.008,1.488,1.488,0,0,0-1.649-1.546,2.185,2.185,0,0,0-1.3.861Zm-11.674,8.2-.684,2.05,2.049-.684Z" transform="translate(39.951 5.269)"/>
      </g>
    </g>
  </g>
</svg>
