<svg xmlns="http://www.w3.org/2000/svg" width="38" height="38" viewBox="0 0 38 38">
  <defs>
    <style>
      .cls-1 {
        fill: none;
      }

      .cls-2 {
        fill: #ff7627;
      }

      .cls-3, .cls-4 {
        fill: #fff;
      }

      .cls-4 {
        stroke: #fff;
        stroke-width: 0.3px;
      }
    </style>
  </defs>
  <g id="Group_114798" data-name="Group 114798" transform="translate(-490 -546)">
    <rect id="Rectangle_34476" data-name="Rectangle 34476" class="cls-1" width="38" height="38" transform="translate(490 546)"/>
    <circle id="Ellipse_59" data-name="Ellipse 59" class="cls-2" cx="18" cy="18" r="18" transform="translate(491 547)"/>
    <g id="Group_5515" data-name="Group 5515" transform="translate(-986.104 -175.852)">
      <path id="Path_3762" data-name="Path 3762" class="cls-3" d="M1495.521,865.575q2.894,0,5.789,0a1.219,1.219,0,0,1,1.231.747,1.127,1.127,0,0,1-1.1,1.48c-.074,0-.148,0-.222,0h-11.479a1.23,1.23,0,0,1-1.272-.759,1.136,1.136,0,0,1,1.212-1.469c1.215-.006,2.43,0,3.646,0Z" transform="translate(0 -119.476)"/>
      <g id="Group_5516" data-name="Group 5516" transform="translate(1490.369 732.841)">
        <path id="Path_3821" data-name="Path 3821" class="cls-4" d="M407.963,249.869a2.037,2.037,0,0,1-.532,1.391c-.043.048-.088.093-.134.139q-3.187,3.189-6.374,6.378a.936.936,0,0,1-.378.236c-.964.317-1.926.64-2.89.958a.669.669,0,0,1-.9-.51.768.768,0,0,1,.03-.364q.491-1.5,1-3a.586.586,0,0,1,.141-.214q3.241-3.247,6.489-6.487a1.969,1.969,0,0,1,2.093-.51,2.013,2.013,0,0,1,1.421,1.61,1.437,1.437,0,0,1,.026.19C407.967,249.748,407.963,249.809,407.963,249.869Zm-2.466,1.767-1.375-1.373-5.035,5.019,1.39,1.39Zm.808-.782c.087-.091.172-.181.259-.269a1.011,1.011,0,0,0,.306-.671.991.991,0,0,0-1.1-1.03,1.456,1.456,0,0,0-.863.574Zm-7.778,5.464-.455,1.366,1.365-.456Z" transform="translate(-396.751 -247.779)"/>
      </g>
    </g>
  </g>
</svg>
