<svg xmlns="http://www.w3.org/2000/svg" width="75" height="50.398" viewBox="0 0 75 50.398"><defs><style>.a{fill:#454545;}</style></defs><g transform="translate(0)"><path class="a" d="M155.413,473.8c-.55-.1-1.038-.184-1.525-.279a17.57,17.57,0,0,1-14.006-14.974,27.608,27.608,0,0,1,.606-11.387A17.758,17.758,0,0,1,157.4,434.634c5.117-.045,10.238-.1,15.353,0a17.276,17.276,0,0,1,17.067,15.949c.3,3.469.5,7.007-.568,10.409-2.244,7.13-7.126,11.332-14.455,12.659a26.353,26.353,0,0,1-3.978.227,1.541,1.541,0,0,0-1.2.514q-4.292,4.66-8.61,9.294a3.142,3.142,0,0,1-5.591-2.186q0-3.432,0-6.865Zm3.113,7.675.236.159a5.127,5.127,0,0,1,.386-.541q4.563-4.917,9.127-9.833a1.362,1.362,0,0,1,1.135-.5c.893.029,1.788.014,2.682.007a14.632,14.632,0,0,0,13.984-9.943c1.127-3.341.957-6.822.586-10.2-.836-7.625-6.857-12.828-14.52-12.872-4.721-.026-9.443-.013-14.165.01a22.42,22.42,0,0,0-2.92.208,14.529,14.529,0,0,0-11.97,11.881,58.3,58.3,0,0,0-.269,6.469,12.621,12.621,0,0,0,1.2,5.689c2.729,5.787,7.376,8.629,13.722,8.75.645.012.8.19.8.812-.029,2.891-.011,5.782-.009,8.673Z" transform="translate(-139.576 -434.481)"/><path class="a" d="M191.635,473.677l2.517-1.972,4.535,4.868c1.5,1.61,3,3.22,4.633,4.98.021-.389.043-.6.044-.806q0-4.65,0-9.3c0-.831,0-.831.872-.836A14.518,14.518,0,0,0,218.5,460.06a14.771,14.771,0,0,0,.547-3.808,43.888,43.888,0,0,0-.253-6.594,14.371,14.371,0,0,0-12.924-11.948c-3.36-.194-6.736-.1-10.106-.11a1.633,1.633,0,0,1-1.195-.5c-.981-.893-2.016-1.724-3.052-2.6a4.237,4.237,0,0,1,.428-.04c4.036,0,8.072.021,12.108,0a17.843,17.843,0,0,1,16.954,11.42,16.718,16.718,0,0,1,1.177,6.274,57.216,57.216,0,0,1-.257,6.722,17.626,17.626,0,0,1-14.11,14.514c-1.341.231-1.34.231-1.34,1.587q0,3.213,0,6.428a3.132,3.132,0,0,1-5.543,2.172q-4.294-4.615-8.579-9.238C192.134,474.1,191.876,473.9,191.635,473.677Z" transform="translate(-147.189 -434.465)"/><path class="a" d="M202.611,458.078v-1.533h.6l10.665,0c.9,0,1.313.265,1.292.813-.02.53-.382.749-1.283.75q-5.364,0-10.728,0C203,458.111,202.834,458.092,202.611,458.078Z" transform="translate(-148.815 -437.701)"/><path class="a" d="M202.14,450.742l-.312-1.485c.2-.02.352-.05.508-.05q3.423,0,6.845,0a2.461,2.461,0,0,1,.5.026.717.717,0,0,1,.656.775.7.7,0,0,1-.717.716c-.476.022-.953.015-1.43.016Z" transform="translate(-148.7 -436.625)"/><path class="a" d="M201.886,465.48l.3-1.485c.182-.015.343-.042.5-.042q3.307,0,6.612,0c.7,0,1.068.281,1.051.775-.015.47-.375.747-1.033.748C206.871,465.485,204.419,465.48,201.886,465.48Z" transform="translate(-148.708 -438.786)"/><path class="a" d="M167.3,450.1a6.219,6.219,0,0,1,6.868-1.327c4.207,1.7,5.165,6.962,1.895,10.333-2.171,2.238-4.4,4.417-6.606,6.624-.7.7-1.4,1.413-2.116,2.139-.167-.149-.3-.252-.411-.367q-4.1-4.1-8.2-8.2a6.338,6.338,0,0,1-1.971-6.123,6.25,6.25,0,0,1,10.227-3.339C167.08,449.916,167.174,449.993,167.3,450.1Z" transform="translate(-142.071 -436.487)"/></g></svg>