<svg xmlns="http://www.w3.org/2000/svg" width="22.432" height="22.432" viewBox="0 0 22.432 22.432">
  <defs>
    <style>
      .cls-1 {
        fill: none;
      }

      .cls-2, .cls-4 {
        fill: #d75f5e;
      }

      .cls-3, .cls-4 {
        stroke: none;
      }
    </style>
  </defs>
  <g id="Group_114952" data-name="Group 114952" transform="translate(-70 -60.664)">
    <g id="Group_114951" data-name="Group 114951">
      <g id="Path_100939" data-name="Path 100939" class="cls-1" transform="translate(70 60.664)">
        <path class="cls-3" d="M11.216,0A11.216,11.216,0,1,1,0,11.216,11.216,11.216,0,0,1,11.216,0Z"/>
        <path class="cls-4" d="M 11.21594333648682 1.500003814697266 C 5.858552932739258 1.500003814697266 1.500003814697266 5.858552932739258 1.500003814697266 11.21594333648682 C 1.500003814697266 16.57333374023438 5.858552932739258 20.93188285827637 11.21594333648682 20.93188285827637 C 16.57333374023438 20.93188285827637 20.93188285827637 16.57333374023438 20.93188285827637 11.21594333648682 C 20.93188285827637 5.858552932739258 16.57333374023438 1.500003814697266 11.21594333648682 1.500003814697266 M 11.21594333648682 3.814697265625e-06 C 17.41033363342285 3.814697265625e-06 22.43188285827637 5.021553039550781 22.43188285827637 11.21594333648682 C 22.43188285827637 17.41033363342285 17.41033363342285 22.43188285827637 11.21594333648682 22.43188285827637 C 5.021553039550781 22.43188285827637 3.814697265625e-06 17.41033363342285 3.814697265625e-06 11.21594333648682 C 3.814697265625e-06 5.021553039550781 5.021553039550781 3.814697265625e-06 11.21594333648682 3.814697265625e-06 Z"/>
      </g>
    </g>
    <path id="Path_2064" data-name="Path 2064" class="cls-2" d="M1.635,0A1.635,1.635,0,0,1,3.269,1.635L2.452,7.355a.817.817,0,0,1-.817.817h0a.817.817,0,0,1-.817-.817L0,1.635A1.635,1.635,0,0,1,1.635,0Z" transform="translate(79.582 65.861)"/>
    <rect id="Rectangle_1263" data-name="Rectangle 1263" class="cls-2" width="3.269" height="3.269" rx="1.635" transform="translate(79.582 75.668)"/>
  </g>
</svg>
