<svg xmlns="http://www.w3.org/2000/svg" width="45.172" height="45.172" viewBox="0 0 45.172 45.172"><defs><style>.a,.c{fill:none;}.a,.d{stroke:#aaa;}.a{stroke-width:2px;}.b{fill:#f5f5f5;}.d{fill:#aaa;stroke-width:0.4px;}.e{stroke:none;}</style></defs><g class="a"><circle class="e" cx="22.586" cy="22.586" r="22.586"/><circle class="c" cx="22.586" cy="22.586" r="21.586"/></g><path class="b" d="M943.044,794.144c-.063-.059-.112-.1-.158-.147q-3.967-3.859-7.935-7.717a4.23,4.23,0,0,1,1.985-7.246,4.348,4.348,0,0,1,4.194,1.163c.608.588,1.172,1.218,1.755,1.831.049.051.089.111.145.182.315-.335.6-.643.889-.941a16.856,16.856,0,0,1,1.353-1.344,4.266,4.266,0,0,1,4.344-.748,4.1,4.1,0,0,1,2.81,3.286,4.054,4.054,0,0,1-1.033,3.553c-.076.087-.158.169-.241.249l-7.965,7.748C943.145,794.055,943.1,794.092,943.044,794.144Z" transform="translate(-919.961 -765.17)"/><g transform="translate(10.336 10.93)"><rect class="c" width="24" height="24"/><rect class="c" width="22.74" height="20.05" transform="translate(0.75 2)"/><g transform="translate(0.75 2)"><path class="c" d="M943.331,795.05c-.065-.062-.115-.108-.163-.156q-4.087-4.088-8.176-8.175a4.529,4.529,0,0,1,2.045-7.676,4.4,4.4,0,0,1,4.322,1.232c.627.623,1.208,1.291,1.809,1.939.05.054.091.117.15.193.325-.355.615-.682.916-1a17.571,17.571,0,0,1,1.394-1.423A4.517,4.517,0,0,1,953,782.677a4.376,4.376,0,0,1-1.065,3.764c-.078.092-.163.179-.248.264l-8.207,8.207C943.435,794.955,943.39,794.994,943.331,795.05Z" transform="translate(-931.966 -777.283)"/><path class="d" d="M933.7,787.795c-.065-.062-.12-.112-.173-.165q-4.649-4.648-9.3-9.3a6.237,6.237,0,0,1-1.85-3.787,6.148,6.148,0,0,1,11.2-4.1c.037.054.077.106.127.174.15-.2.278-.394.428-.57a5.918,5.918,0,0,1,6.251-2.1,5.822,5.822,0,0,1,4.546,4.741,5.761,5.761,0,0,1-1.593,5.464c-3.165,3.215-6.372,6.389-9.562,9.579C933.752,787.755,933.733,787.766,933.7,787.795Zm0-2.279c.059-.055.1-.095.146-.137l8.207-8.207c.085-.085.17-.172.248-.264a4.376,4.376,0,0,0,1.065-3.764A4.517,4.517,0,0,0,936,770.454a17.553,17.553,0,0,0-1.394,1.423c-.3.316-.59.642-.916,1-.058-.076-.1-.139-.15-.193-.6-.649-1.182-1.317-1.809-1.939a4.4,4.4,0,0,0-4.322-1.232,4.53,4.53,0,0,0-2.045,7.676q4.092,4.083,8.176,8.175C933.584,785.408,933.634,785.454,933.7,785.516Z" transform="translate(-922.334 -767.75)"/></g></g></svg>