<svg xmlns="http://www.w3.org/2000/svg" width="12.8" height="11.285" viewBox="0 0 12.8 11.285"><defs><style>.a{fill:#aaa;}</style></defs><g transform="translate(-1252 -560)"><path class="a" d="M66.841,779.035c-.036-.035-.067-.063-.1-.093q-2.618-2.617-5.236-5.234a3.512,3.512,0,0,1-1.042-2.132,3.461,3.461,0,0,1,6.3-2.307c.021.03.044.06.072.1.084-.113.157-.222.241-.321a3.332,3.332,0,0,1,3.519-1.181,3.277,3.277,0,0,1,2.559,2.669,3.243,3.243,0,0,1-.9,3.076c-1.782,1.81-3.587,3.6-5.383,5.393C66.873,779.012,66.862,779.019,66.841,779.035Zm0-1.283c.033-.031.059-.053.082-.077l4.621-4.621c.048-.048.1-.1.14-.149a2.464,2.464,0,0,0,.6-2.119,2.543,2.543,0,0,0-4.15-1.514,9.906,9.906,0,0,0-.785.8c-.169.178-.332.362-.516.562-.033-.043-.056-.078-.084-.109-.338-.365-.665-.741-1.018-1.092a2.476,2.476,0,0,0-2.433-.694,2.55,2.55,0,0,0-1.151,4.321q2.3,2.3,4.6,4.6C66.778,777.692,66.806,777.717,66.843,777.752Z" transform="translate(1191.556 -207.75)"/><path class="a" d="M77.343,788.081c-.038-.036-.067-.061-.094-.089q-2.368-2.325-4.737-4.65a2.6,2.6,0,1,1,3.689-3.665c.363.354.7.734,1.048,1.1.029.031.053.067.087.11.188-.2.356-.388.53-.567a10.092,10.092,0,0,1,.808-.81,2.528,2.528,0,0,1,2.593-.45,2.557,2.557,0,0,1,1.06,4.121c-.045.052-.094.1-.144.15L77.428,788C77.4,788.027,77.377,788.05,77.343,788.081Z" transform="translate(1181.056 -218.077)"/></g></svg>