<svg id="Component_63_9" data-name="Component 63 – 9" xmlns="http://www.w3.org/2000/svg" width="45.172" height="45.172" viewBox="0 0 45.172 45.172">
  <defs>
    <style>
      .cls-1 {
        fill: none;
      }

      .cls-2, .cls-4 {
        fill: #ff7627;
      }

      .cls-2 {
        stroke: #ff8223;
        stroke-width: 0.4px;
      }

      .cls-3, .cls-4 {
        stroke: none;
      }
    </style>
  </defs>
  <g id="Group_5060" data-name="Group 5060">
    <g id="Path_100936" data-name="Path 100936" class="cls-1">
      <path class="cls-3" d="M22.586,0A22.586,22.586,0,1,1,0,22.586,22.586,22.586,0,0,1,22.586,0Z"/>
      <path class="cls-4" d="M 22.5859375 1.999996185302734 C 19.80596733093262 1.999996185302734 17.11022758483887 2.54400634765625 14.57357788085938 3.616916656494141 C 12.12245559692383 4.653656005859375 9.920696258544922 6.138256072998047 8.029476165771484 8.029476165771484 C 6.138256072998047 9.920696258544922 4.653656005859375 12.12245559692383 3.616916656494141 14.57357788085938 C 2.54400634765625 17.11022758483887 1.999996185302734 19.80596733093262 1.999996185302734 22.5859375 C 1.999996185302734 25.36590766906738 2.54400634765625 28.06164741516113 3.616916656494141 30.59829711914062 C 4.653656005859375 33.04941558837891 6.138256072998047 35.25117874145508 8.029476165771484 37.14239883422852 C 9.920696258544922 39.03361892700195 12.12245559692383 40.51821899414062 14.57357788085938 41.55495834350586 C 17.11022758483887 42.62786865234375 19.80596733093262 43.17187881469727 22.5859375 43.17187881469727 C 25.36590766906738 43.17187881469727 28.06164741516113 42.62786865234375 30.59829711914062 41.55495834350586 C 33.04941558837891 40.51821899414062 35.25117874145508 39.03361892700195 37.14239883422852 37.14239883422852 C 39.03361892700195 35.25117874145508 40.51821899414062 33.04941558837891 41.55495834350586 30.59829711914062 C 42.62786865234375 28.06164741516113 43.17187881469727 25.36590766906738 43.17187881469727 22.5859375 C 43.17187881469727 19.80596733093262 42.62786865234375 17.11022758483887 41.55495834350586 14.57357788085938 C 40.51821899414062 12.12245559692383 39.03361892700195 9.920696258544922 37.14239883422852 8.029476165771484 C 35.25117874145508 6.138256072998047 33.04941558837891 4.653656005859375 30.59829711914062 3.616916656494141 C 28.06164741516113 2.54400634765625 25.36590766906738 1.999996185302734 22.5859375 1.999996185302734 M 22.5859375 -3.814697265625e-06 C 35.05980682373047 -3.814697265625e-06 45.17187881469727 10.11206817626953 45.17187881469727 22.5859375 C 45.17187881469727 35.05980682373047 35.05980682373047 45.17187881469727 22.5859375 45.17187881469727 C 10.11206817626953 45.17187881469727 -3.814697265625e-06 35.05980682373047 -3.814697265625e-06 22.5859375 C -3.814697265625e-06 10.11206817626953 10.11206817626953 -3.814697265625e-06 22.5859375 -3.814697265625e-06 Z"/>
    </g>
  </g>
  <path id="Union_35" data-name="Union 35" class="cls-2" d="M7380.929-10102.583q-4.088-4.087-8.181-8.176a5.489,5.489,0,0,1-1.626-3.332,5.42,5.42,0,0,1,3.967-5.783,5.392,5.392,0,0,1,5.88,2.177c.033.048.069.094.115.154.129-.178.244-.348.375-.5a5.207,5.207,0,0,1,5.5-1.844,5.121,5.121,0,0,1,4,4.171,5.057,5.057,0,0,1-1.4,4.806c-2.784,2.829-5.6,5.62-8.41,8.427-.015.013-.03.025-.063.051C7381.025-10102.491,7380.977-10102.537,7380.929-10102.583Z" transform="translate(-7358 10134)"/>
</svg>
