<svg xmlns="http://www.w3.org/2000/svg" width="22.735" height="20.045" viewBox="0 0 22.735 20.045">
  <defs>
    <style>
      .cls-1 {
        fill: #ff7627;
      }
    </style>
  </defs>
  <g id="Group_114476" data-name="Group 114476" transform="translate(0)">
    <g id="Group_114477" data-name="Group 114477">
      <g id="Group_114503" data-name="Group 114503">
        <g id="Group_114506" data-name="Group 114506">
          <g id="Group_114505" data-name="Group 114505">
            <path id="Path_3789" data-name="Path 3789" class="cls-1" d="M943.6,795.494c-.067-.064-.118-.111-.167-.16q-4.2-4.2-8.4-8.4a4.654,4.654,0,0,1,2.1-7.887,4.52,4.52,0,0,1,4.44,1.266c.644.64,1.241,1.326,1.858,1.993.052.056.094.12.154.2.334-.365.632-.7.941-1.025a18.056,18.056,0,0,1,1.433-1.463,4.641,4.641,0,0,1,7.573,2.763,4.5,4.5,0,0,1-1.094,3.868c-.081.094-.168.184-.255.271l-8.433,8.433C943.706,795.4,943.66,795.437,943.6,795.494Z" transform="translate(-932.234 -777.505)"/>
            <path id="Path_3788" data-name="Path 3788" class="cls-1" d="M933.7,787.795c-.065-.062-.12-.112-.173-.165q-4.649-4.648-9.3-9.3a6.237,6.237,0,0,1-1.85-3.787,6.148,6.148,0,0,1,11.2-4.1c.037.054.077.106.127.174.15-.2.278-.394.428-.57a5.918,5.918,0,0,1,6.251-2.1,5.822,5.822,0,0,1,4.546,4.741,5.761,5.761,0,0,1-1.593,5.464c-3.165,3.215-6.372,6.389-9.562,9.579C933.752,787.755,933.733,787.766,933.7,787.795Zm0-2.279c.059-.055.1-.095.146-.137l8.207-8.207c.085-.085.17-.172.248-.264a4.376,4.376,0,0,0,1.065-3.764A4.517,4.517,0,0,0,936,770.454a17.553,17.553,0,0,0-1.394,1.423c-.3.316-.59.642-.916,1-.058-.076-.1-.139-.15-.193-.6-.649-1.182-1.317-1.809-1.939a4.4,4.4,0,0,0-4.322-1.232,4.53,4.53,0,0,0-2.045,7.676q4.092,4.083,8.176,8.175C933.584,785.408,933.634,785.454,933.7,785.516Z" transform="translate(-922.334 -767.75)"/>
          </g>
        </g>
      </g>
    </g>
  </g>
</svg>
