<svg xmlns="http://www.w3.org/2000/svg" width="20.505" height="17.795" viewBox="0 0 20.505 17.795"><defs><style>.a{fill:#454545;stroke:#454545;stroke-width:0.5px;}</style></defs><g transform="translate(0.253 0.262)"><g transform="translate(0)"><g transform="translate(0.001)"><path class="a" d="M700.431,363.186c-1.155,0-2.31,0-3.465,0-.19,0-.274.04-.334.223a2.317,2.317,0,0,1-4.331-.012c-.057-.177-.141-.212-.319-.211q-3.417.008-6.834,0c-.089,0-.179,0-.267-.006a.419.419,0,0,1-.408-.378.406.406,0,0,1,.343-.453,1.477,1.477,0,0,1,.312-.023q3.429,0,6.858,0c.18,0,.26-.039.318-.214a2.322,2.322,0,0,1,4.324-.01c.061.182.143.225.335.225q3.429-.01,6.858,0a1.423,1.423,0,0,1,.288.02.419.419,0,0,1-.067.833c-.371.012-.743.006-1.114.007Zm-7.323-.424a1.363,1.363,0,0,0,2.719.008,1.363,1.363,0,0,0-2.719-.008Z" transform="translate(-684.466 -347.609)"/><path class="a" d="M698.136,342.743a2.208,2.208,0,0,1,1.724-1.637,2.276,2.276,0,0,1,2.687,1.439c.055.168.133.206.3.2.355-.01.711,0,1.066,0s.556.165.552.437-.2.418-.541.419c-.379,0-.759,0-1.139,0a.19.19,0,0,0-.222.147,2.315,2.315,0,0,1-4.392-.033c-.01-.029-.019-.058-.036-.112h-13.07a1.284,1.284,0,0,1-.265-.012.421.421,0,0,1-.33-.445.434.434,0,0,1,.4-.394,2.162,2.162,0,0,1,.266-.005h13Zm2.251-.832a1.272,1.272,0,1,0-.007,2.538,1.336,1.336,0,0,0,1.362-1.269A1.319,1.319,0,0,0,700.387,341.911Z" transform="translate(-684.466 -334.536)"/><path class="a" d="M687.215,324.032c-.745,0-1.488,0-2.23,0a.482.482,0,0,1-.509-.3.428.428,0,0,1,.454-.55c.67,0,1.341,0,2.011,0h.278a2.2,2.2,0,0,1,.792-1.217,2.333,2.333,0,0,1,3.613,1.006c.057.173.131.216.313.215q5.986-.008,11.971,0c.327,0,.514.128.543.367a.432.432,0,0,1-.42.486c-.08.008-.162,0-.242,0q-5.913,0-11.826,0c-.2,0-.287.041-.351.233a2.23,2.23,0,0,1-2.158,1.463,2.257,2.257,0,0,1-2.168-1.489C687.264,324.172,687.242,324.108,687.215,324.032Zm2.214.832a1.271,1.271,0,1,0-1.327-1.307A1.3,1.3,0,0,0,689.43,324.863Z" transform="translate(-684.456 -321.472)"/></g></g></g></svg>