<svg xmlns="http://www.w3.org/2000/svg" width="17.424" height="17.283" viewBox="0 0 17.424 17.283"><defs><style>.a{fill:#454545;}</style></defs><g transform="translate(0 9.353)"><path class="a" d="M57.879,455.142c0-.668-.005-1.335,0-2a1.81,1.81,0,0,1,1.862-1.9q2.114-.023,4.229,0a1.813,1.813,0,0,1,1.828,1.879q0,2.072,0,4.143a1.835,1.835,0,0,1-1.89,1.893q-2.072,0-4.143,0a1.827,1.827,0,0,1-1.886-1.877C57.873,456.569,57.879,455.856,57.879,455.142Zm3.959-3.033c-.629,0-1.257,0-1.886,0a1.582,1.582,0,0,0-.364.032,1.082,1.082,0,0,0-.837,1.133q0,1.918,0,3.836a1.435,1.435,0,0,0,.031.333,1.1,1.1,0,0,0,1.147.845q1.91,0,3.82,0a1.105,1.105,0,0,0,1.181-1.179q0-1.91,0-3.82a1.1,1.1,0,0,0-1.175-1.181C63.116,452.108,62.477,452.11,61.837,452.11Z" transform="translate(-57.877 -451.231)"/></g><g transform="translate(9.498 9.353)"><path class="a" d="M121.7,455.142c0-.668-.005-1.335,0-2a1.81,1.81,0,0,1,1.862-1.9q2.114-.023,4.229,0a1.813,1.813,0,0,1,1.828,1.879q0,2.072,0,4.143a1.835,1.835,0,0,1-1.89,1.893q-2.072,0-4.143,0a1.827,1.827,0,0,1-1.886-1.877C121.7,456.569,121.7,455.856,121.7,455.142Zm3.959-3.033c-.629,0-1.257,0-1.886,0a1.58,1.58,0,0,0-.364.032,1.082,1.082,0,0,0-.837,1.133q0,1.918,0,3.836a1.434,1.434,0,0,0,.031.333,1.1,1.1,0,0,0,1.147.845q1.91,0,3.82,0a1.105,1.105,0,0,0,1.181-1.179q0-1.91,0-3.82a1.1,1.1,0,0,0-1.175-1.181C126.939,452.108,126.3,452.11,125.66,452.11Z" transform="translate(-121.7 -451.231)"/></g><path class="a" d="M57.879,392.3c0-.668-.005-1.335,0-2a1.81,1.81,0,0,1,1.862-1.9q2.114-.024,4.229,0a1.813,1.813,0,0,1,1.828,1.879q0,2.072,0,4.143a1.835,1.835,0,0,1-1.89,1.893q-2.072,0-4.143,0a1.827,1.827,0,0,1-1.886-1.877C57.873,393.724,57.879,393.01,57.879,392.3Zm3.959-3.033c-.629,0-1.257,0-1.886,0a1.592,1.592,0,0,0-.364.032,1.083,1.083,0,0,0-.837,1.133q0,1.918,0,3.836a1.435,1.435,0,0,0,.031.333,1.1,1.1,0,0,0,1.147.845q1.91,0,3.82,0a1.106,1.106,0,0,0,1.181-1.179q0-1.91,0-3.82a1.1,1.1,0,0,0-1.175-1.181C63.116,389.263,62.477,389.264,61.837,389.264Z" transform="translate(-57.877 -388.386)"/><g transform="translate(9.5)"><path class="a" d="M121.709,392.3c0-.668-.005-1.335,0-2a1.81,1.81,0,0,1,1.862-1.9q2.114-.024,4.229,0a1.813,1.813,0,0,1,1.828,1.879q0,2.072,0,4.143a1.835,1.835,0,0,1-1.89,1.893q-2.072,0-4.143,0a1.827,1.827,0,0,1-1.886-1.877C121.7,393.724,121.709,393.01,121.709,392.3Zm3.959-3.033c-.629,0-1.257,0-1.886,0a1.591,1.591,0,0,0-.364.032,1.083,1.083,0,0,0-.837,1.133q0,1.918,0,3.836a1.436,1.436,0,0,0,.031.333,1.1,1.1,0,0,0,1.147.845q1.91,0,3.82,0a1.106,1.106,0,0,0,1.181-1.179q0-1.91,0-3.82a1.1,1.1,0,0,0-1.175-1.181C126.947,389.263,126.307,389.264,125.668,389.264Z" transform="translate(-121.707 -388.386)"/></g></svg>