<svg xmlns="http://www.w3.org/2000/svg" width="63" height="63.96" viewBox="0 0 63 63.96">
  <defs>
    <style>
      .cls-1, .cls-3 {
        fill: #ff7627;
      }

      .cls-1, .cls-2 {
        stroke: #ff7627;
      }

      .cls-2 {
        fill: none;
        stroke-width: 3px;
      }
    </style>
  </defs>
  <g id="Group_114483" data-name="Group 114483" transform="translate(-546.338 -288.701)">
    <path id="Path_2045" data-name="Path 2045" class="cls-1" d="M576.4,411.047a3.7,3.7,0,0,1-.513.88c-1.372,1.415-2.769,2.807-4.176,4.189a1.418,1.418,0,1,1-2.01-2c1.41-1.434,2.838-2.851,4.264-4.27a1.3,1.3,0,0,1,1.492-.265A1.578,1.578,0,0,1,576.4,411.047Z" transform="translate(-13.783 -73.977)"/>
    <path id="Path_2046" data-name="Path 2046" class="cls-1" d="M668.369,409.219a4.635,4.635,0,0,1,.994.575c1.4,1.358,2.776,2.743,4.146,4.132a1.423,1.423,0,1,1-2.015,2q-2.083-2.056-4.14-4.138a1.333,1.333,0,0,1-.349-1.581A1.681,1.681,0,0,1,668.369,409.219Z" transform="translate(-73.843 -73.83)"/>
    <path id="Path_2047" data-name="Path 2047" class="cls-1" d="M570.864,311.782a3.32,3.32,0,0,1,.846.485c1.414,1.372,2.8,2.77,4.186,4.176a1.418,1.418,0,1,1-1.993,2.016c-1.42-1.395-2.822-2.809-4.223-4.223a1.319,1.319,0,0,1-.322-1.536A1.534,1.534,0,0,1,570.864,311.782Z" transform="translate(-13.778 -13.891)"/>
    <path id="Path_2048" data-name="Path 2048" class="cls-1" d="M668.527,318.893a1.5,1.5,0,0,1-1.5-.8,1.218,1.218,0,0,1,.171-1.5c1.471-1.513,2.957-3.012,4.476-4.476a1.337,1.337,0,0,1,1.927.166,1.356,1.356,0,0,1-.049,1.938c-1.137,1.172-2.3,2.315-3.456,3.47a8.229,8.229,0,0,1-.812.791A4.716,4.716,0,0,1,668.527,318.893Z" transform="translate(-73.826 -13.886)"/>
    <path id="Path_2049" data-name="Path 2049" class="cls-1" d="M626.455,293.627c0,.958.008,1.915,0,2.872a1.439,1.439,0,1,1-2.869,0q-.012-2.872,0-5.745a1.439,1.439,0,1,1,2.869,0C626.463,291.712,626.455,292.67,626.455,293.627Z" transform="translate(-47.207 0)"/>
    <path id="Path_2050" data-name="Path 2050" class="cls-1" d="M551.253,368.978c-.957,0-1.914.011-2.871,0a1.434,1.434,0,1,1-.046-2.862q2.93-.033,5.861,0a1.431,1.431,0,1,1-.014,2.86C553.207,368.991,552.229,368.978,551.253,368.978Z" transform="translate(0 -47.303)"/>
    <path id="Path_2051" data-name="Path 2051" class="cls-1" d="M689.434,368.981c-.957,0-1.914.01-2.871,0a1.437,1.437,0,1,1-.017-2.864q2.87-.027,5.741,0a1.439,1.439,0,1,1-.043,2.866C691.308,368.989,690.371,368.981,689.434,368.981Z" transform="translate(-84.995 -47.306)"/>
    <path id="Path_2052" data-name="Path 2052" class="cls-2" d="M599.1,363.193c-1.127-2.994-3.039-5.529-4.557-8.281a13.456,13.456,0,1,1,23.261.011c-.948,1.708-2,3.359-2.956,5.061-.527.935-.954,1.926-1.448,2.88a.607.607,0,0,1-.405.316Q606.048,363.2,599.1,363.193Z" transform="translate(-28.295 -28.143)"/>
    <path id="Path_2053" data-name="Path 2053" class="cls-1" d="M623.4,430.276c0,.773.027,1.508-.02,2.238-.011.175-.246.376-.426.485a1.1,1.1,0,0,1-.526.049q-5.561,0-11.121,0c-.871,0-1-.13-1-1.006,0-.574,0-1.149,0-1.767Z" transform="translate(-39.042 -86.784)"/>
    <path id="Path_2054" data-name="Path 2054" class="cls-1" d="M610.546,418.622v-2.475h12.993v2.475Z" transform="translate(-39.19 -78.092)"/>
    <path id="Path_2055" data-name="Path 2055" class="cls-1" d="M625.267,445.054a3.6,3.6,0,0,1-7.1,0Z" transform="translate(-43.882 -95.875)"/>
    <path id="Path_2056" data-name="Path 2056" class="cls-3" d="M603.163,352.02a13.011,13.011,0,0,1,1.954-5.044,13.478,13.478,0,0,1,6.566-5.348,1.432,1.432,0,1,1,1.091,2.644,10.715,10.715,0,0,0-6.77,8.135,1.443,1.443,0,0,1-1.589,1.222A1.466,1.466,0,0,1,603.163,352.02Z" transform="translate(-34.648 -32.17)"/>
  </g>
</svg>
