<svg id="Group_114709" data-name="Group 114709" xmlns="http://www.w3.org/2000/svg" width="51.64" height="50.118" viewBox="0 0 51.64 50.118">
  <defs>
    <style>
      .cls-1 {
        fill: #454545;
      }
    </style>
  </defs>
  <path id="Path_3" data-name="Path 3" class="cls-1" d="M45.291,28.787a1.321,1.321,0,0,0-2.229,0L37.844,38.68A4.908,4.908,0,0,0,37.3,40.8V60.369A4.733,4.733,0,0,0,42.029,65.1h4.349a4.733,4.733,0,0,0,4.729-4.729V40.8a4.11,4.11,0,0,0-.544-2.12Zm-2.011,4.947h1.794l2.935,5.545H40.4Zm-3.425,8.045h3.1V56.237h-3.1Zm8.7,18.645a2.2,2.2,0,0,1-2.229,2.229H42.029A2.2,2.2,0,0,1,39.8,60.423V58.792h8.752Zm0-4.186h-3.1V41.778h3.1Z" transform="translate(-18.383 -14.98)"/>
  <path id="Path_4" data-name="Path 4" class="cls-1" d="M49.248,13.684a4.892,4.892,0,1,0-4.729-6.142H33.212V5.15a1.23,1.23,0,0,0-1.25-1.25H24.678a1.23,1.23,0,0,0-1.25,1.25V7.542H12.121a4.892,4.892,0,1,0-4.729,6.142,4.907,4.907,0,0,0,4.729-3.642h6.74A19.109,19.109,0,0,0,9.838,21.784H6.74a1.23,1.23,0,0,0-1.25,1.25v7.284a1.23,1.23,0,0,0,1.25,1.25h7.284a1.23,1.23,0,0,0,1.25-1.25V23.034a1.23,1.23,0,0,0-1.25-1.25H12.393A16.794,16.794,0,0,1,23.374,10.8v1.631a1.23,1.23,0,0,0,1.25,1.25h7.284a1.23,1.23,0,0,0,1.25-1.25V10.8a16.682,16.682,0,0,1,10.98,10.98H42.508a1.23,1.23,0,0,0-1.25,1.25v7.284a1.23,1.23,0,0,0,1.25,1.25h7.284a1.23,1.23,0,0,0,1.25-1.25V23.034a1.23,1.23,0,0,0-1.25-1.25H46.8a19.191,19.191,0,0,0-9.078-11.741h6.74A5.021,5.021,0,0,0,49.248,13.684Zm0-7.338a2.392,2.392,0,1,1-2.392,2.392A2.378,2.378,0,0,1,49.248,6.346ZM7.392,11.184A2.392,2.392,0,1,1,9.784,8.792,2.378,2.378,0,0,1,7.392,11.184Zm5.436,13.1v4.784H8.045V24.284Zm17.884-13.1H25.928V6.346h4.784Zm17.938,13.1v4.784H43.867V24.284Z" transform="translate(-2.5 -3.9)"/>
</svg>
