<svg id="Information_hIerarchy_Icon" data-name="Information hIerarchy Icon" xmlns="http://www.w3.org/2000/svg" width="38" height="38" viewBox="0 0 38 38">
  <g id="Group_5803" data-name="Group 5803">
    <g id="Rectangle_2201" data-name="Rectangle 2201" fill="#fff" stroke="#707070" stroke-width="1" opacity="0">
      <rect width="38" height="38" stroke="none"/>
      <rect x="0.5" y="0.5" width="37" height="37" fill="none"/>
    </g>
  </g>
  <g id="Group_3178" data-name="Group 3178" transform="translate(1 1)">
    <rect id="Rectangle_42" data-name="Rectangle 42" width="36" height="36" rx="18" fill="#fd7626"/>
  </g>
  <g id="Group_1" data-name="Group 1" transform="translate(9 10)">
    <path id="Path_1" data-name="Path 1" d="M137.795,43.03v-.357q0-2.007,0-4.013c0-.5.066-.57.561-.57q3.368,0,6.736,0h.47V33.759h-.8c-.686,0-1.373.006-2.059,0-.65-.008-.929-.3-.931-.947q0-1.536,0-3.072c0-.629.285-.931.911-.933q3.246-.011,6.492,0c.62,0,.911.317.912.94q0,1.518,0,3.036c0,.682-.288.972-.981.976-.93.005-1.859,0-2.819,0v4.328h7.157c.564,0,.614.053.614.624,0,1.441,0,2.882,0,4.377H155.5c.523,0,.608.084.608.6q0,1.5,0,3c0,.439-.069.506-.507.506q-1.885,0-3.769,0c-.42,0-.487-.066-.488-.486q0-1.57,0-3.141c0-.37.1-.475.476-.48.5-.006,1,0,1.528,0v-4.3H138.515v4.3c.131,0,.265-.008.4,0,.5.037,1,.079,1.507.119.035.5.087,1,.1,1.5.017.662.006,1.326,0,1.989,0,.4-.089.495-.486.5q-1.9,0-3.8,0c-.412,0-.487-.072-.489-.492q-.007-1.553,0-3.106c0-.419.1-.5.524-.51.477-.006.953-.007,1.43-.012C137.719,43.077,137.739,43.058,137.795,43.03Zm8.143-9.942c1.047,0,2.093-.006,3.14,0,.237,0,.331-.063.328-.314q-.017-1.483,0-2.966c0-.252-.09-.315-.325-.315q-3.14.01-6.28,0c-.275,0-.364.09-.361.363.013.942.017,1.884,0,2.826-.006.331.114.414.428.409C143.89,33.077,144.914,33.087,145.938,33.087Zm-9.5,13.4h3.377V43.807h-3.377Zm18.966.01V43.8h-3.36v2.7Z" transform="translate(-135.742 -28.8)" fill="#fff" stroke="#fff" stroke-width="1"/>
  </g>
</svg>
