<svg id="Group_114479" data-name="Group 114479" xmlns="http://www.w3.org/2000/svg" width="19.538" height="17.283" viewBox="0 0 19.538 17.283">
  <defs>
    <style>
      .cls-1 {
        fill: #ff7627;
      }
    </style>
  </defs>
  <g id="Group_114478" data-name="Group 114478">
    <path id="Path_3978" data-name="Path 3978" class="cls-1" d="M196.218,292.648c0,.411,0,.822,0,1.234a1.217,1.217,0,0,1-1.226,1.217q-1.246,0-2.492,0a1.214,1.214,0,0,1-1.216-1.225q0-1.246,0-2.492a1.212,1.212,0,0,1,1.225-1.216q1.246,0,2.492,0a1.216,1.216,0,0,1,1.217,1.225C196.22,291.809,196.218,292.228,196.218,292.648Zm-1.243-1.234h-2.44v2.44h2.44Z" transform="translate(-191.28 -277.817)"/>
    <path id="Path_3979" data-name="Path 3979" class="cls-1" d="M193.757,275.08c.419,0,.839,0,1.258,0a1.214,1.214,0,0,1,1.2,1.192q.01,1.27,0,2.541a1.211,1.211,0,0,1-1.192,1.2q-1.27.01-2.541,0a1.211,1.211,0,0,1-1.2-1.191q-.009-1.27,0-2.541a1.213,1.213,0,0,1,1.191-1.2C192.9,275.075,193.33,275.08,193.757,275.08Zm-1.227,1.238v2.447h2.434v-2.447Z" transform="translate(-191.279 -268.905)"/>
    <path id="Path_3980" data-name="Path 3980" class="cls-1" d="M191.284,262.436c0-.411,0-.822,0-1.234a1.214,1.214,0,0,1,1.208-1.208q1.258-.007,2.516,0a1.213,1.213,0,0,1,1.209,1.208q.008,1.258,0,2.516a1.213,1.213,0,0,1-1.209,1.209q-1.258.009-2.516,0a1.215,1.215,0,0,1-1.209-1.208C191.28,263.292,191.284,262.864,191.284,262.436Zm3.692-1.193h-2.44v2.439h2.44Z" transform="translate(-191.281 -259.991)"/>
    <path id="Path_3981" data-name="Path 3981" class="cls-1" d="M214.144,264.075h5.567a.8.8,0,0,1,.193,1.582.845.845,0,0,1-.19.016H208.547a.8.8,0,0,1-.192-1.581,1.047,1.047,0,0,1,.238-.017Z" transform="translate(-200.996 -262.404)"/>
    <path id="Path_3982" data-name="Path 3982" class="cls-1" d="M214.144,279.161h5.567a.8.8,0,0,1,.193,1.582.845.845,0,0,1-.19.016H208.547a.8.8,0,0,1-.192-1.581,1.047,1.047,0,0,1,.238-.017Z" transform="translate(-200.996 -271.317)"/>
    <path id="Path_3983" data-name="Path 3983" class="cls-1" d="M214.144,294.249h5.567a.8.8,0,0,1,.193,1.582.845.845,0,0,1-.19.016H208.547a.8.8,0,0,1-.192-1.581,1.044,1.044,0,0,1,.238-.017Z" transform="translate(-200.996 -280.232)"/>
  </g>
</svg>
