<svg xmlns="http://www.w3.org/2000/svg" width="41.385" height="49.83" viewBox="0 0 41.385 49.83">
  <defs>
    <style>
      .cls-1, .cls-2, .cls-3, .cls-4 {
        fill: none;
        stroke: #454545;
      }

      .cls-1, .cls-3, .cls-4 {
        stroke-miterlimit: 10;
      }

      .cls-1, .cls-2, .cls-3 {
        stroke-width: 2.5px;
      }

      .cls-2, .cls-3 {
        stroke-linecap: round;
      }

      .cls-4 {
        stroke-width: 2px;
      }

      .cls-5 {
        fill: #454545;
      }
    </style>
  </defs>
  <g id="Group_114711" data-name="Group 114711" transform="translate(1.25 1.25)">
    <path id="Rectangle_34430" data-name="Rectangle 34430" class="cls-1" d="M3,0H33.885a5,5,0,0,1,5,5V42.33a5,5,0,0,1-5,5H3a3,3,0,0,1-3-3V3A3,3,0,0,1,3,0Z"/>
    <line id="Line_87996" data-name="Line 87996" class="cls-1" y2="47.33" transform="translate(10.17)"/>
    <path id="Path_100909" data-name="Path 100909" class="cls-2" d="M0,1H15.456" transform="translate(17.126 23.941)"/>
    <line id="Line_87998" data-name="Line 87998" class="cls-3" x2="12.211" transform="translate(18.805 29.88)"/>
    <g id="Group_114598" data-name="Group 114598" transform="translate(17.423 7.755)">
      <path id="Path_4035" data-name="Path 4035" class="cls-4" d="M439.8,2788.833h13.681a.585.585,0,0,0,.488-.931l-2.887-3.563a.585.585,0,0,0-.817-.131l-.009.006-.057.049-2.661,2.921-3.78-6.188a.587.587,0,0,0-.963.028l-3.5,6.905a.585.585,0,0,0,.506.9Z" transform="translate(-439.195 -2776.966)"/>
      <circle id="Ellipse_45" data-name="Ellipse 45" class="cls-5" cx="2.053" cy="2.053" r="2.053" transform="translate(7.645)"/>
    </g>
  </g>
</svg>
