<svg xmlns="http://www.w3.org/2000/svg" width="18.992" height="21.277" viewBox="0 0 18.992 21.277"><defs><style>.a{fill:#454545;stroke:#454545;stroke-width:0.5px;}</style></defs><g transform="translate(0.252 0.25)"><path class="a" d="M625.915,849.814c.247.055.471.086.683.156a2.126,2.126,0,0,1-.632,4.141c-1.2.013-2.407,0-3.611,0h-.34a3.246,3.246,0,0,1-1.289,2.379,3.126,3.126,0,0,1-2.077.636,3.228,3.228,0,0,1-3.045-3.015H615.3q-1.746,0-3.492,0a2.133,2.133,0,0,1-.206-4.262c.028,0,.055-.012.109-.025v-.318q0-1.939,0-3.877a7.083,7.083,0,0,1,4.4-6.609.306.306,0,0,0,.226-.316,2.482,2.482,0,0,1,4.957,0,.308.308,0,0,0,.222.319,7.085,7.085,0,0,1,4.4,6.607c0,1.292,0,2.585,0,3.877Zm-7.1,2.88q3.521,0,7.042,0a.711.711,0,1,0,.028-1.42,1.412,1.412,0,0,1-1.392-1.463c0-1.43.013-2.86-.006-4.29a5.556,5.556,0,0,0-1.608-3.892,5.662,5.662,0,0,0-2.762-1.575c-.186-.047-.258-.123-.247-.319.017-.315.015-.632,0-.947a1.063,1.063,0,0,0-2.124.015,4.867,4.867,0,0,0,0,.769c.039.328-.094.444-.4.531a5.657,5.657,0,0,0-4.219,5.608q0,1.968,0,3.935a1.435,1.435,0,0,1-1.468,1.629.715.715,0,0,0-.642.882.736.736,0,0,0,.786.537Zm-1.763,1.431a1.765,1.765,0,0,0,1.843,1.586,1.731,1.731,0,0,0,1.653-1.586Z" transform="translate(-609.577 -836.356)"/></g></svg>