<svg xmlns="http://www.w3.org/2000/svg" width="68.1" height="53.433" viewBox="0 0 68.1 53.433">
  <defs>
    <style>
      .cls-1 {
        fill: #ff7627;
        stroke: #ff7627;
        stroke-width: 0.1px;
      }
    </style>
  </defs>
  <g id="Group_114485" data-name="Group 114485" transform="translate(11740.05 -3332.95)">
    <g id="Group_114481" data-name="Group 114481" transform="translate(-11740 3333)">
      <path id="Path_2242" data-name="Path 2242" class="cls-1" d="M69.847,9H42.186a1.156,1.156,0,0,0-1.153,1.159V32.188h0a3.7,3.7,0,0,0-3.631,2.9,1.166,1.166,0,0,0-.069.406v5.067a1.234,1.234,0,0,1-.308.89,1.219,1.219,0,0,1-.844.409H32.966v-31.7A1.156,1.156,0,0,0,31.814,9H4.153A1.156,1.156,0,0,0,3,10.159V61.174a1.156,1.156,0,0,0,1.153,1.159H31.814a1.156,1.156,0,0,0,1.153-1.159V44.13h3.169a3.538,3.538,0,0,0,3.458-3.617V35.759a1.351,1.351,0,0,1,1.441-1.252h0V61.174a1.156,1.156,0,0,0,1.153,1.159H69.847A1.156,1.156,0,0,0,71,61.174V10.159A1.156,1.156,0,0,0,69.847,9ZM30.661,25.232H8.417L30.661,12.177ZM27.549,11.319,5.305,24.374V11.319ZM9.915,60.014V58.855H26.051v1.159Zm20.746,0H28.356V57.7A1.156,1.156,0,0,0,27.2,56.536H8.763A1.156,1.156,0,0,0,7.61,57.7v2.319H5.305V27.551H30.661V41.812H28.356v-7.3A1.156,1.156,0,0,0,27.2,33.348H8.763A1.156,1.156,0,0,0,7.61,34.507V53.058a1.156,1.156,0,0,0,1.153,1.159H27.2a1.156,1.156,0,0,0,1.153-1.159V44.13h2.305Zm-7.18-18.2a4.034,4.034,0,1,0,.15,2.319h2.42V51.9H9.915V35.667H26.051v6.145ZM21.441,43.2a1.729,1.729,0,1,1-1.729-1.739A1.734,1.734,0,0,1,21.441,43.2Zm23.65-5.8a1.148,1.148,0,0,0,1.625,0l3.193-3.212.069-.07h0a1.093,1.093,0,0,0,.265-.6,1.41,1.41,0,0,0,0-.22h0a1.233,1.233,0,0,0-.323-.742h0l-3.2-3.223a1.148,1.148,0,0,0-1.625,0,1.164,1.164,0,0,0,0,1.635l1.233,1.217H43.339V11.319H68.695V41.464H43.339V34.507h2.985l-1.233,1.159a1.164,1.164,0,0,0,0,1.681Zm-1.752,6.377H66.044L43.339,59.006ZM45.99,60.014,68.695,44.791V60.014Z" transform="translate(-3 -9)"/>
    </g>
  </g>
</svg>
