<svg xmlns="http://www.w3.org/2000/svg" width="76" height="76" viewBox="0 0 76 76">
  <defs>
    <style>
      .cls-1, .cls-2, .cls-3, .cls-4 {
        fill: none;
      }

      .cls-2, .cls-4, .cls-5 {
        stroke: #454545;
      }

      .cls-2 {
        stroke-linecap: round;
      }

      .cls-2, .cls-3, .cls-4 {
        stroke-miterlimit: 10;
      }

      .cls-2, .cls-4 {
        stroke-width: 2.5px;
      }

      .cls-3 {
        stroke: #000;
        stroke-width: 1.5px;
      }

      .cls-5 {
        fill: #454545;
        stroke-width: 0.4px;
      }

      .cls-6 {
        fill: #fff;
        opacity: 0;
      }

      .cls-7, .cls-8 {
        stroke: none;
      }

      .cls-8 {
        fill: #707070;
      }
    </style>
  </defs>
  <g id="Group_114515" data-name="Group 114515" transform="translate(-186 -674.471)">
    <rect id="Rectangle_34396" data-name="Rectangle 34396" class="cls-1" width="50" height="50" transform="translate(199 689.472)"/>
    <g id="Group_114673" data-name="Group 114673" transform="translate(-459.544 -2251.053)">
      <g id="Group_114672" data-name="Group 114672" transform="translate(674.302 2946.889)">
        <line id="Line_88004" data-name="Line 88004" class="cls-2" x1="12.476"/>
        <line id="Line_88005" data-name="Line 88005" class="cls-2" x1="19.154" transform="translate(0.001 3.55)"/>
        <line id="Line_88006" data-name="Line 88006" class="cls-2" x1="19.154" transform="translate(0.001 7.1)"/>
        <line id="Line_88007" data-name="Line 88007" class="cls-2" x1="19.153" transform="translate(0.001 10.651)"/>
      </g>
      <line id="Line_88008" data-name="Line 88008" class="cls-3" y1="1.041" transform="translate(664.651 2982.967)"/>
      <line id="Line_88009" data-name="Line 88009" class="cls-3" y1="0.595" transform="translate(664.651 2983.413)"/>
      <path id="Path_4051" data-name="Path 4051" class="cls-4" d="M665.348,2968.428v-26.544a1.765,1.765,0,0,1,1.76-1.76h34.937a1.765,1.765,0,0,1,1.76,1.76V2969.5" transform="translate(-0.697)"/>
      <path id="Path_4052" data-name="Path 4052" class="cls-5" d="M699.588,2985.4a1.582,1.582,0,0,0-1.678.422,9.262,9.262,0,0,1,.67,2.005,3.123,3.123,0,0,1-4.6,3.054,1.821,1.821,0,0,0-1.528-.076c-2.749.841-5.5,1.686-8.265,2.459a6.492,6.492,0,0,1-5.356-.869q-5.146-3.225-10.26-6.5a1.7,1.7,0,0,0-1.288-.247c0,.4.006.809,0,1.215a1.016,1.016,0,0,1-1.106,1.109q-2.753.01-5.506,0a1.027,1.027,0,0,1-1.124-1.137q0-7.074,0-14.147a1.023,1.023,0,0,1,1.146-1.149c4.236,0,8.472,0,12.708-.011a1.556,1.556,0,0,0,.747-.207c1.6-.93,3.174-1.892,4.774-2.817a1.918,1.918,0,0,1,.911-.254c4.221-.017,8.443-.012,12.664-.011.837,0,1.248.389,1.192,1.219-.046.683-.184,1.359-.287,2.08h12.656c.926,0,1.274.349,1.274,1.279q0,6.946,0,13.893c0,.892-.369,1.264-1.253,1.265q-2.626,0-5.253,0c-.868,0-1.233-.365-1.237-1.235C699.586,2986.284,699.588,2985.836,699.588,2985.4Zm-7.969,3.552c-.249-.2-.425-.323-.573-.471a1.015,1.015,0,0,1-.076-1.534,1.036,1.036,0,0,1,1.508.093c.6.56,1.195,1.119,1.812,1.657a2.439,2.439,0,0,0,.719.431,1.153,1.153,0,0,0,1.34-.348,1.089,1.089,0,0,0,.027-1.337,3.235,3.235,0,0,0-.512-.56q-3.769-3.41-7.552-6.8a.8.8,0,0,0-.489-.166c-1.44-.012-2.881-.016-4.32,0a1.473,1.473,0,0,0-.707.2c-1.453.869-2.889,1.765-4.337,2.643a4.319,4.319,0,0,1-2.988.679,5.32,5.32,0,0,1-3.522-2.429,1.081,1.081,0,0,1,.367-1.8q5.276-3.3,10.56-6.583a2.1,2.1,0,0,1,1.025-.3c1.792-.031,3.586,0,5.379-.025a2.212,2.212,0,0,0,2.245-2.017c-.1-.007-.194-.019-.289-.019q-5.528,0-11.056.006a1.158,1.158,0,0,0-.549.163c-1.593.935-3.172,1.9-4.775,2.815a2.407,2.407,0,0,1-1.11.3c-1.99.029-3.981.013-5.972.013h-.46v10.008a7.01,7.01,0,0,1,.916.009,2.119,2.119,0,0,1,.832.239c3.62,2.273,7.226,4.568,10.841,6.849a4.3,4.3,0,0,0,3.354.7c1.82-.439,3.617-.977,5.418-1.493C689.619,2989.6,690.547,2989.287,691.619,2988.948Zm7.939-5.666v-9.689a1.128,1.128,0,0,0-.155-.025q-3.706,0-7.41,0a.7.7,0,0,0-.356.092,4.835,4.835,0,0,1-2.706.69q-2.328-.02-4.658,0a1.27,1.27,0,0,0-.628.176q-4.618,2.867-9.222,5.757c-.09.056-.17.127-.256.191a2.333,2.333,0,0,0,3.237.534c1.558-.939,3.1-1.912,4.661-2.837a2.219,2.219,0,0,1,1.067-.3c3.077-.023,6.154-.013,9.23-.012.127,0,.254,0,.38.01a.985.985,0,0,1,.894.918.967.967,0,0,1-.735,1.047,3.948,3.948,0,0,1-.756.057c-.3.008-.591,0-1.007,0,1.677,1.5,3.248,2.9,4.8,4.317.233.211.4.243.638.033a3.371,3.371,0,0,1,2.86-.943A.437.437,0,0,0,699.558,2983.282Zm-34.341,2.635V2973.59h-3.612v12.327Zm40.056,0v-12.326h-3.618v12.326Z" transform="translate(0 -3.377)"/>
    </g>
    <g id="Path_100939" data-name="Path 100939" class="cls-6" transform="translate(185 674.471)">
      <path class="cls-7" d="M 76.5 75.5 L 1.5 75.5 L 1.5 0.5 L 76.5 0.5 L 76.5 75.5 Z"/>
      <path class="cls-8" d="M 2 1 L 2 75 L 76 75 L 76 1 L 2 1 M 1 0 L 77 0 L 77 76 L 1 76 L 1 0 Z"/>
    </g>
  </g>
</svg>
