<svg xmlns="http://www.w3.org/2000/svg" width="76" height="76" viewBox="0 0 76 76">
  <defs>
    <style>
      .cls-1 {
        fill: #fff;
        opacity: 0;
      }

      .cls-2, .cls-3 {
        fill: none;
      }

      .cls-3, .cls-4, .cls-5 {
        stroke: #454545;
      }

      .cls-3 {
        stroke-miterlimit: 10;
        stroke-width: 2.5px;
      }

      .cls-4, .cls-5 {
        fill: #454545;
      }

      .cls-5 {
        stroke-width: 0.4px;
      }

      .cls-6, .cls-7 {
        stroke: none;
      }

      .cls-7 {
        fill: #707070;
      }
    </style>
  </defs>
  <g id="Group_114896" data-name="Group 114896" transform="translate(-41 -26)">
    <g id="Path_100933" data-name="Path 100933" class="cls-1" transform="translate(40 26)">
      <path class="cls-6" d="M 76.5 75.5 L 1.5 75.5 L 1.5 0.5 L 76.5 0.5 L 76.5 75.5 Z"/>
      <path class="cls-7" d="M 2 1 L 2 75 L 76 75 L 76 1 L 2 1 M 1 0 L 77 0 L 77 76 L 1 76 L 1 0 Z"/>
    </g>
    <g id="Group_114516" data-name="Group 114516" transform="translate(-145 -648.472)">
      <rect id="Rectangle_34396" data-name="Rectangle 34396" class="cls-2" width="50" height="50" transform="translate(199 689.472)"/>
      <g id="Group_114677" data-name="Group 114677" transform="translate(-602.959 -2248.519)">
        <rect id="Rectangle_34457" data-name="Rectangle 34457" class="cls-3" width="39.453" height="50" rx="2" transform="translate(806.959 2937.991)"/>
        <g id="Group_114676" data-name="Group 114676" transform="translate(813.845 2951.502)">
          <path id="Path_4055" data-name="Path 4055" class="cls-4" d="M815.08,2963.312c13.709,0,20.455-4.481,23.545-7.738v2.668a.474.474,0,0,0,.947,0v-3.927a.194.194,0,0,0-.005-.024.5.5,0,0,0-.02-.1.425.425,0,0,0-.025-.082.468.468,0,0,0-.048-.071.492.492,0,0,0-.062-.076c-.006-.005-.01-.013-.016-.019a.359.359,0,0,0-.056-.029.476.476,0,0,0-.085-.045.436.436,0,0,0-.1-.019.422.422,0,0,0-.06-.013h-4.3a.474.474,0,0,0,0,.948h3.263c-2.9,3.136-9.41,7.576-22.981,7.576a.474.474,0,1,0,0,.948Z" transform="translate(-814.605 -2953.077)"/>
          <path id="Path_4056" data-name="Path 4056" class="cls-4" d="M821.155,2970.906H815.08a.474.474,0,0,0-.474.474v8.949a.474.474,0,0,0,.474.474h6.076a.473.473,0,0,0,.474-.474v-8.949A.473.473,0,0,0,821.155,2970.906Zm-.473,8.949h-5.129v-8h5.129Z" transform="translate(-814.605 -2954.773)"/>
          <path id="Path_4057" data-name="Path 4057" class="cls-4" d="M842.6,2960.971h-.761a.486.486,0,0,0-.125.025c-.013,0-.027,0-.041.009a.467.467,0,0,0-.147.09l-.009.006,0,0-.014.011a21.282,21.282,0,0,1-5.162,3.465h0l-.022.012c-.014.006-.022.018-.035.026a.433.433,0,0,0-.1.081.473.473,0,0,0-.041.058.521.521,0,0,0-.053.093.447.447,0,0,0-.019.092.523.523,0,0,0-.014.073v14.326a.474.474,0,0,0,.474.473H842.6a.473.473,0,0,0,.474-.473v-17.9A.474.474,0,0,0,842.6,2960.971Zm-.474,17.9h-5.13V2965.3a22.259,22.259,0,0,0,5.021-3.384h.109Z" transform="translate(-816.736 -2953.785)"/>
          <path id="Path_4058" data-name="Path 4058" class="cls-4" d="M832.326,2966.887c0-.005-.006-.008-.008-.014a.547.547,0,0,0-.053-.092.567.567,0,0,0-.044-.065.463.463,0,0,0-.078-.059.377.377,0,0,0-.068-.046.457.457,0,0,0-.088-.025.485.485,0,0,0-.091-.018c-.006,0-.012,0-.018,0a.449.449,0,0,0-.086.017.278.278,0,0,0-.067.009,40.034,40.034,0,0,1-6.006,1.5c-.017,0-.031.014-.048.019a.412.412,0,0,0-.092.036.432.432,0,0,0-.071.048.409.409,0,0,0-.067.065.472.472,0,0,0-.049.071.563.563,0,0,0-.038.084.439.439,0,0,0-.018.092.444.444,0,0,0-.011.052V2979.9a.474.474,0,0,0,.474.474h6.077a.473.473,0,0,0,.474-.474v-12.858a.589.589,0,0,0-.015-.078A.354.354,0,0,0,832.326,2966.887Zm-6.052,12.537v-10.471a41.1,41.1,0,0,0,5.13-1.268v11.739Z" transform="translate(-815.67 -2954.341)"/>
          <path id="Path_4059" data-name="Path 4059" class="cls-5" d="M815.224,2959.446a3.13,3.13,0,0,0,.331.081c.114.021.237.037.369.047.115.009.244.015.385.016v.772l.122.028c.051.011.1.02.154.026a1.478,1.478,0,0,0,.154.008,1.438,1.438,0,0,0,.146-.008,1.219,1.219,0,0,0,.15-.027l.119-.031v-.867a1.914,1.914,0,0,0,.993-.555,1.662,1.662,0,0,0,.408-1.156,1.71,1.71,0,0,0-.1-.609,1.354,1.354,0,0,0-.275-.446,1.665,1.665,0,0,0-.413-.319,5.274,5.274,0,0,0-.507-.242l-.289-.122q-.232-.1-.416-.18a1.387,1.387,0,0,1-.287-.167.565.565,0,0,1-.157-.181.535.535,0,0,1-.05-.242.487.487,0,0,1,.19-.432,1.12,1.12,0,0,1,.644-.152,2.769,2.769,0,0,1,.581.053,3.2,3.2,0,0,1,.448.126l.143.053.058-.141a2.494,2.494,0,0,0,.177-.671l.014-.123-.114-.044a2.93,2.93,0,0,0-.556-.144c-.162-.028-.328-.048-.494-.062v-.679l-.119-.029a1.326,1.326,0,0,0-.61,0l-.117.031v.722a1.741,1.741,0,0,0-.968.487,1.488,1.488,0,0,0-.4,1.063,1.666,1.666,0,0,0,.086.561,1.252,1.252,0,0,0,.248.42,1.588,1.588,0,0,0,.366.3,3.1,3.1,0,0,0,.437.215l.362.15.46.2a1.234,1.234,0,0,1,.289.171.512.512,0,0,1,.15.192.717.717,0,0,1,.051.292.653.653,0,0,1-.244.544,1.322,1.322,0,0,1-.825.208,2.8,2.8,0,0,1-.623-.06c-.177-.042-.35-.09-.518-.145l-.142-.046-.053.14c-.043.111-.081.225-.115.342a2.039,2.039,0,0,0-.07.366l-.011.125.119.04C815.016,2959.382,815.121,2959.416,815.224,2959.446Z" transform="translate(-814.623 -2952.993)"/>
        </g>
      </g>
    </g>
  </g>
</svg>
