<svg id="Sort_by" data-name="Sort by" xmlns="http://www.w3.org/2000/svg" width="24" height="24" viewBox="0 0 24 24">
  <rect id="Rectangle_34494" data-name="Rectangle 34494" width="24" height="24" fill="none"/>
  <g id="Group_5925" data-name="Group 5925" transform="translate(2 4.37)">
    <g id="Group_5924" data-name="Group 5924" transform="translate(0)">
      <path id="Path_3693" data-name="Path 3693" d="M374.158,72.251,371.9,74.686c-.176.19-.347.388-.53.57a.608.608,0,0,1-.928-.023.783.783,0,0,1,.027-1.017q1.936-2.106,3.883-4.2a.58.58,0,0,1,.926.009q1.939,2.084,3.867,4.179a.773.773,0,0,1,.04,1.035.6.6,0,0,1-.942.008c-.852-.912-1.7-1.832-2.546-2.749-.06-.065-.122-.128-.231-.243v.34q0,5.9,0,11.795a.823.823,0,0,1-.348.78.621.621,0,0,1-.931-.445,1.844,1.844,0,0,1-.033-.407q0-5.846,0-11.692Z" transform="translate(-370.271 -72.161)" fill="#ff7627" stroke="#ff7627" stroke-width="0.5"/>
      <path id="Path_3694" data-name="Path 3694" d="M399.68,88.9V76.858c0-.094,0-.189,0-.282a.694.694,0,0,1,.637-.68.667.667,0,0,1,.656.621,2.162,2.162,0,0,1,.016.332q0,5.834,0,11.667v.371c.095-.093.155-.148.211-.208q1.256-1.357,2.51-2.717a.677.677,0,0,1,.57-.273.626.626,0,0,1,.557.464.745.745,0,0,1-.138.761c-.275.31-.559.611-.839.915l-2.959,3.2c-.417.45-.726.447-1.145-.006q-1.843-1.992-3.687-3.982a.854.854,0,0,1-.276-.672.685.685,0,0,1,.352-.591.568.568,0,0,1,.654.046,1.685,1.685,0,0,1,.207.2l2.445,2.644C399.515,88.732,399.577,88.792,399.68,88.9Z" transform="translate(-385.088 -73.73)" fill="#ff7627" stroke="#ff7627" stroke-width="0.5"/>
    </g>
  </g>
  <rect id="Rectangle_34469" data-name="Rectangle 34469" width="20" height="20" transform="translate(2 2)" fill="none"/>
</svg>
