<svg id="Component_122_10f0f1d2c3c05e6dbd2f393b94d866b5758c5bf438859d4f54f35c04f8b46d466" data-name="Component 122 – 10f0f1d2c3c05e6dbd2f393b94d866b5758c5bf438859d4f54f35c04f8b46d466" xmlns="http://www.w3.org/2000/svg" width="24" height="24" viewBox="0 0 24 24">
  <defs>
    <style>
      .cls-1 {
        fill: none;
      }

      .cls-2 {
        fill: #454545;
      }
    </style>
  </defs>
  <rect id="Rectangle_34470" data-name="Rectangle 34470" class="cls-1" width="24" height="24"/>
  <g id="Group_5924" data-name="Group 5924" transform="translate(2.2 3)">
    <path id="Path_3693" data-name="Path 3693" class="cls-2" d="M374.158,72.251,371.9,74.686c-.176.19-.347.388-.53.57a.608.608,0,0,1-.928-.023.783.783,0,0,1,.027-1.017q1.936-2.106,3.883-4.2a.58.58,0,0,1,.926.009q1.939,2.084,3.867,4.179a.773.773,0,0,1,.04,1.035.6.6,0,0,1-.942.008c-.852-.912-1.7-1.832-2.546-2.749-.06-.065-.122-.128-.231-.243V84.39a.823.823,0,0,1-.348.78.621.621,0,0,1-.931-.445,1.845,1.845,0,0,1-.033-.407V72.626Z" transform="translate(-370.271 -69.791)"/>
    <path id="Path_3694" data-name="Path 3694" class="cls-2" d="M399.68,88.9V76.576a.694.694,0,0,1,.637-.68.667.667,0,0,1,.656.621,2.163,2.163,0,0,1,.016.332q0,5.834,0,11.667v.371c.1-.093.155-.148.211-.208q1.256-1.357,2.51-2.717a.677.677,0,0,1,.57-.273.626.626,0,0,1,.557.464.745.745,0,0,1-.138.761c-.275.31-.559.611-.839.915l-2.959,3.2c-.417.45-.726.447-1.145-.006q-1.843-1.992-3.687-3.982a.854.854,0,0,1-.276-.672.685.685,0,0,1,.352-.591.568.568,0,0,1,.654.046,1.686,1.686,0,0,1,.207.2l2.445,2.644C399.515,88.732,399.577,88.792,399.68,88.9Z" transform="translate(-384.888 -73.73)"/>
  </g>
</svg>
