<svg xmlns="http://www.w3.org/2000/svg" width="34" height="34" viewBox="0 0 34 34">
  <defs>
    <style>
      .cls-1, .cls-5 {
        fill: #dbdbdb;
      }

      .cls-2, .cls-3 {
        fill: #fff;
        stroke: #fff;
      }

      .cls-2 {
        stroke-width: 0.75px;
      }

      .cls-3 {
        stroke-width: 0.25px;
      }

      .cls-4, .cls-5 {
        stroke: none;
      }
    </style>
  </defs>
  <g id="Group_114947" data-name="Group 114947" transform="translate(-1521 -485)">
    <g id="Path_100939" data-name="Path 100939" class="cls-1" transform="translate(1521 485)">
      <path class="cls-4" d="M 17 33.5 C 12.59269046783447 33.5 8.449179649353027 31.78370094299316 5.33273983001709 28.66725921630859 C 2.216300010681152 25.55081939697266 0.5 21.40731048583984 0.5 17 C 0.5 12.59269046783447 2.216300010681152 8.449179649353027 5.33273983001709 5.33273983001709 C 8.449179649353027 2.216300010681152 12.59269046783447 0.5 17 0.5 C 21.40731048583984 0.5 25.55081939697266 2.216300010681152 28.66725921630859 5.33273983001709 C 31.78370094299316 8.449179649353027 33.5 12.59269046783447 33.5 17 C 33.5 21.40731048583984 31.78370094299316 25.55081939697266 28.66725921630859 28.66725921630859 C 25.55081939697266 31.78370094299316 21.40731048583984 33.5 17 33.5 Z"/>
      <path class="cls-5" d="M 17 1 C 12.72624969482422 1 8.708290100097656 2.664289474487305 5.686290740966797 5.686290740966797 C 2.664289474487305 8.708290100097656 1 12.72624969482422 1 17 C 1 21.27375030517578 2.664289474487305 25.29170989990234 5.686290740966797 28.3137092590332 C 8.708290100097656 31.3357105255127 12.72624969482422 33 17 33 C 21.27375030517578 33 25.29170989990234 31.3357105255127 28.3137092590332 28.3137092590332 C 31.3357105255127 25.29170989990234 33 21.27375030517578 33 17 C 33 12.72624969482422 31.3357105255127 8.708290100097656 28.3137092590332 5.686290740966797 C 25.29170989990234 2.664289474487305 21.27375030517578 1 17 1 M 17 0 C 26.38883972167969 0 34 7.611160278320312 34 17 C 34 26.38883972167969 26.38883972167969 34 17 34 C 7.611160278320312 34 0 26.38883972167969 0 17 C 0 7.611160278320312 7.611160278320312 0 17 0 Z"/>
    </g>
    <g id="Laag_2" data-name="Laag 2" transform="translate(1530 492)">
      <g id="Layer_1" data-name="Layer 1">
        <path id="Path_2459" data-name="Path 2459" class="cls-2" d="M14.357,0H2.055A2.055,2.055,0,0,0,0,2.055V18.011a2.055,2.055,0,0,0,2.055,2.052h12.3A2.052,2.052,0,0,0,16.4,18.011V2.055A2.052,2.052,0,0,0,14.357,0ZM2.055.643h12.3a1.412,1.412,0,0,1,1.4,1.412v.518H.643v.643H15.759V16.19H.643V2.055A1.415,1.415,0,0,1,2.055.643Zm12.3,18.763H2.055a1.412,1.412,0,0,1-1.412-1.4V16.834H15.759v1.177a1.412,1.412,0,0,1-1.4,1.4Z"/>
        <circle id="Ellipse_72" data-name="Ellipse 72" class="cls-3" cx="0.643" cy="0.643" r="0.643" transform="translate(7.561 17.477)"/>
      </g>
    </g>
  </g>
</svg>
