<svg xmlns="http://www.w3.org/2000/svg" width="22" height="22" viewBox="0 0 22 22">
  <defs>
    <style>
      .cls-1, .cls-4 {
        fill: none;
      }

      .cls-1, .cls-2 {
        stroke: #4bb543;
      }

      .cls-1 {
        stroke-width: 2px;
      }

      .cls-2 {
        fill: #4bb543;
      }

      .cls-3 {
        stroke: none;
      }
    </style>
  </defs>
  <g id="Group_114490" data-name="Group 114490" transform="translate(-935 -218)">
    <g id="Ellipse_10" data-name="Ellipse 10" class="cls-1" transform="translate(935 218)">
      <circle class="cls-3" cx="11" cy="11" r="11"/>
      <circle class="cls-4" cx="11" cy="11" r="10"/>
    </g>
    <path id="Path_3760" data-name="Path 3760" class="cls-2" d="M458.685,448.993a.967.967,0,0,1-.719-.288q-1.3-1.294-2.594-2.594a.506.506,0,0,1,0-.748c.088-.093.179-.183.271-.272a.517.517,0,0,1,.8.005q.972.967,1.94,1.939c.238.238.319.241.568.014,1.625-1.476,3.255-2.947,4.869-4.434.48-.442.726-.469,1.175.019.329.357.337.607-.017.934l-5.544,5.121A1.048,1.048,0,0,1,458.685,448.993Z" transform="translate(485.863 -216.27)"/>
  </g>
</svg>
