<svg xmlns="http://www.w3.org/2000/svg" width="20.405" height="20.405" viewBox="0 0 20.405 20.405"><defs><style>.a{fill:#454545;}</style></defs><path class="a" d="M20.281,19.079l-5.928-5.928a8.093,8.093,0,1,0-1.2,1.2l5.928,5.928a.425.425,0,0,0,.6,0l.6-.6A.425.425,0,0,0,20.281,19.079Zm-12.2-4.625a6.377,6.377,0,1,1,6.377-6.377A6.384,6.384,0,0,1,8.077,14.454Z" transform="translate(0 0)"/><path class="a" d="M20.281,19.079l-5.928-5.928a8.093,8.093,0,1,0-1.2,1.2l5.928,5.928a.425.425,0,0,0,.6,0l.6-.6A.425.425,0,0,0,20.281,19.079Zm-12.2-4.625a6.377,6.377,0,1,1,6.377-6.377A6.384,6.384,0,0,1,8.077,14.454Z" transform="translate(0 0)"/></svg>