<svg xmlns="http://www.w3.org/2000/svg" width="12.756" height="13.942" viewBox="0 0 12.756 13.942">
  <defs>
    <style>
      .cls-1 {
        fill: #707070;
        stroke: #707070;
      }
    </style>
  </defs>
  <g id="noun_Undo_2509829" transform="translate(-3.078 -1.118)">
    <g id="Group_114428" data-name="Group 114428" transform="translate(3.578 1.618)">
      <path id="Path_3993" data-name="Path 3993" class="cls-1" d="M7.889.809a6.079,6.079,0,0,0-4.611,2.13V.539A.539.539,0,1,0,2.2.539V4.853a.548.548,0,0,0,.458.539H7.053a.539.539,0,0,0,0-1.078H3.6a4.991,4.991,0,1,1,4.287,7.549,5.022,5.022,0,0,1-3.424-1.348.534.534,0,1,0-.728.782,5.989,5.989,0,0,0,4.152,1.645,6.067,6.067,0,0,0,0-12.133Z" transform="translate(-2.2)"/>
    </g>
  </g>
</svg>
