<svg xmlns="http://www.w3.org/2000/svg" width="28.599" height="29.188" viewBox="0 0 28.599 29.188"><defs><style>.a{fill:#cbcbcb;stroke:#cbcbcb;stroke-width:0.4px;}</style></defs><g transform="translate(0.2 0.2)"><g transform="translate(0)"><path class="a" d="M30.458,1.341A4.571,4.571,0,0,0,27.186,0H8.213A4.71,4.71,0,0,0,4.941,1.341,4.571,4.571,0,0,0,3.6,4.613v19.53a4.71,4.71,0,0,0,1.341,3.271,4.571,4.571,0,0,0,3.271,1.341H27.186v.033a4.71,4.71,0,0,0,3.271-1.341A4.571,4.571,0,0,0,31.8,24.175V4.613A4.71,4.71,0,0,0,30.458,1.341Zm-.393,19.792v3.042a2.9,2.9,0,0,1-2.879,2.879H8.213a2.848,2.848,0,0,1-2.846-2.879V20.086l5.79-5.823L16.1,19.2a.91.91,0,0,0,1.243,0l7.3-7.328,5.43,5.43v3.827Zm0-6.281L25.256,10.01a.878.878,0,0,0-1.243,0l-7.3,7.328-4.94-4.94a.878.878,0,0,0-1.243,0L5.367,17.6V4.613a2.765,2.765,0,0,1,.818-2,2.87,2.87,0,0,1,2.028-.851H27.186a2.9,2.9,0,0,1,2.879,2.879V14.852Z" transform="translate(-3.6)"/><circle class="a" cx="2.355" cy="2.355" r="2.355" transform="translate(10.599 7.491)"/></g></g></svg>