<svg xmlns="http://www.w3.org/2000/svg" width="59.956" height="44.315" viewBox="0 0 59.956 44.315"><defs><style>.a{fill:#bdbdbd;}</style></defs><path class="a" d="M33.978,16a18.07,18.07,0,0,0-17.84,14.683,14.949,14.949,0,0,0,2.851,29.632H50.922A13,13,0,0,0,52.1,34.37,18.05,18.05,0,0,0,33.978,16Zm0,3.91A14.2,14.2,0,0,1,44.1,24.085a14.347,14.347,0,0,1,4.114,11.873,1.953,1.953,0,0,0,1.935,2.2h.774a9.124,9.124,0,1,1,0,18.247H18.989a11.082,11.082,0,0,1-1.018-22.116,1.956,1.956,0,0,0,1.751-1.711A14.312,14.312,0,0,1,33.978,19.91Zm0,11.73a1.752,1.752,0,0,0-1.324.509l-7.169,6.517a1.973,1.973,0,0,0-.123,2.77,2.046,2.046,0,0,0,2.77.123l3.89-3.544V50.54a1.955,1.955,0,1,0,3.91,0V38.015l3.89,3.544a2.089,2.089,0,0,0,2.77-.123,1.968,1.968,0,0,0-.123-2.77L35.3,32.15A1.648,1.648,0,0,0,33.978,31.641Z" transform="translate(-4 -16)"/></svg>