<svg xmlns="http://www.w3.org/2000/svg" width="19.804" height="21.786" viewBox="0 0 19.804 21.786"><defs><style>.a{fill:#454545;}</style></defs><g transform="translate(0)"><path class="a" d="M343.343,812.253c-1.6,0-3.207-.023-4.81.005a5.185,5.185,0,0,1-5.033-4.284,3.923,3.923,0,0,1-.05-.61q0-4.969,0-9.937a.989.989,0,0,1,.837-1,.978.978,0,0,1,1.078.647,1.431,1.431,0,0,1,.062.446q0,4.879,0,9.758a2.969,2.969,0,0,0,.728,2.078,2.829,2.829,0,0,0,2.177.915c1.629.01,3.259,0,4.889,0,1.676,0,3.352.011,5.028-.008a3.979,3.979,0,0,0,1.145-.175,2.719,2.719,0,0,0,1.867-2.663c.012-.851,0-1.7,0-2.553q0-3.721,0-7.442a.951.951,0,0,1,.57-.92.937.937,0,0,1,1.04.126.962.962,0,0,1,.369.8q0,1.643,0,3.285c0,2.151-.024,4.3.006,6.453a5.192,5.192,0,0,1-4.29,5.028,4.992,4.992,0,0,1-.749.051C346.589,812.255,344.966,812.253,343.343,812.253Z" transform="translate(-333.447 -790.473)"/><path class="a" d="M347.289,790.178v.272c0,3.226-.006,6.452.005,9.677a1.025,1.025,0,0,1-1,.994.983.983,0,0,1-.982-.989v-9.954c-.079.053-.135.089-.19.128-.574.41-1.144.825-1.725,1.227a.98.98,0,0,1-1.294-.147.99.99,0,0,1-.031-1.288,1.343,1.343,0,0,1,.25-.222q1.68-1.2,3.363-2.4a1,1,0,0,1,1.233-.009q1.706,1.219,3.406,2.444a.988.988,0,1,1-1.131,1.619c-.574-.4-1.139-.81-1.707-1.216C347.43,790.272,347.376,790.237,347.289,790.178Z" transform="translate(-336.4 -787.254)"/></g></svg>