<svg xmlns="http://www.w3.org/2000/svg" width="34" height="34" viewBox="0 0 34 34">
  <defs>
    <style>
      .cls-1, .cls-5 {
        fill: #dbdbdb;
      }

      .cls-2, .cls-3 {
        fill: none;
        stroke: #fff;
        stroke-linecap: round;
        stroke-linejoin: round;
        stroke-width: 1.4px;
      }

      .cls-2 {
        fill-rule: evenodd;
      }

      .cls-4, .cls-5 {
        stroke: none;
      }
    </style>
  </defs>
  <g id="Group_114893" data-name="Group 114893" transform="translate(-1562 -485)">
    <g id="Path_100920" data-name="Path 100920" class="cls-1" transform="translate(1562 485)">
      <path class="cls-4" d="M 17 33.5 C 12.59269046783447 33.5 8.449179649353027 31.78370094299316 5.33273983001709 28.66725921630859 C 2.216300010681152 25.55081939697266 0.5 21.40731048583984 0.5 17 C 0.5 12.59269046783447 2.216300010681152 8.449179649353027 5.33273983001709 5.33273983001709 C 8.449179649353027 2.216300010681152 12.59269046783447 0.5 17 0.5 C 21.40731048583984 0.5 25.55081939697266 2.216300010681152 28.66725921630859 5.33273983001709 C 31.78370094299316 8.449179649353027 33.5 12.59269046783447 33.5 17 C 33.5 21.40731048583984 31.78370094299316 25.55081939697266 28.66725921630859 28.66725921630859 C 25.55081939697266 31.78370094299316 21.40731048583984 33.5 17 33.5 Z"/>
      <path class="cls-5" d="M 17 1 C 12.72624969482422 1 8.708290100097656 2.664289474487305 5.686290740966797 5.686290740966797 C 2.664289474487305 8.708290100097656 1 12.72624969482422 1 17 C 1 21.27375030517578 2.664289474487305 25.29170989990234 5.686290740966797 28.3137092590332 C 8.708290100097656 31.3357105255127 12.72624969482422 33 17 33 C 21.27375030517578 33 25.29170989990234 31.3357105255127 28.3137092590332 28.3137092590332 C 31.3357105255127 25.29170989990234 33 21.27375030517578 33 17 C 33 12.72624969482422 31.3357105255127 8.708290100097656 28.3137092590332 5.686290740966797 C 25.29170989990234 2.664289474487305 21.27375030517578 1 17 1 M 17 0 C 26.38883972167969 0 34 7.611160278320312 34 17 C 34 26.38883972167969 26.38883972167969 34 17 34 C 7.611160278320312 34 0 26.38883972167969 0 17 C 0 7.611160278320312 7.611160278320312 0 17 0 Z"/>
    </g>
    <g id="Regular_73" transform="translate(1569.915 494.337)">
      <path id="Shape_368" class="cls-2" d="M109.973,427.3h-5.724l.572-3.3H109.4l.572,3.3Z" transform="translate(-98.524 -410.811)"/>
      <path id="Shape_369" class="cls-3" d="M102,428.32h9.159" transform="translate(-97.992 -411.834)"/>
      <path id="Shape_370" class="cls-3" d="M96.749,421.12h17.173" transform="translate(-96.749 -411.324)"/>
      <path id="Rectangle-path_17" class="cls-2" d="M96.749,409.01a2.29,2.29,0,0,1,2.29-2.29h12.593a2.29,2.29,0,0,1,2.29,2.29v8.609a2.29,2.29,0,0,1-2.29,2.29H99.039a2.29,2.29,0,0,1-2.29-2.29Z" transform="translate(-96.749 -406.72)"/>
    </g>
  </g>
</svg>
