<svg xmlns="http://www.w3.org/2000/svg" xmlns:xlink="http://www.w3.org/1999/xlink" width="979.897" height="772.72" viewBox="0 0 979.897 772.72"><defs><style>.a{fill:#2c2d8b;}.b{fill:url(#a);}.c{fill:#0670ba;}.d{fill:url(#b);}.e{fill:url(#c);}.f{fill:url(#d);}.g{fill:url(#e);}</style><linearGradient id="a" y1="0.338" x2="0.866" y2="0.46" gradientUnits="objectBoundingBox"><stop offset="0" stop-color="#ffd400"/><stop offset="0.704" stop-color="#f89f15"/><stop offset="1" stop-color="#f58220"/></linearGradient><linearGradient id="b" y1="1" x2="0.955" y2="0.256" gradientUnits="objectBoundingBox"><stop offset="0" stop-color="#15bcf2"/><stop offset="0.798" stop-color="#2559ab"/><stop offset="1" stop-color="#2c2d8b"/></linearGradient><linearGradient id="c" y1="0.623" x2="1" y2="0.5" gradientUnits="objectBoundingBox"><stop offset="0" stop-color="#fff"/><stop offset="0.567" stop-color="#378cc8"/><stop offset="1" stop-color="#0670ba"/></linearGradient><linearGradient id="d" x1="1" y1="0.286" x2="0.046" y2="0.5" gradientUnits="objectBoundingBox"><stop offset="0" stop-color="#ffd400"/><stop offset="0.704" stop-color="#faa911"/><stop offset="1" stop-color="#f58220"/></linearGradient><linearGradient id="e" x1="0.881" y1="0.467" x2="0" y2="0.461" gradientUnits="objectBoundingBox"><stop offset="0" stop-color="#15bcf2"/><stop offset="1" stop-color="#2c2d8b"/></linearGradient></defs><g transform="translate(1076.085 196.003) rotate(139)"><path class="a" d="M0,0,125.482,94.685,250.043,30.042Z" transform="translate(0 146.614)"/><path class="b" d="M0,66.281,168.317,193.569,126.464,0Z" transform="translate(125.022 174.818)"/><path class="c" d="M41.88,252.443,343.9,70.563,114.327,0,0,60.744Z" transform="translate(253.318 116.582)"/><path class="d" d="M328.922,95.145,303,0,0,180.672Z" transform="translate(293.528 188.093)"/><path class="e" d="M0,116.466,231.3,186V0Z" transform="translate(363.988 0)"/><path class="a" d="M284.3,213.427,0,185.388V0Z" transform="translate(595.188 0.374)"/><path class="f" d="M0,0,28.736,97.913l257.83-68.889Z" transform="translate(594.541 185.592)"/><path class="g" d="M338.4,146.344,261.191,0,0,67.662Z" transform="translate(622.297 214.08)"/><path class="a" d="M263.485,156.03,206.152,49.716,0,0Z" transform="translate(755.515 311.97)"/></g></svg>