<svg xmlns="http://www.w3.org/2000/svg" width="1932.475" height="890.171" viewBox="0 0 1932.475 890.171"><defs><style>.a{opacity:0.7;}.b{fill:none;stroke:rgba(0,0,140,0.3);}</style></defs><g class="a" transform="translate(1.787 1.344)"><path class="b" d="M0,179.278,237.591,0,475.643,121.1Z" transform="translate(0 434.922)"/><path class="b" d="M0,243.094,317.573,0l-79.7,363.549Z" transform="translate(237.842 190.503)"/><path class="b" d="M79.3,0,651.153,344.376l-437.2,133.347L0,362.968Z" transform="translate(475.539 190.35)"/><path class="b" d="M622.788,161.938l-54.013,183.15L0,0Z" transform="translate(555.774 189.788)"/><path class="b" d="M0,131.664,437.958,0V352.184Z" transform="translate(689.184 535.833)"/><path class="b" d="M538.309,0,0,53.09V404.107Z" transform="translate(1126.945 483.201)"/><path class="b" d="M0,185.391,54.41,0,542.592,130.436Z" transform="translate(1125.719 351.22)"/><path class="b" d="M638.092,0l-151.3,276.2L0,145.807Z" transform="translate(1180.914 205.582)"/><path class="b" d="M498.889,0,388.9,205.133,0,295.431Z" transform="translate(1430.511 0)"/></g></svg>