<svg xmlns="http://www.w3.org/2000/svg" width="604.634" height="313.277" viewBox="0 0 604.634 313.277"><defs><style>.a{opacity:0.75;}.b{fill:none;stroke:#fff;stroke-linecap:round;stroke-linejoin:round;stroke-width:2px;}</style></defs><g class="a" transform="matrix(-0.966, 0.259, -0.259, -0.966, 624.845, 183.835)"><path class="b" d="M0,0,70.727,53.368l70.208-36.436Z" transform="translate(0 82.82)"/><path class="b" d="M0,37.359,94.87,109.1,71.28,0Z" transform="translate(70.468 98.829)"/><path class="b" d="M23.606,142.288,193.839,39.773,64.44,0,0,34.238Z" transform="translate(141.732 65.645)"/><path class="b" d="M185.394,53.628,170.783,0,0,101.834Z" transform="translate(165.641 106.32)"/><path class="b" d="M0,65.646l130.373,39.194V0Z" transform="translate(205.373 0)"/><path class="b" d="M160.246,120.3,0,104.492V0Z" transform="translate(335.936 0.211)"/><path class="b" d="M0,0,16.2,55.188,161.521,16.359Z" transform="translate(335.571 104.839)"/><path class="b" d="M190.736,82.485,147.218,0,0,38.137Z" transform="translate(351.216 120.972)"/><path class="b" d="M148.511,87.945,116.2,28.022,0,0Z" transform="translate(426.303 176.302)"/></g></svg>