<svg xmlns="http://www.w3.org/2000/svg" width="516.612" height="959.669" viewBox="0 0 516.612 959.669"><defs><style>.a{opacity:0.7;}.b{fill:none;stroke:rgba(0,0,140,0.3);}</style></defs><g class="a" transform="translate(569.314 -11.473) rotate(90)"><path class="b" d="M12.934,108.457,126.731,0,253.673,76Z" transform="translate(0 278.398)"/><path class="b" d="M0,155.607,169.394,0,126.881,232.711Z" transform="translate(126.865 121.943)"/><path class="b" d="M42.3,0,347.326,220.439,113.832,305.117,0,232.34Z" transform="translate(253.653 121.845)"/><path class="b" d="M334.038,92.7l-30.653,128.2L0,0Z" transform="translate(296.45 121.485)"/><path class="b" d="M0,84.279,233.607,0V225.436Z" transform="translate(367.611 342.992)"/><path class="b" d="M287.135,0,0,33.983v224.69Z" transform="translate(601.113 309.302)"/><path class="b" d="M0,118.671,30.274-10.049,289.419,83.493Z" transform="translate(600.459 224.82)"/><path class="b" d="M340.359,0,259.653,176.8.857,82.711Z" transform="translate(629.9 131.595)"/><path class="b" d="M196.382,53.552l11.057,77.756L-.75,182.516Z" transform="translate(763.036 0)"/></g></svg>