<svg xmlns="http://www.w3.org/2000/svg" width="16" height="16" viewBox="0 0 16 16">
  <g id="Group_115135" data-name="Group 115135" transform="translate(10167 -6130)">
    <path id="Path_4067" data-name="Path 4067" d="M25.4,17.8a8,8,0,1,0,8,8A8,8,0,0,0,25.4,17.8Zm0,15.05a7.05,7.05,0,1,1,7.05-7.05A7.062,7.062,0,0,1,25.4,32.85Z" transform="translate(-10184.4 6112.2)" fill="#2b2d71"/>
    <path id="Path_4068" data-name="Path 4068" d="M38.943,35.428H35.914V32.4a.5.5,0,1,0-.99,0v3.032H31.9a.5.5,0,0,0,0,.991h3.029v3.032a.5.5,0,1,0,.99,0V36.39h3.029a.511.511,0,0,0,.5-.5A.486.486,0,0,0,38.943,35.428Z" transform="translate(-10194.42 6102.106)" fill="#2b2d71"/>
  </g>
</svg>
