<svg xmlns="http://www.w3.org/2000/svg" width="19" height="21.235" viewBox="0 0 19 21.235">
  <path id="Path_2001" data-name="Path 2001" d="M21.686,6.527a.556.556,0,0,1,.255.252l.008.016q.008.018.015.037A.555.555,0,0,1,22,7.041v3.9a.559.559,0,1,1-1.118,0V7.934L18.338,9.206a.559.559,0,1,1-.5-1l2.353-1.177L17.838,5.853a.559.559,0,1,1,.5-1ZM22,18.195a.559.559,0,0,1-.314.514l-3.348,1.674a.559.559,0,0,1-.5-1l2.353-1.177-2.353-1.177a.559.559,0,1,1,.5-1L20.882,17.3V14.294a.559.559,0,1,1,1.118,0Zm-17.192.011,2.353,1.177a.559.559,0,0,1-.5,1L3.314,18.708a.556.556,0,0,1-.255-.252l-.008-.016q-.008-.018-.015-.037A.555.555,0,0,1,3,18.195v-3.9a.559.559,0,1,1,1.118,0V17.3L6.662,16.03a.559.559,0,1,1,.5,1ZM4.118,7.934v3.008a.559.559,0,1,1-1.118,0v-3.9a.559.559,0,0,1,.314-.514L6.662,4.853a.559.559,0,1,1,.5,1L4.808,7.029,7.162,8.206a.559.559,0,1,1-.5,1Zm8.122-5.87a.56.56,0,0,1,.52,0L16.1,3.735a.559.559,0,0,1-.5,1L13.059,3.463V6.471a.559.559,0,0,1-1.118,0V3.463L9.4,4.735a.559.559,0,0,1-.5-1Zm.52,21.107a.56.56,0,0,1-.52,0L8.9,21.5a.559.559,0,0,1,.5-1l2.544,1.272V18.765a.559.559,0,1,1,1.118,0v3.008L15.6,20.5a.559.559,0,0,1,.5,1Zm.3-11.326v3.008a.559.559,0,0,1-1.118,0V11.845L8.9,10.323a.559.559,0,0,1,.5-1l3.1,1.552,3.1-1.552a.559.559,0,0,1,.5,1Z" transform="translate(-3 -2)" fill="#2b2d71"/>
</svg>
