<svg id="Group_114878" data-name="Group 114878" xmlns="http://www.w3.org/2000/svg" width="18.492" height="18.492" viewBox="0 0 18.492 18.492">
  <g id="Group_114875" data-name="Group 114875">
    <path id="Path_2014" data-name="Path 2014" d="M54.591,62.986H52.9a1.234,1.234,0,0,1-1.223-1.129l-.078-.973a7.427,7.427,0,0,1-1.385-.573l-.742.631a1.227,1.227,0,0,1-1.664-.067l-1.2-1.2a1.234,1.234,0,0,1-.067-1.664l.631-.741a7.408,7.408,0,0,1-.577-1.388l-.967-.076A1.233,1.233,0,0,1,44.5,54.586V52.893a1.234,1.234,0,0,1,1.129-1.223l.97-.078a7.435,7.435,0,0,1,.576-1.385l-.631-.741A1.234,1.234,0,0,1,46.61,47.8l1.2-1.2a1.227,1.227,0,0,1,1.664-.067l.741.631a7.435,7.435,0,0,1,1.385-.576l.078-.97A1.234,1.234,0,0,1,52.9,44.494h1.693a1.233,1.233,0,0,1,1.224,1.131l.076.967a7.409,7.409,0,0,1,1.388.577l.741-.631a1.227,1.227,0,0,1,1.664.067l1.2,1.2a1.234,1.234,0,0,1,.067,1.664l-.631.742a7.431,7.431,0,0,1,.573,1.385l.973.078a1.234,1.234,0,0,1,1.129,1.223v1.693A1.233,1.233,0,0,1,61.86,55.81l-.971.076a7.407,7.407,0,0,1-.573,1.388l.631.742a1.234,1.234,0,0,1-.067,1.664l-1.2,1.2a1.227,1.227,0,0,1-1.664.067l-.742-.631a7.4,7.4,0,0,1-1.388.573l-.076.971A1.234,1.234,0,0,1,54.591,62.986ZM50.16,59.343a.436.436,0,0,1,.223.061,6.554,6.554,0,0,0,1.732.717.437.437,0,0,1,.328.389l.1,1.277a.355.355,0,0,0,.352.325h1.693a.355.355,0,0,0,.352-.325l.1-1.276a.437.437,0,0,1,.328-.39,6.534,6.534,0,0,0,1.735-.717.437.437,0,0,1,.507.043l.974.83a.353.353,0,0,0,.479-.019l1.2-1.2a.355.355,0,0,0,.019-.479l-.83-.974a.437.437,0,0,1-.043-.507,6.535,6.535,0,0,0,.717-1.735.437.437,0,0,1,.39-.328l1.276-.1a.355.355,0,0,0,.326-.352V52.893a.355.355,0,0,0-.325-.352l-1.277-.1a.437.437,0,0,1-.389-.328,6.556,6.556,0,0,0-.717-1.732.437.437,0,0,1,.043-.507l.83-.974a.355.355,0,0,0-.019-.479l-1.2-1.2a.353.353,0,0,0-.479-.019l-.974.83a.437.437,0,0,1-.507.043,6.54,6.54,0,0,0-1.735-.72.437.437,0,0,1-.328-.389l-.1-1.273a.355.355,0,0,0-.352-.325H52.9a.355.355,0,0,0-.352.325l-.1,1.274a.437.437,0,0,1-.328.389,6.56,6.56,0,0,0-1.732.72.437.437,0,0,1-.507-.043L48.9,47.2a.353.353,0,0,0-.479.019l-1.2,1.2a.355.355,0,0,0-.019.479l.83.974a.437.437,0,0,1,.043.507,6.559,6.559,0,0,0-.72,1.732.437.437,0,0,1-.389.328l-1.274.1a.355.355,0,0,0-.325.352v1.693a.355.355,0,0,0,.325.352l1.273.1a.437.437,0,0,1,.389.328,6.537,6.537,0,0,0,.72,1.735.437.437,0,0,1-.043.507l-.83.974a.355.355,0,0,0,.019.479l1.2,1.2a.353.353,0,0,0,.479.019l.974-.83A.437.437,0,0,1,50.16,59.343Z" transform="translate(-44.499 -44.494)" fill="#2b2d71"/>
  </g>
  <g id="Group_114876" data-name="Group 114876" transform="translate(4.218 4.219)">
    <path id="Path_2015" data-name="Path 2015" d="M146.02,151.046a5.026,5.026,0,1,1,5.026-5.026A5.032,5.032,0,0,1,146.02,151.046Zm0-9.177a4.152,4.152,0,1,0,4.152,4.152A4.156,4.156,0,0,0,146.02,141.868Z" transform="translate(-140.994 -140.994)" fill="#2b2d71"/>
  </g>
  <g id="Group_114877" data-name="Group 114877" transform="translate(6.345 6.345)">
    <path id="Path_2016" data-name="Path 2016" d="M192.542,195.445a2.9,2.9,0,1,1,2.9-2.9A2.9,2.9,0,0,1,192.542,195.445Zm0-4.927a2.027,2.027,0,1,0,2.028,2.025A2.027,2.027,0,0,0,192.542,190.517Z" transform="translate(-189.643 -189.643)" fill="#2b2d71"/>
  </g>
</svg>
