<svg id="Group_114865" data-name="Group 114865" xmlns="http://www.w3.org/2000/svg" width="20.111" height="23.373" viewBox="0 0 20.111 23.373">
  <path id="Path_1997" data-name="Path 1997" d="M29.051,14.076l-2.069-3.153a.712.712,0,0,1-.1-.345A8.859,8.859,0,0,0,9.2,11.366,10.09,10.09,0,0,0,12.722,18.9a.415.415,0,0,1,.148.271v4.68a1.4,1.4,0,0,0,1.281,1.4l7.019.616h.123a1.425,1.425,0,0,0,.961-.369,1.4,1.4,0,0,0,.468-1.034v-2.98h2.167a2.081,2.081,0,0,0,2.069-2.069V16.539h.764a1.578,1.578,0,0,0,1.4-.837A1.6,1.6,0,0,0,29.051,14.076Zm-1.158.985a.2.2,0,0,1-.2.123H26.49a.962.962,0,0,0-.961.961v3.3a.688.688,0,0,1-.69.69H22.377a1.093,1.093,0,0,0-1.084,1.084l-.025,3.325-7.044-.64v-4.68a1.746,1.746,0,0,0-.616-1.33,8.79,8.79,0,0,1-3.029-6.5A7.484,7.484,0,0,1,18.066,3.9,7.4,7.4,0,0,1,25.5,10.7a2.192,2.192,0,0,0,.3.936l2.093,3.177A.282.282,0,0,1,27.894,15.061Z" transform="translate(-9.2 -2.5)" fill="#454545"/>
  <path id="Path_1998" data-name="Path 1998" d="M35.286,19a1.475,1.475,0,0,0-1.355.936H32.208a.494.494,0,0,0-.493.493v1.478H29.893a.493.493,0,1,0,0,.985h2.315A.494.494,0,0,0,32.7,22.4V20.921h1.231a1.425,1.425,0,0,0,1.355.936A1.456,1.456,0,0,0,36.739,20.4,1.4,1.4,0,0,0,35.286,19Zm0,1.872a.443.443,0,1,1,.443-.443A.441.441,0,0,1,35.286,20.872Z" transform="translate(-24.425 -14.936)" fill="#454545"/>
  <path id="Path_1999" data-name="Path 1999" d="M31.518,36a1.475,1.475,0,0,0-1.355.936H24.893a.493.493,0,0,0,0,.985h5.3a1.425,1.425,0,0,0,1.355.936A1.456,1.456,0,0,0,33,37.4,1.486,1.486,0,0,0,31.518,36Zm0,1.9a.443.443,0,1,1,.443-.443A.441.441,0,0,1,31.518,37.9Z" transform="translate(-20.656 -27.749)" fill="#454545"/>
  <path id="Path_2000" data-name="Path 2000" d="M35.286,49.934a1.475,1.475,0,0,0-1.355.936H32.7V49.393a.494.494,0,0,0-.493-.493H29.893a.493.493,0,1,0,0,.985h1.823v1.478a.494.494,0,0,0,.493.493h1.724a1.425,1.425,0,0,0,1.355.936,1.456,1.456,0,0,0,1.453-1.453A1.4,1.4,0,0,0,35.286,49.934Zm0,1.872a.443.443,0,1,1,.443-.443A.441.441,0,0,1,35.286,51.806Z" transform="translate(-24.425 -37.472)" fill="#454545"/>
</svg>
