<svg xmlns="http://www.w3.org/2000/svg" width="18" height="18" viewBox="0 0 18 18">
  <g id="Group_115076" data-name="Group 115076" transform="translate(-3967.88 139)">
    <path id="Path_2013" data-name="Path 2013" d="M27.813,22.975l1.35-1.35H34V16H28.375v4.838l-1.35,1.35h-4.05l-1.35-1.35V16H16v5.625h4.838l1.35,1.35v4.05l-1.35,1.35H16V34h5.625V29.163l1.35-1.35h4.05l1.35,1.35V34H34V28.375H29.163l-1.35-1.35Zm1.688-5.85h3.375V20.5H29.5Zm-12.375,0H20.5V20.5H17.125ZM20.5,32.875H17.125V29.5H20.5Zm6.188-6.187H23.313V23.313h3.375Zm6.188,6.188H29.5V29.5h3.375Z" transform="translate(3951.88 -155)" fill="#454545"/>
  </g>
</svg>
