<svg xmlns="http://www.w3.org/2000/svg" width="19.248" height="19.02" viewBox="0 0 19.248 19.02">
  <g id="Group_115077" data-name="Group 115077" transform="translate(-3966.556 91.25)">
    <path id="Path_2008" data-name="Path 2008" d="M13.612,55.635h6.011a1.614,1.614,0,0,0,1.612-1.612v-6.01A1.614,1.614,0,0,0,19.623,46.4H13.612A1.614,1.614,0,0,0,12,48.012v6.01A1.614,1.614,0,0,0,13.612,55.635Zm-1.09-7.623a1.092,1.092,0,0,1,1.09-1.09h6.011a1.092,1.092,0,0,1,1.09,1.09v6.01a1.092,1.092,0,0,1-1.09,1.09H13.612a1.092,1.092,0,0,1-1.09-1.09Z" transform="translate(3954.806 -128.115)" fill="#454545" stroke="#484848" stroke-width="0.5"/>
    <path id="Path_2010" data-name="Path 2010" d="M48.705,15.812v4.807a1.614,1.614,0,0,0,1.612,1.612h4.807a1.614,1.614,0,0,0,1.612-1.612V15.812A1.614,1.614,0,0,0,55.124,14.2H50.317A1.614,1.614,0,0,0,48.705,15.812Zm.522,0a1.092,1.092,0,0,1,1.09-1.09h4.807a1.092,1.092,0,0,1,1.091,1.09v4.807a1.092,1.092,0,0,1-1.091,1.09H50.317a1.092,1.092,0,0,1-1.09-1.09Z" transform="translate(3928.817 -105.2)" fill="#454545" stroke="#484848" stroke-width="0.5"/>
    <path id="Path_2012" data-name="Path 2012" d="M48.705,15.812v4.807a1.614,1.614,0,0,0,1.612,1.612h4.807a1.614,1.614,0,0,0,1.612-1.612V15.812A1.614,1.614,0,0,0,55.124,14.2H50.317A1.614,1.614,0,0,0,48.705,15.812Zm.522,0a1.092,1.092,0,0,1,1.09-1.09h4.807a1.092,1.092,0,0,1,1.091,1.09v4.807a1.092,1.092,0,0,1-1.091,1.09H50.317a1.092,1.092,0,0,1-1.09-1.09Z" transform="translate(3928.817 -95.915)" fill="#454545" stroke="#484848" stroke-width="0.5"/>
    <path id="Path_2011" data-name="Path 2011" d="M22.927,14.2H18.12a1.614,1.614,0,0,0-1.612,1.612v4.807a1.614,1.614,0,0,0,1.612,1.612h4.807a1.614,1.614,0,0,0,1.612-1.612V15.812A1.614,1.614,0,0,0,22.927,14.2Zm1.09,6.419a1.092,1.092,0,0,1-1.09,1.09H18.12a1.092,1.092,0,0,1-1.091-1.09V15.812a1.092,1.092,0,0,1,1.091-1.09h4.807a1.092,1.092,0,0,1,1.09,1.09Z" transform="translate(3951.498 -105.2)" fill="#454545" stroke="#484848" stroke-width="0.5"/>
  </g>
</svg>
