<svg id="Layer_1" data-name="Layer 1" xmlns="http://www.w3.org/2000/svg" width="13.926" height="20.522" viewBox="0 0 13.926 20.522">
  <path id="Path_1991" data-name="Path 1991" d="M24.844,17.559h.366a3.844,3.844,0,0,0,3.852-3.844V7.851A3.844,3.844,0,0,0,25.218,4h-.366A3.844,3.844,0,0,0,21,7.844v5.863a3.844,3.844,0,0,0,3.844,3.852ZM22.466,7.844a2.382,2.382,0,0,1,2.378-2.378h.366A2.382,2.382,0,0,1,27.6,7.844v5.863a2.382,2.382,0,0,1-2.378,2.386h-.366a2.382,2.382,0,0,1-2.386-2.378Z" transform="translate(-18.068 -4)" fill="#454545"/>
  <path id="Path_1992" data-name="Path 1992" d="M26.926,28.733a.733.733,0,0,0-1.466,0,5.5,5.5,0,0,1-10.994,0,.733.733,0,0,0-1.466,0,6.962,6.962,0,0,0,6.228,6.922.34.34,0,0,1,0,.04v2.565H16.665a.733.733,0,0,0,0,1.466h6.963a.733.733,0,0,0,0-1.466H20.7V35.655A6.963,6.963,0,0,0,26.926,28.733Z" transform="translate(-13 -19.205)" fill="#454545"/>
</svg>
