<svg xmlns="http://www.w3.org/2000/svg" width="32" height="32" viewBox="0 0 32 32">
  <defs>
    <style>
      .cls-1 {
        fill: rgba(255,255,255,0);
      }

      .cls-2 {
        fill: #1c5dd8;
      }
    </style>
  </defs>
  <g id="Back" transform="translate(-31 -42)">
    <rect id="Box" class="cls-1" width="32" height="32" transform="translate(31 42)"/>
    <path id="Path_2097" data-name="Path 2097" class="cls-2" d="M-3840.308-7970.427l-7.222-6.572a1.3,1.3,0,0,1,0-2l7.222-6.571a1.5,1.5,0,0,1,1.1-.429,1.491,1.491,0,0,1,1.1.429,1.3,1.3,0,0,1,0,2l-4.75,4.323h14.177a1.386,1.386,0,0,1,1.385,1.386,1.386,1.386,0,0,1-1.385,1.386h-13.876l4.449,4.05a1.3,1.3,0,0,1,0,2,1.628,1.628,0,0,1-1.1.427A1.632,1.632,0,0,1-3840.308-7970.427Z" transform="translate(3885.001 8036)"/>
  </g>
</svg>
