<svg xmlns="http://www.w3.org/2000/svg" width="18.668" height="12" viewBox="0 0 18.668 12">
  <defs>
    <style>
      .cls-1 {
        fill: #1c5dd8;
      }
    </style>
  </defs>
  <g id="Icon_ionic-ios-eye" data-name="Icon ionic-ios-eye" transform="translate(-2.252 -7.875)">
    <path id="Path_3767" data-name="Path 3767" class="cls-1" d="M11.576,7.875c-3.35,0-5.992,2.108-9.15,5.554a.659.659,0,0,0,0,.887c2.7,2.987,5.088,5.558,9.154,5.558,4.017,0,7.029-3.238,9.171-5.583a.654.654,0,0,0,.021-.863C18.584,10.783,15.563,7.875,11.576,7.875Zm.183,9.746A3.75,3.75,0,1,1,15.33,14.05,3.752,3.752,0,0,1,11.759,17.621Z" transform="translate(0 0)"/>
    <path id="Path_3768" data-name="Path 3768" class="cls-1" d="M16.167,14.208a1.958,1.958,0,0,1,.129-.7c-.042,0-.083,0-.129,0a2.666,2.666,0,1,0,2.667,2.667c0-.054,0-.108,0-.163a1.848,1.848,0,0,1-.758.163A1.934,1.934,0,0,1,16.167,14.208Z" transform="translate(-4.583 -2.292)"/>
  </g>
</svg>
