<svg xmlns="http://www.w3.org/2000/svg" xmlns:xlink="http://www.w3.org/1999/xlink" width="298" height="218" viewBox="0 0 298 218">
  <defs>
    <style>
      .cls-1 {
        fill: #fff;
      }

      .cls-2 {
        fill: #8cadeb;
      }

      .cls-3 {
        filter: url(#Rectangle_34451);
      }
    </style>
    <filter id="Rectangle_34451" x="0" y="0" width="298" height="218" filterUnits="userSpaceOnUse">
      <feOffset dx="2" input="SourceAlpha"/>
      <feGaussianBlur stdDeviation="3" result="blur"/>
      <feFlood flood-opacity="0.161"/>
      <feComposite operator="in" in2="blur"/>
      <feComposite in="SourceGraphic"/>
    </filter>
  </defs>
  <g id="Group_114885" data-name="Group 114885" transform="translate(-306 -331)">
    <g class="cls-3" transform="matrix(1, 0, 0, 1, 306, 331)">
      <rect id="Rectangle_34451-2" data-name="Rectangle 34451" class="cls-1" width="280" height="200" rx="4" transform="translate(7 9)"/>
    </g>
    <g id="Icon_ionic-ios-image" data-name="Icon ionic-ios-image" transform="translate(440 426)">
      <path id="Path_3757" data-name="Path 3757" class="cls-2" d="M7.875,20.725h11.98a.35.35,0,0,0,.283-.553l-5.993-9.637a.346.346,0,0,0-.572,0L7.586,20.173A.352.352,0,0,0,7.875,20.725Z" transform="translate(-3.817 -4.122)"/>
      <path id="Path_3758" data-name="Path 3758" class="cls-2" d="M21.557,17.575l2.2,3.5a.34.34,0,0,0,.283.151h3.342a.35.35,0,0,0,.283-.553l-3.87-5.509a.346.346,0,0,0-.572,0l-1.671,2.017A.362.362,0,0,0,21.557,17.575Z" transform="translate(-5.306 -4.615)"/>
      <path id="Path_3759" data-name="Path 3759" class="cls-2" d="M24.456,11.387a1.759,1.759,0,1,0-1.929-1.929A1.765,1.765,0,0,0,24.456,11.387Z" transform="translate(-5.415 -3.855)"/>
      <path id="Path_3760" data-name="Path 3760" class="cls-2" d="M27.5,3.375H5.385a2.008,2.008,0,0,0-2.01,2.01V27.5a2.008,2.008,0,0,0,2.01,2.01H27.5a2.008,2.008,0,0,0,2.01-2.01V5.385A2.008,2.008,0,0,0,27.5,3.375Zm-.17,17.59a.5.5,0,0,1-.5.5H6.057a.5.5,0,0,1-.5-.5V6.057a.5.5,0,0,1,.5-.5H26.832a.5.5,0,0,1,.5.5V20.965Z" transform="translate(-3.375 -3.375)"/>
    </g>
  </g>
</svg>
