<svg id="Component_244_20" data-name="Component 244 – 20" xmlns="http://www.w3.org/2000/svg" width="19.24" height="16.837" viewBox="0 0 19.24 16.837">
  <g id="Group_115254" data-name="Group 115254">
    <path id="Path_4132" data-name="Path 4132" d="M6.894,0a.576.576,0,0,0-.477.562V2.82H.98A1.049,1.049,0,0,0,0,3.928V15.721a1.057,1.057,0,0,0,.98,1.116H18.252a1.064,1.064,0,0,0,.988-1.116V3.928a1.056,1.056,0,0,0-.988-1.108H12.824V.562A.575.575,0,0,0,12.287,0Zm.588,1.125h4.278v1.7H7.481v-1.7ZM1.065,3.937h17.1V8.674l-2.292,1.432H3.366l-2.3-1.432V3.937Zm7.7,3.928a.565.565,0,0,0-.511.588.574.574,0,0,0,.562.537h1.6a.576.576,0,0,0,.545-.562.57.57,0,0,0-.545-.562H8.768Zm-7.7,2.113,1.883,1.176a.561.561,0,0,0,.264.077H9.083v4.482H1.065V9.978Zm17.1,0v5.735h-8.01V11.231h5.871a.529.529,0,0,0,.273-.077l1.866-1.176Z" fill="#2c2d71"/>
  </g>
</svg>
