<svg xmlns="http://www.w3.org/2000/svg" width="17.985" height="17.985" viewBox="0 0 17.985 17.985">
  <g id="Group_115527" data-name="Group 115527" transform="translate(-4369.66 -469)">
    <path id="Path_4185" data-name="Path 4185" d="M21.759,22.254h-7.6a.5.5,0,0,1-.495-.495v-4.9a3.217,3.217,0,0,1,3.2-3.2h4.9a.5.5,0,0,1,.495.495v7.6A.5.5,0,0,1,21.759,22.254Zm-7.109-.99h6.614V14.65h-4.4a2.227,2.227,0,0,0-2.212,2.212Z" transform="translate(4356 455.34)" fill="#2b2d71"/>
    <path id="Path_4186" data-name="Path 4186" d="M59.709,22.254H52.1a.5.5,0,0,1-.495-.495v-7.6a.5.5,0,0,1,.495-.495H57a3.217,3.217,0,0,1,3.2,3.2v4.9A.5.5,0,0,1,59.709,22.254Zm-7.109-.99h6.614v-4.4A2.227,2.227,0,0,0,57,14.65H52.6Z" transform="translate(4327.441 455.34)" fill="#2b2d71"/>
    <path id="Path_4187" data-name="Path 4187" d="M21.759,60.2h-4.9a3.217,3.217,0,0,1-3.2-3.2V52.1a.5.5,0,0,1,.495-.495h7.6a.5.5,0,0,1,.495.495v7.6A.5.5,0,0,1,21.759,60.2ZM14.65,52.6V57a2.227,2.227,0,0,0,2.212,2.212h4.4V52.6Z" transform="translate(4356 426.781)" fill="#2b2d71"/>
    <path id="Path_4188" data-name="Path 4188" d="M55.905,60.2A4.3,4.3,0,1,1,60.2,55.905,4.3,4.3,0,0,1,55.905,60.2Zm0-7.6a3.308,3.308,0,1,0,3.3,3.313,3.308,3.308,0,0,0-3.3-3.313Z" transform="translate(4327.449 426.789)" fill="#2b2d71"/>
  </g>
</svg>
