<svg xmlns="http://www.w3.org/2000/svg" width="22.057" height="19.183" viewBox="0 0 22.057 19.183">
  <g id="Component_238_18" data-name="Component 238 – 18" transform="translate(0.25 0.25)">
    <g id="Group_115248" data-name="Group 115248" transform="translate(0 0)">
      <g id="Group_115247" data-name="Group 115247" transform="translate(0 0)">
        <path id="Path_4125" data-name="Path 4125" d="M18.682,2.874v-1.8A1.081,1.081,0,0,0,17.6,0H1.084A1.075,1.075,0,0,0,0,1.073V12.579a1.081,1.081,0,0,0,1.084,1.073H7.724l-.5,2.017a.19.19,0,0,1-.178.139H6.111a.365.365,0,0,0-.363.359.357.357,0,0,0,.358.359h6.109v-.719H11.64a.19.19,0,0,1-.178-.139l-.5-2.017h1.257v-.719H1.085a.365.365,0,0,1-.366-.365v-1.79h11.5V10.06H.719V1.084A.364.364,0,0,1,1.085.719H17.6a.365.365,0,0,1,.366.365v1.79ZM8.472,13.653h1.739l.539,2.156H7.933Z" fill="#2b2d71" stroke="#2c2d71" stroke-width="0.5" fill-rule="evenodd"/>
        <path id="Path_4126" data-name="Path 4126" d="M19.082,5h6.459a1.077,1.077,0,0,1,1.082,1.082V19.008a1.079,1.079,0,0,1-1.082,1.082H19.082A1.077,1.077,0,0,1,18,19.008V6.082A1.079,1.079,0,0,1,19.082,5Zm-.363,11.5H25.9v-7.9H18.719Zm0-10.422a.356.356,0,0,1,.358-.357h6.469a.358.358,0,0,1,.358.357v2.8H18.719Zm0,12.939a.358.358,0,0,0,.358.357h6.469a.356.356,0,0,0,.358-.357v-1.8H18.719Z" transform="translate(-5.066 -1.407)" fill="#2b2d71" stroke="#2b2d71" stroke-width="0.5" fill-rule="evenodd"/>
        <path id="Path_4127" data-name="Path 4127" d="M13.653,7.163c1.852,0,6.677,0,6.677,0" transform="translate(0.25)" fill="none" stroke="#e8e8f0" stroke-width="2"/>
      </g>
    </g>
  </g>
</svg>
