<svg xmlns="http://www.w3.org/2000/svg" width="19.933" height="19.472" viewBox="0 0 19.933 19.472">
  <g id="Component_240_19" data-name="Component 240 – 19" transform="translate(0.15 0.15)">
    <g id="Group_115251" data-name="Group 115251">
      <path id="Path_4128" data-name="Path 4128" d="M5.86,6.416a.4.4,0,0,1,.284.741q-.384.147-.752.332A8.344,8.344,0,0,0,.879,16.137a.4.4,0,1,1-.785.113A9.138,9.138,0,0,1,5.036,6.78Q5.439,6.577,5.86,6.416ZM3.5,22.126a.4.4,0,1,1,.489-.625,8.332,8.332,0,0,0,10.316-.044.4.4,0,0,1,.494.621,9.125,9.125,0,0,1-11.3.048Zm2.2-.79a.4.4,0,0,1-.316.463l-1.362.258.123,1.462a.4.4,0,0,1-.791.067l-.153-1.819a.4.4,0,0,1,.322-.423L5.24,21.02A.4.4,0,0,1,5.7,21.336ZM12.228,6.357a9.126,9.126,0,0,1,6.018,8.581q0,.342-.025.681l.746-.558a.4.4,0,1,1,.475.635l-1.461,1.094a.4.4,0,0,1-.529-.049l-1.183-1.281a.4.4,0,1,1,.583-.538l.579.627q.022-.3.022-.61A8.333,8.333,0,0,0,11.958,7.1a.4.4,0,0,1,.27-.746ZM4.081,5.878A.4.4,0,0,1,4.6,5.665h0l1.609.673a.4.4,0,0,1,.227.481h0L5.907,8.566a.4.4,0,1,1-.759-.229h0l.424-1.4L4.294,6.4A.4.4,0,0,1,4.081,5.878Z" transform="translate(0 -4.889)" fill="#454545" stroke="#444544" stroke-width="0.3"/>
      <path id="Path_4129" data-name="Path 4129" d="M9.991,3.438A1.719,1.719,0,1,0,8.272,1.719,1.719,1.719,0,0,0,9.991,3.438Zm7.537,9.123a1.719,1.719,0,1,1-1.719,1.719A1.719,1.719,0,0,1,17.527,12.561Zm-14.809,0A1.719,1.719,0,1,1,1,14.28,1.719,1.719,0,0,1,2.719,12.561Zm14.809.793a.926.926,0,1,0,.926.926A.926.926,0,0,0,17.527,13.354Zm-14.809,0a.926.926,0,1,0,.926.926A.926.926,0,0,0,2.719,13.354ZM9.991.793a.926.926,0,1,1-.926.926A.926.926,0,0,1,9.991.793Z" transform="translate(-0.868)" fill="#454545" stroke="#444544" stroke-width="0.3"/>
      <path id="Path_4130" data-name="Path 4130" d="M34.473,47.724l-.848-.071a.4.4,0,0,1-.337-.254A4.667,4.667,0,0,1,33,46.168a.4.4,0,0,1,.194-.378l.726-.427a3.755,3.755,0,0,1,.222-.956l-.465-.694a.4.4,0,0,1-.009-.428,4.76,4.76,0,0,1,.8-.986.4.4,0,0,1,.413-.082l.8.3a3.861,3.861,0,0,1,.854-.4l.256-.8a.4.4,0,0,1,.325-.272,4.884,4.884,0,0,1,1.285,0,.4.4,0,0,1,.325.272l.256.8a3.861,3.861,0,0,1,.854.4l.8-.3a.4.4,0,0,1,.413.082,4.76,4.76,0,0,1,.8.986.4.4,0,0,1-.009.428l-.465.694a3.755,3.755,0,0,1,.222.956l.726.427a.4.4,0,0,1,.194.378,4.667,4.667,0,0,1-.285,1.231.4.4,0,0,1-.337.254l-.848.071a3.835,3.835,0,0,1-.608.748l.117.828a.4.4,0,0,1-.177.388,4.78,4.78,0,0,1-1.159.548.4.4,0,0,1-.408-.105l-.585-.617a3.948,3.948,0,0,1-.935,0l-.585.617a.4.4,0,0,1-.408.105,4.78,4.78,0,0,1-1.159-.548.4.4,0,0,1-.177-.388l.117-.828A3.835,3.835,0,0,1,34.473,47.724Zm.272-.773a.4.4,0,0,1,.315.205,3.041,3.041,0,0,0,.7.861.4.4,0,0,1,.136.358l-.11.778a3.987,3.987,0,0,0,.522.247l.55-.58a.4.4,0,0,1,.357-.118,3.145,3.145,0,0,0,1.089,0,.4.4,0,0,1,.357.118l.55.58a3.987,3.987,0,0,0,.522-.247l-.11-.778a.4.4,0,0,1,.136-.358,3.041,3.041,0,0,0,.7-.861.4.4,0,0,1,.315-.205l.8-.067a3.871,3.871,0,0,0,.126-.543l-.682-.4a.4.4,0,0,1-.2-.327,2.966,2.966,0,0,0-.253-1.092.4.4,0,0,1,.033-.382l.436-.651a3.967,3.967,0,0,0-.358-.439l-.75.285a.4.4,0,0,1-.372-.048,3.068,3.068,0,0,0-.989-.468.4.4,0,0,1-.275-.262l-.241-.753q-.145-.01-.292-.01t-.292.01l-.241.753a.4.4,0,0,1-.275.262,3.068,3.068,0,0,0-.989.468.4.4,0,0,1-.372.048l-.75-.285a3.968,3.968,0,0,0-.358.439l.436.651a.4.4,0,0,1,.033.382,2.965,2.965,0,0,0-.253,1.092.4.4,0,0,1-.2.327l-.682.4a3.87,3.87,0,0,0,.126.543Zm3.081,1.189a2.381,2.381,0,1,1,2.314-2.38A2.348,2.348,0,0,1,37.826,48.14Zm0-.793a1.588,1.588,0,1,0-1.521-1.587A1.555,1.555,0,0,0,37.826,47.347Z" transform="translate(-28.637 -35.579)" fill="#454545" stroke="#444544" stroke-width="0.3"/>
    </g>
  </g>
</svg>
