<svg id="Component_239_19" data-name="Component 239 – 19" xmlns="http://www.w3.org/2000/svg" width="14.925" height="18.716" viewBox="0 0 14.925 18.716">
  <g id="Group_114869" data-name="Group 114869">
    <g id="Group_114868" data-name="Group 114868">
      <path id="Path_2002" data-name="Path 2002" d="M185.757,110.751a13.914,13.914,0,0,0,3.773-2.408,10.4,10.4,0,0,0,2.721-3.613,7.533,7.533,0,0,0,.6-2.33c.036-.413.022-.83.022-1.244V96.35c0-.395.013-.794,0-1.189v-.013a.685.685,0,0,0-.491-.644l-2.317-.8q-1.826-.632-3.65-1.267c-.27-.094-.537-.2-.812-.281a1.541,1.541,0,0,0-.883.176l-3.5,1.211-2.734.948c-.016,0-.029.011-.045.016a.69.69,0,0,0-.491.644v4.134c0,.87,0,1.739,0,2.609a6.883,6.883,0,0,0,.384,2.237,10.016,10.016,0,0,0,2.558,3.842,14.073,14.073,0,0,0,3.722,2.578c.152.071.308.14.462.207a.726.726,0,0,0,.515.067.669.669,0,0,0,.466-.823.634.634,0,0,0-.308-.4,13.522,13.522,0,0,1-2.874-1.675c-.022-.016-.118-.091-.025-.02s0,0-.025-.02c-.058-.045-.114-.091-.169-.136q-.171-.137-.334-.281c-.221-.192-.433-.39-.638-.6s-.4-.417-.591-.638c-.089-.1-.178-.212-.263-.321-.013-.018-.027-.036-.04-.051-.045-.056.06.08.054.069a.661.661,0,0,0-.06-.078l-.127-.172a8.473,8.473,0,0,1-.934-1.648l.067.161a6.758,6.758,0,0,1-.466-1.679c.009.06.016.118.025.178a9.473,9.473,0,0,1-.054-1.233v-6.3l-.491.644,2.3-.8,3.659-1.269c.279-.1.557-.192.834-.29h-.357l2.3.8,3.657,1.269c.279.1.555.192.834.29l-.491-.644v6.092a11.167,11.167,0,0,1-.054,1.445c.009-.06.016-.118.025-.178a6.759,6.759,0,0,1-.466,1.679l.067-.161a8.386,8.386,0,0,1-.8,1.461c-.08.118-.163.234-.25.348-.02.027-.04.054-.06.078-.042.056.062-.078.054-.069s-.027.036-.04.051c-.045.056-.089.112-.136.167-.183.223-.377.439-.578.649a12.644,12.644,0,0,1-1.282,1.16.436.436,0,0,0-.078.062c-.007.009.125-.1.069-.054l-.04.031-.187.14c-.116.085-.234.169-.352.25-.23.158-.466.31-.7.455a13.228,13.228,0,0,1-1.641.841.669.669,0,0,0,.158,1.222A.879.879,0,0,0,185.757,110.751Z" transform="translate(-177.955 -92.129)" fill="#454545"/>
    </g>
  </g>
  <g id="Group_114871" data-name="Group 114871" transform="translate(3.611 5.822)">
    <g id="Group_114870" data-name="Group 114870" transform="translate(0)">
      <path id="Path_2003" data-name="Path 2003" d="M327.638,356.364l2.156,2.156.308.308a.677.677,0,0,0,.945,0l1.521-1.521,2.406-2.406.555-.555a.669.669,0,0,0-.946-.946l-1.521,1.521-2.406,2.406-.555.555h.945l-2.156-2.156-.308-.308a.669.669,0,0,0-.946.946Z" transform="translate(-327.447 -353.209)" fill="#454545"/>
    </g>
  </g>
</svg>
