<svg xmlns="http://www.w3.org/2000/svg" width="21.927" height="24.447" viewBox="0 0 21.927 24.447">
  <path id="Path_4131" data-name="Path 4131" d="M22.452,959.363a1.921,1.921,0,0,0-.275,3.824c0,.009,0,.017,0,.026v3.575q0,.009,0,.017a4.391,4.391,0,0,0-3.369,1.925c-.011.016-.015.036-.026.052a.272.272,0,0,0-.034-.026l-3-1.908a1.909,1.909,0,1,0-.241.49l2.948,1.882a.275.275,0,0,0,.043.034,4.386,4.386,0,0,0,.009,3.875.276.276,0,0,0-.052.026l-2.973,1.89a1.966,1.966,0,1,0,.249.49l3.016-1.916.034-.017a4.39,4.39,0,0,0,3.394,1.968q0,.008,0,.017v3.575q0,.013,0,.026a1.925,1.925,0,1,0,.55,0q0-.013,0-.026v-3.575q0-.009,0-.017a4.39,4.39,0,0,0,3.394-1.968l.034.017,3.016,1.916a1.889,1.889,0,1,0,.249-.49l-2.973-1.89a.276.276,0,0,0-.052-.026,4.386,4.386,0,0,0,.009-3.875.275.275,0,0,0,.043-.034l2.948-1.882a1.943,1.943,0,1,0-.241-.49l-3,1.908a.272.272,0,0,0-.034.026,4.385,4.385,0,0,0-3.394-1.976q0-.009,0-.017v-3.575c0-.009,0-.017,0-.026a1.921,1.921,0,0,0-.275-3.824Zm0,.55a1.375,1.375,0,1,1-1.375,1.375A1.371,1.371,0,0,1,22.452,959.913Zm-8.619,4.949a1.378,1.378,0,1,1-1.1.688,1.383,1.383,0,0,1,1.1-.687Zm17.239,0a1.378,1.378,0,1,1-.782.181A1.365,1.365,0,0,1,31.072,964.862Zm-8.619,2.475a3.849,3.849,0,1,1-3.85,3.849,3.937,3.937,0,0,1,.017-.4A3.847,3.847,0,0,1,22.452,967.337Zm-8.43,7.476a1.378,1.378,0,1,1-1.289,2.062,1.387,1.387,0,0,1,1.289-2.062Zm16.86,0a1.378,1.378,0,1,1-1.1.687A1.372,1.372,0,0,1,30.883,974.812Zm-8.43,4.9a1.375,1.375,0,1,1-1.375,1.375A1.371,1.371,0,0,1,22.452,979.71Z" transform="translate(-11.489 -958.963)" fill="#ccc" stroke="#ccc" stroke-width="0.8"/>
</svg>
