<svg xmlns="http://www.w3.org/2000/svg" width="21.04" height="20.815" viewBox="0 0 21.04 20.815">
  <g id="Group_115463" data-name="Group 115463" transform="translate(-319.6 8064.4)">
    <path id="Path_4133" data-name="Path 4133" d="M23.352,16.068a1.244,1.244,0,1,0-.415,0v3.008l2.3,1.95V31.251h.415V20.818l-2.3-1.95Zm-1.037-1.2a.83.83,0,1,1,.83.83A.832.832,0,0,1,22.315,14.865Z" transform="translate(301.402 -8075.236)" fill="#454545" stroke="#ccc" stroke-width="0.8"/>
    <path id="Path_4134" data-name="Path 4134" d="M62.717,4.668a1.244,1.244,0,1,0-.415,0V9.833L60,11.783V22.215h.415V11.99l2.3-1.95ZM61.7,3.444a.83.83,0,1,1,.83.83A.832.832,0,0,1,61.7,3.444Z" transform="translate(273.205 -8066.2)" fill="#454545" stroke="#ccc" stroke-width="0.8"/>
    <path id="Path_4135" data-name="Path 4135" d="M45.244,33.5a1.243,1.243,0,0,0-.207,2.468V47.023h.415V35.968a1.243,1.243,0,0,0-.207-2.468Zm0,2.074a.83.83,0,1,1,.83-.83A.832.832,0,0,1,45.244,35.574Z" transform="translate(284.886 -8091.008)" fill="#454545" stroke="#ccc" stroke-width="0.8"/>
    <path id="Path_4136" data-name="Path 4136" d="M13.289,44.144a1.244,1.244,0,1,0-1.244,1.244,1.141,1.141,0,0,0,.726-.249l1.348,1.037v8.3h.415v-8.5l-1.473-1.12A1.242,1.242,0,0,0,13.289,44.144Zm-1.244.83a.83.83,0,1,1,.83-.83A.832.832,0,0,1,12.044,44.974Z" transform="translate(309.2 -8098.458)" fill="#454545" stroke="#ccc" stroke-width="0.8"/>
    <path id="Path_4137" data-name="Path 4137" d="M73.61,53.4a1.248,1.248,0,0,0-1.244,1.244,1.268,1.268,0,0,0,.207.684L71.1,56.449V62.8h.415V56.656l1.348-1.037a1.276,1.276,0,0,0,.726.249,1.248,1.248,0,0,0,1.244-1.244A1.226,1.226,0,0,0,73.61,53.4Zm0,2.053a.83.83,0,1,1,.83-.83A.846.846,0,0,1,73.61,55.453Z" transform="translate(265.407 -8106.781)" fill="#454545" stroke="#ccc" stroke-width="0.8"/>
  </g>
</svg>
