<svg xmlns="http://www.w3.org/2000/svg" width="13.432" height="20.361" viewBox="0 0 13.432 20.361">
  <g id="Group_115465" data-name="Group 115465" transform="translate(-322.814 8351.863)">
    <path id="Path_4124" data-name="Path 4124" d="M39.463,70.4H36.57a4.1,4.1,0,0,0-4.09,3.624l-.4,3.358a.821.821,0,0,0,.665.931,24.791,24.791,0,0,0,5.287.532,26.877,26.877,0,0,0,5.287-.532.87.87,0,0,0,.665-.931l-.4-3.358A4.162,4.162,0,0,0,39.463,70.4Z" transform="translate(291.506 -8411.097)" fill="none" stroke="#ccc" stroke-width="1.5"/>
    <circle id="Ellipse_160" data-name="Ellipse 160" cx="3.89" cy="3.89" r="3.89" transform="translate(325.649 -8351.113)" fill="none" stroke="#ccc" stroke-width="1.5"/>
  </g>
</svg>
