<svg xmlns="http://www.w3.org/2000/svg" width="983.574" height="776.135" viewBox="0 0 983.574 776.135"><defs><style>.a{fill:rgba(255,255,255,0.35);stroke:#fff;}</style></defs><g transform="translate(1077.947 197.529) rotate(139)"><path class="a" d="M0,0,125.482,94.685,250.043,30.042Z" transform="translate(0 146.614)"/><path class="a" d="M0,66.281,168.317,193.569,126.464,0Z" transform="translate(125.022 174.818)"/><path class="a" d="M41.88,252.443,343.9,70.563,114.327,0,0,60.744Z" transform="translate(251.153 116.025)"/><path class="a" d="M328.922,95.145,303,0,0,180.672Z" transform="translate(293.528 188.093)"/><path class="a" d="M0,116.466,231.3,186V0Z" transform="translate(363.988 0)"/><path class="a" d="M284.3,213.427,0,185.388V0Z" transform="translate(595.188 0.374)"/><path class="a" d="M0,0,28.736,97.913l257.83-68.889Z" transform="translate(594.541 185.592)"/><path class="a" d="M338.4,146.344,261.191,0,0,67.662Z" transform="translate(622.297 214.08)"/><path class="a" d="M263.485,156.03,206.152,49.716,0,0Z" transform="translate(755.515 311.97)"/></g></svg>