<svg xmlns="http://www.w3.org/2000/svg" xmlns:xlink="http://www.w3.org/1999/xlink" width="56" height="88" viewBox="0 0 56 88"><defs><style>.a{fill:rgba(255,255,255,0.9);}.b,.e{fill:#fff;}.c,.g{fill:none;}.c{stroke:#fff;stroke-width:2px;}.d{fill:url(#d);}.e{font-size:16px;font-family:BwModelica-Medium, Bw Modelica;font-weight:500;}.f{stroke:none;}.h{filter:url(#e);}.i{filter:url(#a);}</style><filter id="a"><feOffset dy="3" input="SourceAlpha"/><feGaussianBlur stdDeviation="3" result="b"/><feFlood flood-color="#5a5a5a" flood-opacity="0.495" result="c"/><feComposite operator="out" in="SourceGraphic" in2="b"/><feComposite operator="in" in="c"/><feComposite operator="in" in2="SourceGraphic"/></filter><linearGradient id="d" x1="0.707" y1="-0.056" x2="0.447" y2="1.041" gradientUnits="objectBoundingBox"><stop offset="0" stop-color="#6465d3"/><stop offset="1" stop-color="#2c2d8b"/></linearGradient><filter id="e" x="8.659" y="6.833" width="38.682" height="48.333" filterUnits="userSpaceOnUse"><feOffset dy="3" input="SourceAlpha"/><feGaussianBlur stdDeviation="3" result="f"/><feFlood flood-opacity="0.161"/><feComposite operator="in" in2="f"/><feComposite in="SourceGraphic"/></filter></defs><g data-type="innerShadowGroup"><rect class="a" width="56" height="56" rx="8"/><g class="i" transform="matrix(1, 0, 0, 1, 0, 0)"><rect class="b" width="56" height="56" rx="8"/></g><g class="c"><rect class="f" width="56" height="56" rx="8"/><rect class="g" x="1" y="1" width="54" height="54" rx="7"/></g></g><g transform="translate(11.455 11.455)"><rect class="b" width="33.091" height="33.091"/><rect class="b" width="33.091" height="33.091"/><rect class="b" width="33.091" height="33.091"/><g transform="translate(6.205 1.379)"><g class="h" transform="matrix(1, 0, 0, 1, -17.66, -12.83)"><path class="d" d="M28.3,2H10.379A1.379,1.379,0,0,0,9,3.379V30.955a1.379,1.379,0,0,0,1.379,1.379H28.3a1.379,1.379,0,0,0,1.379-1.379V3.379A1.379,1.379,0,0,0,28.3,2ZM20.03,28.2H18.652a1.379,1.379,0,1,1,0-2.758H20.03a1.379,1.379,0,0,1,0,2.758Z" transform="translate(8.66 10.83)"/></g></g></g><text class="e" transform="translate(1 84)"><tspan x="0" y="0">Mobile</tspan></text></svg>