<svg xmlns="http://www.w3.org/2000/svg" xmlns:xlink="http://www.w3.org/1999/xlink" width="66" height="88" viewBox="0 0 66 88"><defs><style>.a{fill:rgba(255,255,255,0.9);}.b,.f{fill:#fff;}.c,.d{fill:none;}.c{stroke:#fff;stroke-width:2px;}.e{fill:url(#d);}.f{font-size:16px;font-family:BwModelica-Medium, Bw Modelica;font-weight:500;}.g{stroke:none;}.h{filter:url(#h);}.i{filter:url(#e);}.j{filter:url(#a);}</style><filter id="a"><feOffset dy="3" input="SourceAlpha"/><feGaussianBlur stdDeviation="3" result="b"/><feFlood flood-color="#5a5a5a" flood-opacity="0.495" result="c"/><feComposite operator="out" in="SourceGraphic" in2="b"/><feComposite operator="in" in="c"/><feComposite operator="in" in2="SourceGraphic"/></filter><linearGradient id="d" x1="0.524" x2="0.522" y2="1.345" gradientUnits="objectBoundingBox"><stop offset="0" stop-color="#0670ba"/><stop offset="1" stop-color="#2a2e7d"/></linearGradient><filter id="e" x="10.902" y="9.591" width="44.197" height="37.303" filterUnits="userSpaceOnUse"><feOffset dy="3" input="SourceAlpha"/><feGaussianBlur stdDeviation="3" result="f"/><feFlood flood-opacity="0.098"/><feComposite operator="in" in2="f"/><feComposite in="SourceGraphic"/></filter><filter id="h" x="8.833" y="31.652" width="48.333" height="20.758" filterUnits="userSpaceOnUse"><feOffset dy="3" input="SourceAlpha"/><feGaussianBlur stdDeviation="3" result="i"/><feFlood flood-opacity="0.098"/><feComposite operator="in" in2="i"/><feComposite in="SourceGraphic"/></filter></defs><g data-type="innerShadowGroup"><rect class="a" width="56" height="56" rx="8" transform="translate(5)"/><g class="j" transform="matrix(1, 0, 0, 1, 0, 0)"><rect class="b" width="56" height="56" rx="8" transform="translate(5)"/></g><g class="c" transform="translate(5)"><rect class="g" width="56" height="56" rx="8"/><rect class="d" x="1" y="1" width="54" height="54" rx="7"/></g></g><g transform="translate(16.455 11.455)"><rect class="d" width="33.091" height="33.091"/><g transform="translate(1.379 4.136)"><g class="i" transform="matrix(1, 0, 0, 1, -17.83, -15.59)"><path class="e" d="M29.818,6H6.379A1.379,1.379,0,0,0,5,7.379V23.924A1.379,1.379,0,0,0,6.379,25.3H29.818A1.379,1.379,0,0,0,31.2,23.924V7.379A1.379,1.379,0,0,0,29.818,6Z" transform="translate(14.9 9.59)"/></g><g class="h" transform="matrix(1, 0, 0, 1, -17.83, -15.59)"><path class="e" d="M30.955,40.758H3.379a1.379,1.379,0,1,1,0-2.758H30.955a1.379,1.379,0,0,1,0,2.758Z" transform="translate(15.83 -0.35)"/></g></g></g><text class="f" transform="translate(0 84)"><tspan x="0" y="0">Website</tspan></text></svg>