<svg xmlns="http://www.w3.org/2000/svg" xmlns:xlink="http://www.w3.org/1999/xlink" width="88" height="112" viewBox="0 0 88 112"><defs><style>.a{fill:#fff;}.b,.f{fill:none;}.b{stroke:#f58220;stroke-width:2px;}.c{fill:url(#d);}.d{fill:#2e2e2e;font-size:16px;font-family:BwModelica-Medium, Bw Modelica;font-weight:500;}.e{stroke:none;}.g{filter:url(#n);}.h{filter:url(#k);}.i{filter:url(#h);}.j{filter:url(#e);}.k{filter:url(#a);}</style><filter id="a"><feOffset dy="3" input="SourceAlpha"/><feGaussianBlur stdDeviation="3" result="b"/><feFlood flood-color="#5a5a5a" flood-opacity="0.255" result="c"/><feComposite operator="out" in="SourceGraphic" in2="b"/><feComposite operator="in" in="c"/><feComposite operator="in" in2="SourceGraphic"/></filter><linearGradient id="d" x1="1" y1="-0.2" x2="0.091" y2="1.363" gradientUnits="objectBoundingBox"><stop offset="0" stop-color="#5a5a5a"/><stop offset="1" stop-color="#2e2e2e"/></linearGradient><filter id="e" x="19.163" y="15.806" width="49.675" height="33.103" filterUnits="userSpaceOnUse"><feOffset dy="3" input="SourceAlpha"/><feGaussianBlur stdDeviation="3" result="f"/><feFlood flood-color="#2e2e2e" flood-opacity="0.204"/><feComposite operator="in" in2="f"/><feComposite in="SourceGraphic"/></filter><filter id="h" x="52.269" y="19.022" width="19.822" height="24.491" filterUnits="userSpaceOnUse"><feOffset dy="3" input="SourceAlpha"/><feGaussianBlur stdDeviation="3" result="i"/><feFlood flood-color="#2e2e2e" flood-opacity="0.204"/><feComposite operator="in" in2="i"/><feComposite in="SourceGraphic"/></filter><filter id="k" x="22.157" y="13.091" width="43.773" height="19.655" filterUnits="userSpaceOnUse"><feOffset dy="3" input="SourceAlpha"/><feGaussianBlur stdDeviation="3" result="l"/><feFlood flood-color="#2e2e2e" flood-opacity="0.204"/><feComposite operator="in" in2="l"/><feComposite in="SourceGraphic"/></filter><filter id="n" x="15.909" y="19.065" width="19.822" height="24.406" filterUnits="userSpaceOnUse"><feOffset dy="3" input="SourceAlpha"/><feGaussianBlur stdDeviation="3" result="o"/><feFlood flood-color="#2e2e2e" flood-opacity="0.204"/><feComposite operator="in" in2="o"/><feComposite in="SourceGraphic"/></filter></defs><g data-type="innerShadowGroup"><rect class="a" width="56" height="56" rx="8" transform="translate(16)"/><g class="k" transform="matrix(1, 0, 0, 1, 0, 0)"><rect class="a" width="56" height="56" rx="8" transform="translate(16)"/></g><g class="b" transform="translate(16)"><rect class="e" width="56" height="56" rx="8"/><rect class="f" x="1" y="1" width="54" height="54" rx="7"/></g></g><g transform="translate(24.909 19.091)"><g class="j" transform="matrix(1, 0, 0, 1, -24.91, -19.09)"><path class="c" d="M42.572,35.7H16.544A2.972,2.972,0,0,0,13.7,38.8v8.909a3,3,0,0,0,2.844,3.1h7.584a3.555,3.555,0,0,0,3.06-1.867l1.077-1.909a1.37,1.37,0,0,1,2.456.042l1.034,1.994A3.136,3.136,0,0,0,34.514,50.8h8.015a3,3,0,0,0,2.844-3.1V38.8A2.912,2.912,0,0,0,42.572,35.7Z" transform="translate(14.46 -13.89)"/></g><g class="i" transform="matrix(1, 0, 0, 1, -24.91, -19.09)"><path class="c" d="M90.5,42.9h0v6.491l1.822-.382V43.324Z" transform="translate(-29.23 -17.88)"/></g><g class="h" transform="matrix(1, 0, 0, 1, -24.91, -19.09)"><path class="c" d="M46.029,29.773A3.277,3.277,0,0,0,43.4,28.5H23.526A3.277,3.277,0,0,0,20.9,29.773l-.3.382H46.373Z" transform="translate(10.56 -9.41)"/></g><g class="g" transform="matrix(1, 0, 0, 1, -24.91, -19.09)"><path class="c" d="M6.2,49.024l1.822.382V43h0L6.2,43.382Z" transform="translate(18.71 -17.94)"/></g></g><text class="d" transform="translate(44 84)"><tspan x="-43.912" y="0">Experience</tspan><tspan x="-27.312" y="24">Design</tspan></text></svg>