<svg xmlns="http://www.w3.org/2000/svg" width="56" height="56" viewBox="0 0 56 56"><defs><style>.a{fill:rgba(255,255,255,0.32);}.b{fill:#fff;}</style></defs><rect class="a" width="56" height="56" rx="8"/><g transform="translate(8.909 19.091)"><path class="b" d="M42.572,35.7H16.544A2.972,2.972,0,0,0,13.7,38.8v8.909a3,3,0,0,0,2.844,3.1h7.584a3.555,3.555,0,0,0,3.06-1.867l1.077-1.909a1.37,1.37,0,0,1,2.456.042l1.034,1.994A3.136,3.136,0,0,0,34.514,50.8h8.015a3,3,0,0,0,2.844-3.1V38.8A2.912,2.912,0,0,0,42.572,35.7Z" transform="translate(-10.446 -32.985)"/><path class="b" d="M90.5,42.9h0v6.491l1.822-.382V43.324Z" transform="translate(-54.14 -36.969)"/><path class="b" d="M46.029,29.773A3.277,3.277,0,0,0,43.4,28.5H23.526A3.277,3.277,0,0,0,20.9,29.773l-.3.382H46.373Z" transform="translate(-14.352 -28.5)"/><path class="b" d="M6.2,49.024l1.822.382V43h0L6.2,43.382Z" transform="translate(-6.2 -37.026)"/></g></svg>