<svg xmlns="http://www.w3.org/2000/svg" width="56" height="56" viewBox="0 0 56 56"><defs><style>.a{fill:rgba(255,255,255,0.32);}.b{fill:none;}.c{fill:#fff;}</style></defs><rect class="a" width="56" height="56" rx="8"/><g transform="translate(11.455 11.455)"><rect class="b" width="33.091" height="33.091"/><rect class="b" width="33.091" height="33.091"/><rect class="b" width="33.091" height="33.091"/><g transform="translate(6.205 1.379)"><path class="c" d="M28.3,2H10.379A1.379,1.379,0,0,0,9,3.379V30.955a1.379,1.379,0,0,0,1.379,1.379H28.3a1.379,1.379,0,0,0,1.379-1.379V3.379A1.379,1.379,0,0,0,28.3,2ZM20.03,28.2H18.652a1.379,1.379,0,1,1,0-2.758H20.03a1.379,1.379,0,0,1,0,2.758Z" transform="translate(-9 -2)"/></g></g></svg>