<svg xmlns="http://www.w3.org/2000/svg" width="173.095" height="22.434" viewBox="0 0 173.095 22.434"><defs><style>.a{fill:#2a2e7d;}</style></defs><path class="a" d="M-1.085-.131,4.708-21.7H22.767L21.1-15.539H10.255L9.516-12.8H19.593l-1.51,5.609H8.006L6.126-.131Zm16.517,0L30.348-21.857H37.5L40.763-.131H33.09l-.37-2.9H25.17l-1.88,2.9ZM28.375-8.143H32.32l-.586-5.239ZM51.58.3A15.241,15.241,0,0,1,40.948-3.613l4.129-4.931A11.348,11.348,0,0,0,52.35-5.493q1.572,0,1.572-.955a.975.975,0,0,0-.586-.832,26.829,26.829,0,0,0-2.958-1.233,13.242,13.242,0,0,1-4.53-2.481,4.758,4.758,0,0,1-1.356-3.59,6.538,6.538,0,0,1,2.034-4.777A10.37,10.37,0,0,1,54.2-22.134,14.288,14.288,0,0,1,63.814-18.9l-4.129,4.931a9.738,9.738,0,0,0-6.225-2.4q-1.572,0-1.572.863a.8.8,0,0,0,.508.724q.508.262,2.943,1.156a13.509,13.509,0,0,1,4.515,2.5,4.8,4.8,0,0,1,1.495,3.7,6.873,6.873,0,0,1-2.065,5.054Q56.6.3,51.58.3ZM65.848-.131l4.16-15.47H63.66l1.633-6.1H85.2l-1.633,6.1H77.219L73.059-.131Zm15.131,0L86.772-21.7h7.211L89.854-6.294h9.83L98.02-.131Zm17.072,0,14.915-21.725h7.149L123.382-.131h-7.673l-.37-2.9h-7.55l-1.88,2.9Zm12.943-8.012h3.944l-.586-5.239ZM123.906-.131,129.7-21.7h6.749l4.9,10.293L144.121-21.7h7.149L145.477-.131h-6.41l-5.115-10.724-2.9,10.724Zm23.913,0L153.612-21.7h18.4l-1.6,5.917H159.1l-.586,2.188h10.539L167.665-8.39H157.125l-.647,2.342h11.464L166.37-.131Z" transform="translate(1.085 22.134)"/></svg>