<svg xmlns="http://www.w3.org/2000/svg" width="24" height="24" viewBox="0 0 24 24"><defs><style>.a{fill:none;stroke-linecap:round;stroke-linejoin:round;fill-rule:evenodd;}.b,.c{stroke:none;}.c{fill:#2c2d8b;}</style></defs><g transform="translate(-2 -2)"><g class="a" transform="translate(1.959)"><path class="b" d="M16.9,2h4.083a3.074,3.074,0,0,1,3.06,3.088V9.205a3.075,3.075,0,0,1-3.06,3.088H16.9a3.075,3.075,0,0,1-3.061-3.088V5.088A3.074,3.074,0,0,1,16.9,2Z"/><path class="c" d="M 16.89782333374023 3.999997138977051 C 16.31272315979004 3.999997138977051 15.83670425415039 4.487947463989258 15.83670425415039 5.087727546691895 L 15.83670425415039 9.205127716064453 C 15.83670425415039 9.804917335510254 16.31272315979004 10.29287719726563 16.89782333374023 10.29287719726563 L 20.9810733795166 10.29287719726563 C 21.56549453735352 10.29287719726563 22.04095458984375 9.804917335510254 22.04095458984375 9.205127716064453 L 22.04095458984375 5.087727546691895 C 22.04095458984375 4.487947463989258 21.56549453735352 3.999997138977051 20.9810733795166 3.999997138977051 L 16.89782333374023 3.999997138977051 M 16.89782333374023 1.999997138977051 L 20.9810733795166 1.999997138977051 C 22.67045402526855 1.999997138977051 24.04095458984375 3.382377624511719 24.04095458984375 5.087727546691895 L 24.04095458984375 9.205127716064453 C 24.04095458984375 10.90918731689453 22.67045402526855 12.29287719726563 20.9810733795166 12.29287719726563 L 16.89782333374023 12.29287719726563 C 15.20707321166992 12.29287719726563 13.83670425415039 10.90918731689453 13.83670425415039 9.205127716064453 L 13.83670425415039 5.087727546691895 C 13.83670425415039 3.382377624511719 15.20707321166992 1.999997138977051 16.89782333374023 1.999997138977051 Z"/></g><g class="a"><path class="b" d="M5.061,2H9.143A3.074,3.074,0,0,1,12.2,5.088V9.205a3.075,3.075,0,0,1-3.061,3.088H5.061A3.075,3.075,0,0,1,2,9.205V5.088A3.074,3.074,0,0,1,5.061,2Z"/><path class="c" d="M 5.061144828796387 3.999997138977051 C 4.476035118103027 3.999997138977051 4.000004768371582 4.487947463989258 4.000004768371582 5.087727546691895 L 4.000004768371582 9.205127716064453 C 4.000004768371582 9.804917335510254 4.476035118103027 10.29287719726563 5.061144828796387 10.29287719726563 L 9.14311408996582 10.29287719726563 C 9.728224754333496 10.29287719726563 10.20424461364746 9.804917335510254 10.20424461364746 9.205127716064453 L 10.20424461364746 5.087727546691895 C 10.20424461364746 4.487947463989258 9.728224754333496 3.999997138977051 9.14311408996582 3.999997138977051 L 5.061144828796387 3.999997138977051 M 5.061144828796387 1.999997138977051 L 9.14311408996582 1.999997138977051 C 10.83378410339355 1.999997138977051 12.20424461364746 3.382377624511719 12.20424461364746 5.087727546691895 L 12.20424461364746 9.205127716064453 C 12.20424461364746 10.90918731689453 10.83378410339355 12.29287719726563 9.14311408996582 12.29287719726563 L 5.061144828796387 12.29287719726563 C 3.370474815368652 12.29287719726563 2.000004768371582 10.90918731689453 2.000004768371582 9.205127716064453 L 2.000004768371582 5.087727546691895 C 2.000004768371582 3.382377624511719 3.370474815368652 1.999997138977051 5.061144828796387 1.999997138977051 Z"/></g><g class="a" transform="translate(0 1.941)"><path class="b" d="M5.061,13.766H9.143A3.075,3.075,0,0,1,12.2,16.855v4.116a3.074,3.074,0,0,1-3.061,3.088H5.061A3.074,3.074,0,0,1,2,20.971V16.855A3.075,3.075,0,0,1,5.061,13.766Z"/><path class="c" d="M 5.061144828796387 15.76569557189941 C 4.476035118103027 15.76569557189941 4.000004768371582 16.25421524047852 4.000004768371582 16.85469627380371 L 4.000004768371582 20.9708251953125 C 4.000004768371582 21.57061576843262 4.476035118103027 22.05857467651367 5.061144828796387 22.05857467651367 L 9.14311408996582 22.05857467651367 C 9.728224754333496 22.05857467651367 10.20424461364746 21.57061576843262 10.20424461364746 20.9708251953125 L 10.20424461364746 16.85469627380371 C 10.20424461364746 16.25421524047852 9.728224754333496 15.76569557189941 9.14311408996582 15.76569557189941 L 5.061144828796387 15.76569557189941 M 5.061144828796387 13.76569557189941 L 9.14311408996582 13.76569557189941 C 10.83378410339355 13.76569557189941 12.20424461364746 15.1480770111084 12.20424461364746 16.85469627380371 L 12.20424461364746 20.9708251953125 C 12.20424461364746 22.67619705200195 10.83378410339355 24.05857467651367 9.14311408996582 24.05857467651367 L 5.061144828796387 24.05857467651367 C 3.370474815368652 24.05857467651367 2.000004768371582 22.67619705200195 2.000004768371582 20.9708251953125 L 2.000004768371582 16.85469627380371 C 2.000004768371582 15.1480770111084 3.370474815368652 13.76569557189941 5.061144828796387 13.76569557189941 Z"/></g><g class="a" transform="translate(1.959 1.941)"><path class="b" d="M16.9,13.766h4.083a3.074,3.074,0,0,1,3.06,3.089v4.116a3.074,3.074,0,0,1-3.06,3.088H16.9a3.074,3.074,0,0,1-3.061-3.088V16.855A3.075,3.075,0,0,1,16.9,13.766Z"/><path class="c" d="M 16.89782333374023 15.76569557189941 C 16.31272315979004 15.76569557189941 15.83670425415039 16.25421524047852 15.83670425415039 16.85469627380371 L 15.83670425415039 20.9708251953125 C 15.83670425415039 21.57061576843262 16.31272315979004 22.05857467651367 16.89782333374023 22.05857467651367 L 20.9810733795166 22.05857467651367 C 21.56549453735352 22.05857467651367 22.04095458984375 21.57061576843262 22.04095458984375 20.9708251953125 L 22.04095458984375 16.85469627380371 C 22.04095458984375 16.25421524047852 21.56549453735352 15.76569557189941 20.9810733795166 15.76569557189941 L 16.89782333374023 15.76569557189941 M 16.89782333374023 13.76569557189941 L 20.9810733795166 13.76569557189941 C 22.67045402526855 13.76569557189941 24.04095458984375 15.1480770111084 24.04095458984375 16.85469627380371 L 24.04095458984375 20.9708251953125 C 24.04095458984375 22.67619705200195 22.67045402526855 24.05857467651367 20.9810733795166 24.05857467651367 L 16.89782333374023 24.05857467651367 C 15.20707321166992 24.05857467651367 13.83670425415039 22.67619705200195 13.83670425415039 20.9708251953125 L 13.83670425415039 16.85469627380371 C 13.83670425415039 15.1480770111084 15.20707321166992 13.76569557189941 16.89782333374023 13.76569557189941 Z"/></g></g></svg>