<?xml version="1.0" encoding="UTF-8"?>
<svg width="592px" height="456px" viewBox="0 0 592 456" version="1.1" xmlns="http://www.w3.org/2000/svg" xmlns:xlink="http://www.w3.org/1999/xlink">
    <title>SVG-UI Components</title>
    <defs>
        <polyline id="path-1" points="9.89217391 10.9551538 0.255652174 5.54146154 9.89217391 0.127769231 19.5278261 5.54146154 9.89217391 10.9551538"></polyline>
        <polyline id="path-3" points="10.0330435 10.9466923 0.397391304 5.533 10.0330435 0.120153846 19.6695652 5.533 10.0330435 10.9466923"></polyline>
        <polyline id="path-5" points="10.1747826 11.5457143 0.539130435 6.06171429 10.1747826 0.577714286 19.8104348 6.06171429 10.1747826 11.5457143"></polyline>
        <path d="M188.960302,119.495319 L90.0455952,62.2621277 C90.4234921,60.012766 91.0136905,56.8961702 91.8450635,53.7880851 L93.8627778,54.9531915 L188.956905,109.982979 L188.956905,99.0893617 L97.5992857,46.2297872 C97.6001349,46.2297872 97.6001349,46.2289362 97.6009841,46.2280851 L188.960302,99.0902128 L273.6525,50.0859574 L273.442746,50.4553191 L290.980556,60.4646809 L281.503413,65.9480851 L264.831794,56.3021277 L264.831794,57.3744681 L264.006365,56.8970213 L264.006365,75.0468085 L264.895484,75.5582979 L244.525571,87.3446809 L226.811127,77.2348936 L226.39077,77.9744681 L243.672968,87.8374468 L188.960302,119.495319 M280.576079,66.4851064 L264.977008,57.4578723 L264.977008,56.5540426 L281.358198,66.0323404 L280.576079,66.4851064 M291.833159,59.9719149 L274.078802,49.8391489 L303.071556,33.0638298 L320.703627,43.266383 L313.115119,47.6570213 L312.39754,47.2425532 C311.46681,46.7038298 310.238857,46.4340426 309.011754,46.4340426 C307.788897,46.4340426 306.56604,46.7012766 305.637008,47.2382979 L299.662841,50.6961702 L298.417905,51.4153191 C297.220524,52.1089362 296.795071,53.0868085 297.141548,53.9829787 C297.007373,54.3302128 296.98869,54.6902128 297.087198,55.0408511 C296.931794,55.5974468 297.068516,56.1770213 297.498214,56.693617 L291.833159,59.9719149 M85.7248333,59.7625532 L82.311873,57.787234 L83.4939683,50.3957447 C83.5924762,49.96 83.698627,49.5421277 83.8107222,49.1421277 L84.5130159,49.5489362 L86.4118413,50.6434043 C86.0840476,53.8085106 85.8250397,57.1685106 85.7248333,59.7625532 M77.9036429,55.2365957 L0.754095238,10.5965957 L8.97780952,5.83829787 L78.5855556,46.1165957 C78.303619,49.1438298 78.0709365,52.5123404 77.9036429,55.2365957 M81.2274365,36.7574468 L18.3844683,0.395744681 L18.3870159,0.394042553 L81.2291349,36.7557447 C81.2291349,36.7565957 81.2282857,36.7565957 81.2274365,36.7574468" id="path-7"></path>
        <path d="M17.6741463,14.5416667 C8.27707317,14.5416667 0.65902439,10.435 0.65902439,5.36833333 C0.65902439,3.415 1.79268293,1.60333333 3.7245122,0.115 C6.8002439,2.485 11.9017073,4.035 17.6741463,4.035 C23.4465854,4.035 28.5480488,2.485 31.6246341,0.115 C33.5564634,1.60333333 34.690122,3.415 34.690122,5.36833333 C34.690122,10.435 27.0712195,14.5416667 17.6741463,14.5416667" id="path-9"></path>
        <path d="M17.1670732,13.2265 C7.77085366,13.2265 0.152804878,8.9145 0.152804878,3.5945 C0.152804878,2.436875 0.51304878,1.327375 1.17463415,0.298375 C3.53414634,4.010125 9.79743902,6.664 17.1670732,6.664 C24.529878,6.664 30.8,4.018 33.1706098,0.31325 C33.8253659,1.337875 34.1830488,2.443 34.1830488,3.5945 C34.1830488,8.9145 26.565,13.2265 17.1670732,13.2265" id="path-11"></path>
        <polyline id="path-13" points="46.8219426 0.748097222 102.955254 33.1390972 56.1780574 60.3713611 0.0447459016 27.8498889 46.8219426 0.748097222"></polyline>
        <polyline id="path-15" points="0.640538462 0.112285714 38.1463077 22.0474286 43.703 29.7651429 43.703 47.232 10.0176154 27.5314286 6.67615385 29.4857143 0.640538462 26.3297143 0.640538462 0.112285714"></polyline>
        <path d="M35.3788444,9.59833333 L35.3788444,8.7225 L36.1523556,8.28166667 C36.8811111,7.86666667 37.3227556,7.34666667 37.4772889,6.805 C37.7128889,7.63666667 37.2712444,8.52 36.1523556,9.1575 L35.3788444,9.59833333 M3.8304,2.75166667 L1.18982222,1.24666667 C0.804755556,1.02666667 0.499066667,0.778333333 0.274444444,0.5125 L0.872311111,0.171666667 C0.971111111,0.24 1.07751111,0.306666667 1.18982222,0.370833333 L4.41137778,2.20666667 C4.20702222,2.38416667 4.0128,2.56583333 3.8304,2.75166667" id="path-17"></path>
        <path d="M1.325,2.615 C0.819,2.008 0.658,1.327 0.841,0.673 C0.995,1.223 1.392,1.754 2.033,2.206 L1.325,2.615" id="path-19"></path>
        <polygon id="path-21" points="0.201428571 3.7296 5.72571429 0.7528 5.72485714 0.7536"></polygon>
        <path d="M12.3448276,8.7246 C5.5387931,8.7246 0.0206896552,6.7761 0.0206896552,4.3713 C0.0206896552,1.9683 5.5387931,0.0189 12.3448276,0.0189 C19.1517241,0.0189 24.6681034,1.9683 24.6681034,4.3713 C24.6681034,6.7761 19.1517241,8.7246 12.3448276,8.7246" id="path-23"></path>
        <path d="M2.93,2.32 L2.93,2.32 L0.294,0.798 L0.295,0.796 L2.932,2.318 C2.931,2.319 2.931,2.32 2.93,2.32" id="path-25"></path>
    </defs>
    <g id="UI-Components" stroke="none" stroke-width="1" fill="none" fill-rule="evenodd">
        <g id="Group-2" transform="translate(129.000000, 58.000000)">
            <g id="Group">
                <g id="Group-6" transform="translate(47.000000, 65.000000)">
                    <mask id="mask-2" fill="white">
                        <use xlink:href="#path-1"></use>
                    </mask>
                    <g id="Clip-5"></g>
                    <polyline id="Fill-4" mask="url(#mask-2)" points="9.89217391 10.9551538 0.255652174 5.54146154 9.89217391 0.127769231 19.5278261 5.54146154 9.89217391 10.9551538"></polyline>
                </g>
                <g id="Group-9" transform="translate(66.000000, 56.000000)">
                    <mask id="mask-4" fill="white">
                        <use xlink:href="#path-3"></use>
                    </mask>
                    <g id="Clip-8"></g>
                    <polyline id="Fill-7" mask="url(#mask-4)" points="10.0330435 10.9466923 0.397391304 5.533 10.0330435 0.120153846 19.6695652 5.533 10.0330435 10.9466923"></polyline>
                </g>
                <g id="Group-12" transform="translate(85.000000, 46.000000)">
                    <mask id="mask-6" fill="white">
                        <use xlink:href="#path-5"></use>
                    </mask>
                    <g id="Clip-11"></g>
                    <polyline id="Fill-10" mask="url(#mask-6)" points="10.1747826 11.5457143 0.539130435 6.06171429 10.1747826 0.577714286 19.8104348 6.06171429 10.1747826 11.5457143"></polyline>
                </g>
                <g id="Group-18" transform="translate(0.000000, 125.000000)">
                    <mask id="mask-8" fill="white">
                        <use xlink:href="#path-7"></use>
                    </mask>
                    <g id="Clip-17"></g>
                    <path d="M188.960302,119.495319 L90.0455952,62.2621277 C90.4234921,60.012766 91.0136905,56.8961702 91.8450635,53.7880851 L93.8627778,54.9531915 L188.956905,109.982979 L188.956905,99.0893617 L97.5992857,46.2297872 C97.6001349,46.2297872 97.6001349,46.2289362 97.6009841,46.2280851 L188.960302,99.0902128 L273.6525,50.0859574 L273.442746,50.4553191 L290.980556,60.4646809 L281.503413,65.9480851 L264.831794,56.3021277 L264.831794,57.3744681 L264.006365,56.8970213 L264.006365,75.0468085 L264.895484,75.5582979 L244.525571,87.3446809 L226.811127,77.2348936 L226.39077,77.9744681 L243.672968,87.8374468 L188.960302,119.495319 M280.576079,66.4851064 L264.977008,57.4578723 L264.977008,56.5540426 L281.358198,66.0323404 L280.576079,66.4851064 M291.833159,59.9719149 L274.078802,49.8391489 L303.071556,33.0638298 L320.703627,43.266383 L313.115119,47.6570213 L312.39754,47.2425532 C311.46681,46.7038298 310.238857,46.4340426 309.011754,46.4340426 C307.788897,46.4340426 306.56604,46.7012766 305.637008,47.2382979 L299.662841,50.6961702 L298.417905,51.4153191 C297.220524,52.1089362 296.795071,53.0868085 297.141548,53.9829787 C297.007373,54.3302128 296.98869,54.6902128 297.087198,55.0408511 C296.931794,55.5974468 297.068516,56.1770213 297.498214,56.693617 L291.833159,59.9719149 M85.7248333,59.7625532 L82.311873,57.787234 L83.4939683,50.3957447 C83.5924762,49.96 83.698627,49.5421277 83.8107222,49.1421277 L84.5130159,49.5489362 L86.4118413,50.6434043 C86.0840476,53.8085106 85.8250397,57.1685106 85.7248333,59.7625532 M77.9036429,55.2365957 L0.754095238,10.5965957 L8.97780952,5.83829787 L78.5855556,46.1165957 C78.303619,49.1438298 78.0709365,52.5123404 77.9036429,55.2365957 M81.2274365,36.7574468 L18.3844683,0.395744681 L18.3870159,0.394042553 L81.2291349,36.7557447 C81.2291349,36.7565957 81.2282857,36.7565957 81.2274365,36.7574468" id="Fill-16" mask="url(#mask-8)"></path>
                </g>
                <polyline id="Fill-19" fill="#7FAFD2" points="226 202.741151 263.575069 224 264 223.258849 226.424931 202 226 202.741151"></polyline>
                <polyline id="Fill-20" fill="#7FAFD2" points="273 175.741151 310.575059 197 311 196.258849 273.424941 175 273 175.741151"></polyline>
                <polyline id="Fill-21" fill="#6188A6" points="189 235 321 158.874469 321 148 189 224.124681 189 235"></polyline>
                <polyline id="Fill-22" fill="#EEEEEE" points="1 115.176371 132.764956 39 321 147.823629 189.235894 224 1 115.176371"></polyline>
                <polyline id="Fill-23" fill="#7FAFD2" points="189 224.087034 189 235 94.0074903 179.872469 88.7225882 176.811723 88.7225882 176.803197 84.6677195 174.458615 81.6901904 172.727886 1 125.90444 1 115 189 224.087034"></polyline>
                <polyline id="Fill-24" fill="#7FAFD2" points="198.370135 99.4520722 198.17481 99.112806 132 137.436317 179.595197 165 246 126.584039 198.370135 99 198.17481 99.112806 198.370135 99.4520722 198.17481 99.7904903 244.439086 126.584039 179.596042 164.096704 133.560069 137.436317 198.564615 99.7904903 198.370135 99.4520722 198.17481 99.7904903 198.370135 99.4520722"></polyline>
                <path d="M217,131 C217,137.627192 207.150411,143 195.000421,143 C182.850432,143 173,137.627192 173,131 C173,124.372808 182.850432,119 195.000421,119 C207.150411,119 217,124.372808 217,131" id="Fill-25" fill="#B9BCBF"></path>
                <g id="Group-28" transform="translate(251.000000, 221.000000)">
                    <mask id="mask-10" fill="white">
                        <use xlink:href="#path-9"></use>
                    </mask>
                    <g id="Clip-27"></g>
                    <path d="M17.6741463,14.5416667 C8.27707317,14.5416667 0.65902439,10.435 0.65902439,5.36833333 C0.65902439,3.415 1.79268293,1.60333333 3.7245122,0.115 C6.8002439,2.485 11.9017073,4.035 17.6741463,4.035 C23.4465854,4.035 28.5480488,2.485 31.6246341,0.115 C33.5564634,1.60333333 34.690122,3.415 34.690122,5.36833333 C34.690122,10.435 27.0712195,14.5416667 17.6741463,14.5416667" id="Fill-26" mask="url(#mask-10)"></path>
                </g>
                <path d="M285.873774,219.389689 L285.873774,216.532137 L284.430704,216.532137 C281.739872,213.268953 275.849893,211 268.999574,211 C262.149254,211 256.260981,213.268953 253.568443,216.532137 L252,216.532137 L252,221.153759 L252.059701,221.153759 C252.663539,226.094708 260.006823,230 268.999574,230 C278.38806,230 286,225.746037 286,220.499568 C286,220.124143 285.94968,219.754758 285.873774,219.389689" id="Fill-29" fill="#3F609D"></path>
                <path d="M286,215.5 C286,220.747093 278.38806,225 268.999574,225 C259.611087,225 252,220.747093 252,215.5 C252,210.25377 259.611087,206 268.999574,206 C278.38806,206 286,210.25377 286,215.5" id="Fill-30" fill="#688DBB"></path>
                <g id="Group-33" transform="translate(298.000000, 196.000000)">
                    <mask id="mask-12" fill="white">
                        <use xlink:href="#path-11"></use>
                    </mask>
                    <g id="Clip-32"></g>
                    <path d="M17.1670732,13.2265 C7.77085366,13.2265 0.152804878,8.9145 0.152804878,3.5945 C0.152804878,2.436875 0.51304878,1.327375 1.17463415,0.298375 C3.53414634,4.010125 9.79743902,6.664 17.1670732,6.664 C24.529878,6.664 30.8,4.018 33.1706098,0.31325 C33.8253659,1.337875 34.1830488,2.443 34.1830488,3.5945 C34.1830488,8.9145 26.565,13.2265 17.1670732,13.2265" id="Fill-31" mask="url(#mask-12)"></path>
                </g>
                <path d="M332.874624,191.390552 L332.874624,188.532137 L331.430664,188.532137 C328.739765,185.268953 322.851345,183 315.999147,183 C309.148655,183 303.260235,185.268953 300.568483,188.532137 L299,188.532137 L299,193.154622 L299.05885,193.154622 C299.662703,198.094708 307.006171,202 315.999147,202 C325.388722,202 333,197.7469 333,192.499568 C333,192.124143 332.949679,191.754758 332.874624,191.390552" id="Fill-34" fill="#E15B29"></path>
                <path d="M333,188.499569 C333,193.746423 325.388722,198 315.999147,198 C306.611278,198 299,193.746423 299,188.499569 C299,183.253577 306.611278,179 315.999147,179 C325.388722,179 333,183.253577 333,188.499569" id="Fill-35" fill="#ECBD33"></path>
                <polyline id="Fill-36" fill="#7FAFD2" points="229.429799 103 241 96.3037147 241 74 240.140401 74 240.140401 95.8055869 229 102.25367 229.429799 103"></polyline>
                <polyline id="Fill-37" fill="#DB317D" points="123 44.4281674 310.597279 153 320 147.559955 132.381557 39 123 44.4281674"></polyline>
                <polyline id="Fill-38" fill="#982563" points="311 153.351975 311.05348 164 320 158.679743 320 148 311 153.351975"></polyline>
                <path d="M289.995534,158.693284 C290.001489,158.589683 290.001489,158.488629 289.995534,158.385028 L289.995534,154.228246 L282.48907,152.60035 L249.125116,133.371308 C248.265071,132.876231 247.206816,132.876231 246.346772,133.371308 L231.984619,141.649205 L228,140.78558 L228,146.21105 L228.085919,146.228883 C228.257758,146.915877 228.691609,147.546825 229.391724,147.949341 L258.993939,164.979832 L258.993939,170.741581 C258.993939,171.55001 259.746797,172.147839 260.536235,171.967811 L267.991658,170.154792 L268.908699,170.682987 C269.767042,171.176366 270.823596,171.176366 271.681939,170.682987 L288.623375,160.941937 C289.447691,160.46724 289.884945,159.673248 289.975968,158.845288 L289.995534,158.849534 L289.995534,158.693284" id="Fill-39" fill="#293075"></path>
                <path d="M135,45 C135,46.104927 133.657448,47 132.000395,47 C130.343343,47 129,46.104927 129,45 C129,43.895073 130.343343,43 132.000395,43 C133.657448,43 135,43.895073 135,45" id="Fill-40" fill="#FFFFFE"></path>
                <path d="M142,48 C142,49.1040146 140.656657,50 139.000395,50 C137.343343,50 136,49.1040146 136,48 C136,46.8959854 137.343343,46 139.000395,46 C140.656657,46 142,46.8959854 142,48" id="Fill-41" fill="#ECBD33"></path>
                <path d="M149,52 C149,53.1040146 147.657271,54 146,54 C144.342729,54 143,53.1040146 143,52 C143,50.895073 144.342729,50 146,50 C147.657271,50 149,50.895073 149,52" id="Fill-42" fill="#45AE5A"></path>
                <polyline id="Fill-43" fill="#53B4BC" points="114 61.3336112 123.333053 56 142 66.6663888 132.666947 72 114 61.3336112"></polyline>
                <polyline id="Fill-44" fill="#89CDD3" points="113 61 113 63.6471824 132 74 132 71.591213 113 61"></polyline>
                <polyline id="Fill-45" fill="#3A8B92" points="133 74 142 68.3455092 142 66 133 71.4989257 133 74"></polyline>
                <polyline id="Fill-46" fill="#F6C846" points="137 74.3333333 146.332772 69 165 79.6666667 155.666386 85 137 74.3333333"></polyline>
                <polyline id="Fill-47" fill="#FCDD8D" points="137 75 137 77.6480102 156 88 156 85.5920408 137 75"></polyline>
                <polyline id="Fill-48" fill="#BA9434" points="156 88 165 82.3449017 165 80 156 85.4995165 156 88"></polyline>
                <polyline id="Fill-49" fill="#E36A60" points="161 88.3327776 170.333053 83 189 93.6663888 179.666947 99 161 88.3327776"></polyline>
                <polyline id="Fill-50" fill="#E88E86" points="160 88 160 90.6478416 179 101 179 98.5913664 160 88"></polyline>
                <polyline id="Fill-51" fill="#CB5A51" points="180 101 189 95.3446498 189 93 180 98.4989257 180 101"></polyline>
                <path d="M288.61168,152.137585 L249.120013,129.371314 C248.260168,128.876229 247.202158,128.876229 246.342312,129.371314 L229.388638,139.144786 C227.53627,140.213083 227.537121,142.882976 229.39119,143.949574 L258.986552,160.979482 L258.986552,166.742171 C258.986552,167.549762 259.739235,168.14845 260.52849,167.96757 L267.982188,166.155372 L268.899016,166.682727 C269.757161,167.176963 270.81347,167.176963 271.671614,166.683576 L288.609129,156.942373 C290.462347,155.875775 290.464048,153.205882 288.61168,152.137585" id="Fill-52" fill="#384186"></path>
                <polyline id="Fill-53" fill="#4A71AA" points="238 141.273714 249.459409 148 258 142.493597 246.975726 136 238 141.273714"></polyline>
                <polyline id="Fill-54" fill="#7FAFD2" points="255 146.087566 270.174237 155 272 153.850263 256.654464 145 255 146.087566"></polyline>
                <polyline id="Fill-55" fill="#7FAFD2" points="252 148.087566 267.175097 157 269 155.850263 253.654464 147 252 148.087566"></polyline>
                <polyline id="Fill-56" fill="#7FAFD2" points="258 144.088441 273.174237 153 275 151.850263 259.654464 143 258 144.088441"></polyline>
                <polyline id="Fill-57" fill="#B9BCBF" points="101.817875 69 158 101.595203 111.182125 129 55 96.2717972 101.817875 69"></polyline>
                <g id="Group-60" transform="translate(55.000000, 59.000000)">
                    <mask id="mask-14" fill="white">
                        <use xlink:href="#path-13"></use>
                    </mask>
                    <g id="Clip-59"></g>
                    <polyline id="Fill-58" fill="#D3D3D3" opacity="0.526390439" mask="url(#mask-14)" points="46.8219426 0.748097222 102.955254 33.1390972 56.1780574 60.3713611 0.0447459016 27.8498889 46.8219426 0.748097222"></polyline>
                </g>
                <path d="M118,88.0004141 C118,92.4184048 112.626515,96 105.999581,96 C99.3726463,96 94,92.4184048 94,88.0004141 C94,83.5815952 99.3726463,80 105.999581,80 C112.626515,80 118,83.5815952 118,88.0004141" id="Fill-61" fill="#1D1D1C"></path>
                <polyline id="Fill-62" fill="#FFFFFE" points="99 88.2296684 108.826882 83 111 89 99 88.2296684"></polyline>
                <polyline id="Fill-63" fill="#6E4086" points="217.307472 153 189 169.278803 226.71465 191 255 174.709314 217.307472 153"></polyline>
                <polyline id="Fill-64" fill="#835A95" points="189 170 189 172.318453 227 194 227 191.829116 189 170"></polyline>
                <polyline id="Fill-65" fill="#432857" points="226 193 254 177.229092 254 175 226 190.89263 226 193"></polyline>
                <polyline id="Fill-66" fill="#688DBB" points="55 87 55 89.7568344 111 123 111 120.080289 55 87"></polyline>
                <polyline id="Fill-67" fill="#223E7D" points="111 122 158 94.633475 158 92 111 119.139399 111 122"></polyline>
                <polyline id="Fill-68" fill="#F9CF2A" points="127.5 140 132 142.499191 127.5 145 123 142.499191 127.5 140"></polyline>
                <polyline id="Fill-69" fill="#7FAFD2" points="129 145.528997 133.462562 143 150 152.458679 145.558171 155 129 145.528997"></polyline>
                <polyline id="Fill-70" fill="#28689C" points="158.5 136 163 138.5 158.5 141 154 138.5 158.5 136"></polyline>
                <polyline id="Fill-71" fill="#7FAFD2" points="160 142.528997 164.462562 140 181 149.4595 176.559 152 160 142.528997"></polyline>
                <polyline id="Fill-72" fill="#DC3C3F" points="151.5 154 156 156.500404 151.5 159 147 156.500404 151.5 154"></polyline>
                <polyline id="Fill-73" fill="#7FAFD2" points="153 160.528997 157.461733 158 174 167.458679 169.557341 170 153 160.528997"></polyline>
                <polyline id="Fill-74" fill="#223E7D" points="15 113.000281 15 99 27 106.000561 27 120 15 113.000281"></polyline>
                <polyline id="Fill-75" fill="#4A71AA" points="27 106.000561 39 99 39 113.000281 27 120 27 106.000561"></polyline>
                <polyline id="Fill-76" fill="#688DBB" points="15 98.9995792 26.9995835 92 39 98.9995792 26.9995835 106 15 98.9995792"></polyline>
                <polyline id="Fill-77" fill="#EBEBE7" points="24 100 24 88.6669465 34 83 34 94.3338929 24 100"></polyline>
                <polyline id="Fill-78" fill="#D2D1CC" points="23 88.1284047 24.3855872 89 34 82.8706874 32.6152351 82 23 88.1284047"></polyline>
                <polyline id="Fill-79" fill="#A2A39F" points="23 88 23 99.2042044 24 100 24 88.7966254 23 88"></polyline>
                <polyline id="Fill-80" fill="#65C4D7" points="39 127 39 113 51 120 51 134 39 127"></polyline>
                <polyline id="Fill-81" fill="#0D7F89" points="51 120 63 113 63 127 51 134 51 120"></polyline>
                <polyline id="Fill-82" fill="#7CCAD9" points="39 113.000421 51.0004165 106 63 113.000421 51.0004165 120 39 113.000421"></polyline>
                <polyline id="Fill-83" fill="#EBEBE7" points="48 114 48 102.666946 58 97 58 108.333054 48 114"></polyline>
                <polyline id="Fill-84" fill="#D2D1CC" points="47 102.128405 48.3848684 103 58 96.8706874 56.6151316 96 47 102.128405"></polyline>
                <polyline id="Fill-85" fill="#A2A39F" points="47 102 47 113.204204 48 114 48 102.796625 47 102"></polyline>
                <polyline id="Fill-86" fill="#60357F" points="64 141 64 127 76 134 76 148 64 141"></polyline>
                <polyline id="Fill-87" fill="#72498B" points="76 134 88 127 88 141 76 148 76 134"></polyline>
                <polyline id="Fill-88" fill="#9972A5" points="64 127 76.0004165 120 88 127 76.0004165 134 64 127"></polyline>
                <polyline id="Fill-89" fill="#EBEBE7" points="73 128 73 116.666387 83 111 83 122.333613 73 128"></polyline>
                <polyline id="Fill-90" fill="#D2D1CC" points="72 116.129313 73.3847649 117 83 110.871595 81.6144128 110 72 116.129313"></polyline>
                <polyline id="Fill-91" fill="#A2A39F" points="72 116 72 127.204149 73 128 73 116.795851 72 116"></polyline>
                <polyline id="Fill-92" fill="#3F609D" points="57 72 48 66.6663888 48 56 57 61.3336112 57 72"></polyline>
                <polyline id="Fill-93" fill="#5DC3E4" points="57 72 66 66.6663888 66 56 57 61.3336112 57 72"></polyline>
                <polyline id="Fill-94" fill="#95D3E8" points="48 55.5 57.4995714 50 67 55.5 57.4995714 61 48 55.5"></polyline>
                <polyline id="Fill-95" fill="#E15B29" points="76 61 67 55.5998312 67 34 76 39.3993248 76 61"></polyline>
                <polyline id="Fill-96" fill="#ECBD33" points="76 61 85 55.5998312 85 34 76 39.3993248 76 61"></polyline>
                <polyline id="Fill-97" fill="#F0D385" points="66 33.5004299 75.4995714 28 85 33.5004299 75.4995714 39 66 33.5004299"></polyline>
                <polyline id="Fill-98" fill="#60357F" points="95 50 86 44.5713074 86 12 95 17.4286926 95 50"></polyline>
                <polyline id="Fill-99" fill="#72498B" points="95 50 104 44.5713074 104 12 95 17.4286926 95 50"></polyline>
                <polyline id="Fill-100" fill="#9972A5" points="85 11.4995701 94.5 6 104 11.4995701 94.5 17 85 11.4995701"></polyline>
                <g id="Group-103" transform="translate(216.000000, 44.000000)">
                    <mask id="mask-16" fill="white">
                        <use xlink:href="#path-15"></use>
                    </mask>
                    <g id="Clip-102"></g>
                    <polyline id="Fill-101" fill="#384186" mask="url(#mask-16)" points="0.640538462 0.112285714 38.1463077 22.0474286 43.703 29.7651429 43.703 47.232 10.0176154 27.5314286 6.67615385 29.4857143 0.640538462 26.3297143 0.640538462 0.112285714"></polyline>
                </g>
                <polyline id="Fill-104" fill="#688DBB" points="217 44.2373364 219.130804 43 257 64.763514 254.87005 66 217 44.2373364"></polyline>
                <polyline id="Fill-105" fill="#5076AD" points="254 66.2512909 259.798036 74 262 72.7478485 256.201082 65 254 66.2512909"></polyline>
                <polyline id="Fill-106" fill="#223E7D" points="260 73.2662025 260 91 262 89.7346677 262 72 260 73.2662025"></polyline>
                <polyline id="Fill-107" fill="#E36935" points="104 163.670584 188.441755 213 204 203.910659 118.912489 155 104 163.670584"></polyline>
                <polyline id="Fill-108" fill="#ECA687" points="104 164 104.034929 165.996224 189 215 189 212.869733 104 164"></polyline>
                <polyline id="Fill-109" fill="#A74E2D" points="189 215 205 206.00221 205 204 189 212.895543 189 215"></polyline>
                <path d="M170.019039,29.4824384 C169.184156,34.056648 165.346096,35.1525345 161.556086,32.1800712 C157.905081,29.3158224 155.47594,23.5770187 156.02595,19.136789 C156.59398,14.5454025 160.146309,12.8354417 164.077897,15.5554045 C168.170798,18.3861583 170.886529,24.740754 170.019039,29.4824384 Z M177.635097,30.4821342 C177.611071,28.5067902 177.332205,26.449856 176.820807,24.3894863 L180.399736,22.0319562 L178.697363,18.0735386 L176.996707,14.1237095 L172.692725,14.7687022 C171.547228,12.9634096 170.239558,11.3161445 168.811762,9.89389683 L168.94905,4.1696935 L163.281626,0.655298896 L160.825027,1.76578575 L161.794624,4.38096942 L162.191902,4.32857986 L161.875281,5.39698331 C160.432898,4.93406574 159.060017,4.79063859 157.796967,4.94351303 L155.041766,0 L154.735442,0.188087101 L154.782635,0 L152.585167,1.11048686 L152.694998,1.43856573 L151.103314,2.41421389 L152.766216,7.7467838 C151.976809,8.70525506 151.339278,9.89303799 150.880221,11.2809318 L147.456599,9.63023135 L145,10.7407182 L147.20519,12.4515379 L146.933188,15.519333 L150.12342,18.7168137 C150.254702,20.4319276 150.565316,22.1805364 151.032954,23.9102507 L148.778855,25.7936982 L151.437954,32.1070694 L154.445421,31.9937018 C155.369542,33.5593766 156.423228,35.0391669 157.58417,36.3781066 L157.612486,40.8295013 L159.529371,42.4484246 L158.467104,43.1904668 L159.876881,45.9276065 L162.33348,44.8171196 L163.605969,41.3284904 C164.965979,42.0447673 166.307971,42.495661 167.59333,42.6785951 L169.59173,46.3475818 L169.282832,46.3158045 L169.68869,46.5245039 L170.343383,47.7277461 L171.592704,47.5035875 L172.558011,48 L175.015468,46.8895131 L173.333689,41.4014922 C174.057884,40.8913382 174.708286,40.2291685 175.277174,39.4347367 L178.061548,42.0267316 L180.519005,40.9162447 L182,34.572814 L177.635097,30.4821342 L177.635097,30.4821342 Z" id="Fill-121" fill="#73983F"></path>
                <path d="M159.594681,32.6885482 C155.950721,29.8688188 153.526267,24.2175196 154.075216,19.8449939 C154.642149,15.3236162 158.187624,13.6397286 162.112481,16.3182178 C166.196628,19.1058087 168.907118,25.3635104 168.042159,30.0328943 C167.207174,34.5373569 163.378233,35.6165335 159.594681,32.6885482 Z M175.64352,31.0173469 C175.618684,29.0721227 175.339499,27.0465522 174.830801,25.0175988 L178.402824,22.696016 L175.006362,14.9083531 L170.710685,15.5435111 C169.566542,13.7657453 168.261396,12.1435975 166.837212,10.7430361 L166.974235,5.10611459 L164.106168,3.35118405 L161.316891,1.64530699 L159.913259,6.31469085 C158.47366,5.85883179 157.104284,5.71759159 155.842815,5.86813503 L153.092931,1 L149.162079,3.37740229 L150.822628,8.62866192 C150.034745,9.57251853 149.397587,10.7413446 148.939416,12.108076 L145.522401,10.4833909 L145,16.2826963 L148.184076,19.4314223 C148.315104,21.1203844 148.625119,22.8423307 149.092711,24.5456705 L146.842105,26.4003995 L149.496929,32.6175052 L152.497737,32.5058663 C153.420074,34.0476679 154.471727,35.5040488 155.630429,36.8225725 L155.65869,41.206093 L157.986371,43.1470885 L160.370574,45.1337544 L161.640608,41.6974735 C162.997994,42.4036745 164.338251,42.8476931 165.620275,43.026992 L168.365876,48 L170.656732,47.5940402 L173.027233,47.1745483 L171.349556,41.770208 C172.378942,41.0547038 173.26788,40.0533362 173.968411,38.7762542 L178.52015,41.2923595 L180,35.0456525 L175.64352,31.0173469 L175.64352,31.0173469 Z" id="Fill-122" fill="#94C453"></path>
                <path d="M195.876077,27.1984673 C195.378443,29.8663713 193.096842,30.5058971 190.843408,28.7717177 C188.672771,27.1012393 187.227671,23.7535772 187.555443,21.1636233 C187.893459,18.4848231 190.005199,17.4873975 192.34399,19.0740586 C194.776674,20.7260971 196.391635,24.4324972 195.876077,27.1984673 Z M200.404283,27.7818356 C200.389773,26.629348 200.224179,25.4290846 199.921161,24.2271448 L202.048266,22.8517033 L201.035074,20.5425373 L200.025297,18.2384003 L197.466284,18.615578 C196.784279,17.562833 196.007527,16.6014488 195.158221,15.7716578 L195.239311,12.4323774 L193.531311,11.3930432 L191.869403,10.3822068 L190.408939,11.0301144 L190.985955,12.556427 L191.221541,12.5245764 L191.032901,13.148177 C190.175914,12.8782853 189.359898,12.7953062 188.608753,12.8841525 L186.970746,10 L186.788081,10.1098006 L186.816249,10 L185.510282,10.6479076 L185.575153,10.839011 L184.62854,11.4081303 L185.617832,14.5185895 C185.147513,15.0784889 184.76938,15.7708196 184.495383,16.5804945 L182.460464,15.617434 L181,16.2653416 L182.311089,17.2636053 L182.302553,17.354128 L182.148056,19.0531042 L184.04555,20.9188768 C184.124079,21.918817 184.30845,22.9388733 184.586715,23.9480333 L183.245752,25.0468778 L184.827423,28.7289708 L186.615659,28.6627552 C187.164507,29.5772017 187.791883,30.4396815 188.481571,31.2208585 L188.499496,33.8175178 L189.703888,34.8157816 L189.006518,35.1946357 L189.845581,36.7913548 L191.306045,36.1442855 L192.063164,34.1083638 C192.871498,34.526612 193.668736,34.7897982 194.433538,34.895408 L195.621712,37.0361013 L195.438194,37.0184997 L195.679755,37.1400347 L196.068984,37.8415853 L196.811593,37.7108304 L197.386048,38 L198.846512,37.3529306 L197.846978,34.1511106 C198.278032,33.8535592 198.663847,33.4671616 199.001862,33.0044902 L200.658648,34.5165539 L202.119112,33.8686464 L203,30.1681135 L200.404283,27.7818356 L200.404283,27.7818356 Z" id="Fill-123" fill="#2282AA"></path>
                <path d="M189.757092,29.8785261 C187.571043,28.1985429 186.116542,24.8318331 186.444922,22.2271427 C186.786197,19.5331005 188.912931,18.5299997 191.267469,20.1256887 C193.718286,21.7871271 195.344713,25.514616 194.825494,28.2963242 C194.324328,30.9794081 192.027385,31.6225728 189.757092,29.8785261 Z M199.385853,28.8830117 C199.371239,27.7239666 199.20447,26.5168739 198.89844,25.3080953 L201.041508,23.9248276 L200.021122,21.6025228 L199.004175,19.2852756 L196.426993,19.6637565 C195.740145,18.6050215 194.957878,17.6381672 194.102542,16.8044977 L194.184207,13.4462173 L192.46322,12.4009694 L190.790372,11.3843815 L189.94879,14.1660897 C189.084858,13.8946624 188.263048,13.8103682 187.50657,13.900563 L185.856932,11 L184.656883,11.7207153 L183.498097,12.4161423 L184.493553,15.5442996 C184.020754,16.1073848 183.639936,16.8036548 183.363994,17.6179366 L181.314626,16.6493964 L181,20.1046151 L182.910966,21.9801608 C182.990053,22.9866334 183.175734,24.0124936 183.455974,25.0273956 L182.105489,26.1324924 L183.698391,29.835536 L185.499325,29.7689436 C186.052069,30.6885932 186.6839,31.5551374 187.378485,32.3416022 L187.396537,34.9530361 L190.223014,37.2930427 L190.985509,35.2455369 C191.799582,35.665322 192.602481,35.9300057 193.372713,36.0370593 L195.019772,39 L196.394326,38.7580757 L197.817021,38.5077219 L196.80953,35.288527 C197.427607,34.8619984 197.96058,34.2651955 198.380941,33.504862 L201.112858,35.0044555 L202,31.2828672 L199.385853,28.8830117 L199.385853,28.8830117 Z" id="Fill-124" fill="#38A5D1"></path>
                <path d="M189.818899,52.284463 C189.457347,54.1906152 187.798357,54.6469239 186.160125,53.4081335 C184.580711,52.2152242 183.530652,49.8235662 183.768516,47.9741397 C184.014164,46.0613139 185.55033,45.3480709 187.249973,46.4817518 C189.019678,47.6613139 190.194291,50.3090719 189.818899,52.284463 Z M193.112661,52.7015641 C193.102281,51.8782065 192.981187,51.0206465 192.759758,50.1622523 L194.308033,49.179562 L192.835874,45.8852972 L190.975349,46.1539103 C190.479728,45.4022941 189.914045,44.7149114 189.297329,44.1226277 L189.357012,41.7384776 L188.114066,40.9952033 L186.90572,40.2736184 L185.843551,40.7366006 L186.263055,41.8260688 L186.434317,41.8035454 L186.297654,42.2490094 C185.674019,42.0563087 185.080657,41.9970803 184.534004,42.0604797 L183.342956,40 L183.209752,40.078415 L183.230511,40 L182.279922,40.4629823 L182.32836,40.5997914 L181.639853,41.0068822 L182.358633,43.2283629 C182.01784,43.6279458 181.741918,44.1217935 181.542978,44.7007299 L180.063034,44.0133472 L179,44.4754953 L179.954049,45.1879041 L179.947994,45.2529718 L179.836415,46.4667362 L181.216023,47.7989572 C181.272246,48.5138686 181.406314,49.2421272 181.609579,49.962878 L180.634771,50.7478624 L181.784301,53.3781022 L183.085198,53.3305527 C183.484809,53.9837331 183.939777,54.5993743 184.441453,55.1574557 L184.454428,57.0118874 L185.242405,57.6533889 L184.823765,57.9962461 L185.43356,59.1366006 L186.495729,58.6736184 L187.045843,57.220438 C187.634014,57.5182482 188.215267,57.7067779 188.769705,57.7826903 L189.633798,59.3109489 L189.500595,59.2984359 L189.676181,59.3851929 L189.959023,59.8865485 L190.499622,59.7931178 L190.917396,60 L191.979565,59.5370177 L191.252135,57.2504692 C191.566115,57.0377477 191.847227,56.7616267 192.092875,56.4312826 L193.297762,57.5115746 L194.359066,57.0485923 L195,54.4058394 L193.112661,52.7015641 L193.112661,52.7015641 Z" id="Fill-125" fill="#912527"></path>
                <path d="M185.254635,54.484626 C183.693115,53.2840723 182.654384,50.879609 182.888826,49.0187927 C183.132679,47.0950543 184.651417,46.3785813 186.333581,47.5187298 C188.084194,48.7050212 189.246135,51.3670456 188.875649,53.3545451 C188.517997,55.2707328 186.876904,55.7304837 185.254635,54.484626 Z M192.133022,53.7731868 C192.121898,52.9451319 192.002966,52.0835186 191.784781,51.2202274 L193.315498,50.2319309 L192.586504,48.5733042 L191.860076,46.9180335 L190.018767,47.189018 C189.528492,46.4322748 188.969768,45.7418096 188.35885,45.1461471 L188.417033,42.7475565 L187.188352,42.0008809 L185.993041,41.2751793 L185.391535,43.2610009 C184.774628,43.0680398 184.186812,43.0076345 183.646911,43.0713956 L182.467857,41 L181.611374,41.5142833 L180.783127,42.0117874 L181.495864,44.2459415 C181.157892,44.647804 180.884947,45.1453081 180.688152,45.7267083 L179.223319,45.0354042 L179,47.5036285 L180.36387,48.8426108 C180.421197,49.5616007 180.553819,50.294014 180.75318,51.0197156 L179.788888,51.8083393 L180.357025,53.1305424 L180.926872,54.4535845 L182.21288,54.4066026 C182.60818,55.0626704 183.059951,55.6826629 183.556215,56.243928 L183.568193,58.1089391 L184.564999,58.9344771 L185.587474,59.7801502 L186.131653,58.3178405 C186.713479,58.6181887 187.287605,58.806955 187.837773,58.8841394 L189.01426,61 L189.995665,60.827174 L191.01215,60.6484752 L190.292567,58.3488821 C190.733215,58.0443391 191.114825,57.6181467 191.41515,57.0744998 L193.366836,58.1458534 L193.67914,56.8328789 L194,55.4871849 L192.133022,53.7731868 L192.133022,53.7731868 Z" id="Fill-126" fill="#DA3834"></path>
                <path d="M216.981462,128.205416 L217,128 L216.981462,127.794584 L216.981462,123.293953 L215.226248,123.277957 C211.863282,118.998737 204.074784,116 195.000421,116 C186.196545,116 178.621234,118.82868 175.105751,122.904167 L173,122.883962 L173,128.460502 L173.042975,128.460502 C173.490415,134.873018 183.135243,140 195.000421,140 C206.865599,140 216.510428,134.873018 216.957868,128.460502 L216.981462,128.460502 L216.981462,128.205416" id="Fill-127" fill="#E15B29"></path>
                <path d="M217,123 C217,129.627192 207.150411,135 195.000421,135 C182.850432,135 173,129.627192 173,123 C173,116.372808 182.850432,111 195.000421,111 C207.150411,111 217,116.372808 217,123" id="Fill-128" fill="#ECBD33"></path>
                <polyline id="Fill-129" fill="#FFFFFE" points="115.199525 160 121 156.369659 120.800475 156 115 159.629381"></polyline>
                <polyline id="Fill-130" fill="#FFFFFE" points="117.199555 162 123 158.370619 122.801336 158 117 161.630341"></polyline>
                <polyline id="Fill-131" fill="#FFFFFE" points="119.199555 163 125 159.369659 124.800445 159 119 162.629381"></polyline>
                <polyline id="Fill-132" fill="#FFFFFE" points="121.199555 164 127 160.370619 126.800445 160 121 163.630341"></polyline>
                <polyline id="Fill-133" fill="#FFFFFE" points="123.199555 165 129 161.369659 128.801336 161 123 164.629381"></polyline>
                <polyline id="Fill-134" fill="#FFFFFE" points="125.199555 166 131 162.370619 130.801336 162 125 165.630341"></polyline>
                <polyline id="Fill-135" fill="#FFFFFE" points="127.199555 167 133 163.370619 132.800445 163 127 166.629381"></polyline>
                <polyline id="Fill-136" fill="#FFFFFE" points="129.199555 168 135 164.370619 134.800445 164 129 167.630341"></polyline>
                <polyline id="Fill-137" fill="#FFFFFE" points="131.199555 169 137 165.370619 136.801336 165 131 168.629381"></polyline>
                <polyline id="Fill-138" fill="#FFFFFE" points="133.199555 170 139 166.370619 138.800445 166 133 169.630341"></polyline>
                <polyline id="Fill-139" fill="#FFFFFE" points="135.199555 172 141 168.370619 140.800445 168 135 171.629381"></polyline>
                <polyline id="Fill-140" fill="#FFFFFE" points="137.199525 173 143 169.369748 142.800475 169 137 172.630252"></polyline>
                <polyline id="Fill-141" fill="#FFFFFE" points="139.199555 174 145 170.370619 144.800445 170 139 173.629381"></polyline>
                <polyline id="Fill-142" fill="#FFFFFE" points="141.199555 175 147 171.369748 146.800445 171 141 174.630252"></polyline>
                <polyline id="Fill-143" fill="#FFFFFE" points="143.199555 176 149 172.370619 148.800445 172 143 175.629381"></polyline>
                <polyline id="Fill-144" fill="#FFFFFE" points="145.199555 177 151 173.369659 150.800445 173 145 176.629381"></polyline>
                <polyline id="Fill-145" fill="#FFFFFE" points="147.199555 178 153 174.370708 152.801336 174 147 177.629292"></polyline>
                <polyline id="Fill-146" fill="#FFFFFE" points="149.199555 179 155 175.369748 154.800445 175 149 178.629292"></polyline>
                <polyline id="Fill-147" fill="#FFFFFE" points="151.199525 180 157 176.370708 156.800475 176 151 179.629292"></polyline>
                <polyline id="Fill-148" fill="#FFFFFE" points="153.199555 182 159 178.369748 158.800445 178 153 181.629292"></polyline>
                <polyline id="Fill-149" fill="#FFFFFE" points="154.199555 183 160 179.370708 159.800445 179 154 182.630252"></polyline>
                <polyline id="Fill-150" fill="#FFFFFE" points="156.199584 184 162 180.369748 161.800416 180 156 183.629292"></polyline>
                <polyline id="Fill-151" fill="#FFFFFE" points="158.199525 185 164 181.370619 163.800475 181 158 184.630341"></polyline>
                <polyline id="Fill-152" fill="#FFFFFE" points="160.199555 186 166 182.369659 165.800445 182 160 185.629381"></polyline>
                <polyline id="Fill-153" fill="#FFFFFE" points="162.199555 187 168 183.370619 167.800445 183 162 186.630341"></polyline>
                <polyline id="Fill-154" fill="#FFFFFE" points="164.199584 188 170 184.370619 169.800416 184 164 187.629381"></polyline>
                <polyline id="Fill-155" fill="#FFFFFE" points="166.199525 189 172 185.370619 171.800475 185 166 188.630341"></polyline>
                <polyline id="Fill-156" fill="#FFFFFE" points="168.199555 191 174 187.370619 173.800445 187 168 190.629381"></polyline>
                <polyline id="Fill-157" fill="#FFFFFE" points="170.199525 192 176 188.370619 175.800475 188 170 191.630341"></polyline>
                <polyline id="Fill-158" fill="#FFFFFE" points="172.199584 193 178 189.370619 177.800416 189 172 192.629381"></polyline>
                <polyline id="Fill-159" fill="#FFFFFE" points="174.199555 194 180 190.369748 179.800445 190 174 193.630252"></polyline>
                <polyline id="Fill-160" fill="#FFFFFE" points="176.199555 195 182 191.370619 181.800445 191 176 194.629381"></polyline>
                <polyline id="Fill-161" fill="#FFFFFE" points="178.199525 196 184 192.369748 183.800475 192 178 195.630252"></polyline>
                <polyline id="Fill-162" fill="#FFFFFE" points="180.199555 197 186 193.370619 185.800445 193 180 196.629381"></polyline>
                <polyline id="Fill-163" fill="#FFFFFE" points="182.199555 198 188 194.369748 187.800445 194 182 197.630252"></polyline>
                <polyline id="Fill-164" fill="#FFFFFE" points="184.199584 199 190 195.370619 189.800416 195 184 198.629381"></polyline>
                <polyline id="Fill-165" fill="#FFFFFE" points="186.199525 201 192 197.369659 191.800475 197 186 200.629381"></polyline>
                <polyline id="Fill-166" fill="#FFFFFE" points="188.199555 202 194 198.370619 193.800445 198 188 201.629381"></polyline>
                <polyline id="Fill-167" fill="#FFFFFE" points="190.199555 203 196 199.369659 195.800445 199 190 202.629381"></polyline>
                <polyline id="Fill-168" fill="#FFFFFE" points="192.198693 204 198 200.370708 197.800416 200 192 203.630252"></polyline>
                <polyline id="Fill-169" fill="#FFFFFE" points="194.199525 205 200 201.369748 199.800475 201 194 204.629292"></polyline>
                <polyline id="Fill-170" fill="#FFFFFE" points="196.198664 206 202 202.370708 201.800445 202 196 205.630252"></polyline>
                <polyline id="Fill-171" fill="#DC3D39" points="265.071808 199.994637 265.144461 199.994637 265.144461 182.248052 285.855539 194.109277 285.855539 211.752786 265.108134 199.932624 265.071808 199.994637 265.144461 199.994637 265.071808 199.994637 265.036326 200.05665 286 212 286 194.026314 265 182 265 200.035699 265.036326 200.05665 265.071808 199.994637"></polyline>
                <polyline id="Fill-172" fill="#F4F3F0" points="264 200.020449 264 182 285 194.043771 285 212 264 200.020449"></polyline>
                <polyline id="Fill-173" fill="#3C3D3A" points="265 199.30846 265 184 283 194.748401 283 210 265 199.30846"></polyline>
                <polyline id="Fill-174" fill="#F4F3F0" points="285 212 286 211.520664 286 193 285 193.480207 285 212"></polyline>
                <polyline id="Fill-175" fill="#B7B6B2" points="285.095902 194 286 193.516144 264.903243 181 264 181.483856 285.095902 194"></polyline>
                <polyline id="Fill-176" fill="#F4F3F0" points="263.833503 200 248 209.000362 269.110766 221 285 211.96756 263.833503 200"></polyline>
                <path d="M255.590963,206 L274,216.516973 L273.402923,216.866397 C273.091734,217.044534 272.584893,217.044534 272.280451,216.866397 L255.233391,206.870134 C254.922203,206.691996 254.922203,206.395671 255.233391,206.210682 L255.590963,206" id="Fill-177" fill="#B7B6B2"></path>
                <polyline id="Fill-178" fill="#B7B6B2" points="274.288847 217 256 206.37937 256.634568 206 275 216.612853 274.288847 217"></polyline>
                <polyline id="Fill-179" fill="#B7B6B2" points="276 215.621197 275.3587 216 257 205.379668 257.634568 205 276 215.621197"></polyline>
                <polyline id="Fill-180" fill="#B7B6B2" points="278 214.621167 277.358671 215 259 204.378833 259.634596 204 278 214.621167"></polyline>
                <polyline id="Fill-181" fill="#B7B6B2" points="279 213.620362 278.365207 214 260 203.379638 260.628899 203 279 213.620362"></polyline>
                <polyline id="Fill-182" fill="#B7B6B2" points="280 213.620332 279.358898 214 261 203.379668 261.64026 203 280 213.620332"></polyline>
                <path d="M281.765725,212.827573 L281.466902,213 L263,202.41986 L263.482518,202.134493 C263.788113,201.955169 264.296873,201.955169 264.60924,202.134493 L281.765725,212.170625 C282.078092,212.349087 282.078092,212.648248 281.765725,212.827573" id="Fill-183" fill="#B7B6B2"></path>
                <polyline id="Fill-184" fill="#B7B6B2" points="248 209 248 209.929537 269 222 269 221.012155 248 209"></polyline>
                <polyline id="Fill-185" fill="#F4F3F0" points="269 222 286 212.093003 286 211 269 220.96457 269 222"></polyline>
                <path d="M263.658749,215 L263.49592,214.9589 L259.178289,212.631914 C259.012805,212.542718 258.951744,212.338964 259.041123,212.175437 C259.131387,212.012784 259.339349,211.951571 259.503948,212.041642 L263.822464,214.367753 C263.987063,214.457824 264.049009,214.661577 263.95786,214.825104 C263.896799,214.937038 263.779986,215 263.658749,215" id="Fill-186" fill="#B7B6B2"></path>
                <polyline id="Fill-187" fill="#676865" points="282.836754 210 277.183772 206.588169 273 189 283 195.066233 282.836754 210"></polyline>
                <polyline id="Fill-188" fill="#852124" points="304 102 304 116.673785 295 122 295 107.329578 304 102"></polyline>
                <polyline id="Fill-189" fill="#DC3D39" points="294 122 292 120.599222 292 106 294 107.320013 294 122"></polyline>
                <polyline id="Fill-190" fill="#E15E5F" points="304 102.388847 301.635273 101 292 106.611153 294.363849 108 304 102.388847"></polyline>
                <polyline id="Fill-191" fill="#0D7F89" points="309 105 309 119.672944 300 125 300 110.329578 309 105"></polyline>
                <polyline id="Fill-192" fill="#65C4D7" points="300 125 298 123.599222 298 109 300 110.320013 300 125"></polyline>
                <polyline id="Fill-193" fill="#7CCAD9" points="309 105.388847 306.634742 104 297 109.611153 299.364381 111 309 105.388847"></polyline>
                <polyline id="Fill-194" fill="#8B6D2F" points="315 108 315 122.673561 306 128 306 113.329802 315 108"></polyline>
                <polyline id="Fill-195" fill="#F8C436" points="305 128 303 126.599989 303 112 305 113.320082 305 128"></polyline>
                <polyline id="Fill-196" fill="#FBCF5F" points="315 108.388847 312.635446 107 303 112.611153 305.364554 114 315 108.388847"></polyline>
                <polyline id="Fill-197" fill="#223E7D" points="320 112 320 126.672944 311 132 311 117.329578 320 112"></polyline>
                <polyline id="Fill-198" fill="#4A71AA" points="311 132 309 130.599222 309 116 311 117.320013 311 132"></polyline>
                <polyline id="Fill-199" fill="#688DBB" points="320 111.388847 317.636324 110 308 115.611153 310.365431 117 320 111.388847"></polyline>
                <g id="Group-202" transform="translate(297.000000, 181.000000)">
                    <mask id="mask-18" fill="white">
                        <use xlink:href="#path-17"></use>
                    </mask>
                    <g id="Clip-201"></g>
                    <path d="M35.3788444,9.59833333 L35.3788444,8.7225 L36.1523556,8.28166667 C36.8811111,7.86666667 37.3227556,7.34666667 37.4772889,6.805 C37.7128889,7.63666667 37.2712444,8.52 36.1523556,9.1575 L35.3788444,9.59833333 M3.8304,2.75166667 L1.18982222,1.24666667 C0.804755556,1.02666667 0.499066667,0.778333333 0.274444444,0.5125 L0.872311111,0.171666667 C0.971111111,0.24 1.07751111,0.306666667 1.18982222,0.370833333 L4.41137778,2.20666667 C4.20702222,2.38416667 4.0128,2.56583333 3.8304,2.75166667" id="Fill-200" mask="url(#mask-18)"></path>
                </g>
                <g id="Group-205" transform="translate(296.000000, 179.000000)">
                    <mask id="mask-20" fill="white">
                        <use xlink:href="#path-19"></use>
                    </mask>
                    <g id="Clip-204"></g>
                    <path d="M1.325,2.615 C0.819,2.008 0.658,1.327 0.841,0.673 C0.995,1.223 1.392,1.754 2.033,2.206 L1.325,2.615" id="Fill-203" mask="url(#mask-20)"></path>
                </g>
                <path d="M331.0465,191 C331.3355,190.701398 331.5685,190.393266 331.7415,190.07751 L331.9535,190 L331.9535,190.667726 L331.0465,191" id="Fill-206" fill="#D4977A"></path>
                <path d="M322.219447,196 C320.976419,196 319.733391,195.733709 318.790998,195.199436 L300,184.552871 C300.186067,184.364354 300.384193,184.180063 300.592656,184 L318.790998,194.3118 C319.733391,194.846073 320.97728,195.112364 322.219447,195.113209 C323.462474,195.113209 324.704641,194.846073 325.647895,194.312645 L332,190.713068 C331.850974,191.133216 331.650264,191.543219 331.401314,191.940542 L325.647895,195.199436 C324.704641,195.733709 323.461613,196 322.219447,196" id="Fill-207" fill="#D7C685"></path>
                <path d="M312.394483,173.807807 C310.532994,172.730731 307.487773,172.730731 305.625434,173.807807 L298.395478,177.993308 C296.534841,179.070384 296.534841,180.83481 298.395478,181.911033 L319.60488,194.192086 C321.466368,195.269162 324.511589,195.269162 326.373928,194.192939 L333.603884,190.006585 C335.465372,188.929509 335.465372,187.165936 333.603884,186.08886 L312.394483,173.807807" id="Fill-208" fill="#E05657"></path>
                <path d="M298.394825,180.910256 L319.603989,193.191644 C321.467157,194.269452 324.511494,194.269452 326.372961,193.191644 L333.601986,189.006609 C335.466005,187.927948 335.466005,186.165424 333.601986,185.087616 L333.031385,184.758475 L312.393673,172.810491 C310.533055,171.732683 307.488719,171.728419 305.62385,172.806228 L299.641472,176.270734 L298.394825,176.991262 C296.535058,178.069071 296.535058,179.832447 298.394825,180.910256" id="Fill-209" fill="#FFFFFE"></path>
                <polyline id="Fill-210" fill="#3C3D3A" points="312.376318 173 332 184.692175 319.632035 192 300 180.303516 312.376318 173"></polyline>
                <path d="M302.185051,177 L302.276726,176.974442 L304.907961,175.365163 C304.995615,175.31064 305.026173,175.191371 304.975511,175.098512 C304.924044,175.003948 304.811461,174.972427 304.722198,175.026098 L302.092571,176.635378 C302.004113,176.689901 301.973555,176.808318 302.025021,176.902881 L302.185051,177" id="Fill-211" fill="#3C3D3A"></path>
                <path d="M306,174.4995 C306,174.7695 306.223565,174.9865 306.500755,174.9865 C306.776435,174.9865 307,174.7695 307,174.4995 C307,174.2315 306.776435,174.0135 306.500755,174.0135 C306.223565,174.0135 306,174.2315 306,174.4995" id="Fill-212" fill="#3C3D3A"></path>
                <path d="M302.162,174.5 C302.162,174.637 302.313,174.748 302.5,174.748 C302.686,174.748 302.838,174.637 302.838,174.5 C302.838,174.364 302.686,174.252 302.5,174.252 C302.313,174.252 302.162,174.364 302.162,174.5" id="Fill-213" fill="#3C3D3A"></path>
                <path d="M328.162544,189 C328.162544,189.433769 328.537809,189.786381 328.999293,189.786381 C329.462191,189.786381 329.838163,189.433769 329.838163,189 C329.838163,188.566231 329.462191,188.213619 328.999293,188.213619 C328.537809,188.213619 328.162544,188.566231 328.162544,189 Z M328,189 C328,188.448694 328.448763,188 328.999293,188 C329.551943,188 330,188.448694 330,189 C330,189.552239 329.551943,190 328.999293,190 C328.448763,190 328,189.552239 328,189 L328,189 Z" id="Fill-214" fill="#E05657"></path>
                <path d="M331.353699,184.909037 L311.644467,173.570719 L304.140991,177.845823 L299,176.193051 L304.912518,172.791221 C305.831962,172.262903 307.0422,172 308.252439,172 C309.466879,172 310.68216,172.265415 311.603285,172.795407 L332,184.527241 L331.353699,184.909037 M304.864612,175.150649 C304.831835,175.150649 304.798217,175.159022 304.767121,175.175767 L302.018872,176.757371 C301.926423,176.810956 301.894486,176.927337 301.948275,177.020274 L302.115523,177.115723 L302.211333,177.090605 L304.961263,175.509001 C305.052872,175.455415 305.084808,175.338197 305.03186,175.246935 C304.995721,175.184977 304.931007,175.150649 304.864612,175.150649 M302.478594,174.937145 C302.321431,174.937145 302.194524,175.030919 302.194524,175.144788 C302.194524,175.259494 302.321431,175.352431 302.478594,175.352431 C302.634917,175.352431 302.762664,175.259494 302.762664,175.144788 C302.762664,175.030919 302.634917,174.937145 302.478594,174.937145 M305.916847,174.330124 C305.608404,174.330124 305.359633,174.512649 305.359633,174.737037 C305.359633,174.9631 305.608404,175.144788 305.916847,175.144788 C306.223609,175.144788 306.47238,174.9631 306.47238,174.737037 C306.47238,174.512649 306.223609,174.330124 305.916847,174.330124" id="Fill-215" fill="#FFFFFE"></path>
                <polyline id="Fill-216" fill="#535451" points="330.172982 186 305 177.471405 312.444825 173 332 184.858942 330.207171 185.978983 330.172149 186"></polyline>
                <path d="M302.185051,177 L302.025021,176.902855 C301.973555,176.808266 302.004113,176.689817 302.092571,176.635279 L304.722198,175.025565 C304.751952,175.008522 304.784119,175 304.815482,175 C304.879011,175 304.940932,175.034938 304.975511,175.097997 C305.026173,175.190882 304.995615,175.310183 304.907961,175.364721 L302.276726,176.974435 L302.185051,177" id="Fill-217" fill="#535451"></path>
                <path d="M306.500755,174.9865 C306.223565,174.9865 306,174.7695 306,174.4995 C306,174.2315 306.223565,174.0135 306.500755,174.0135 C306.776435,174.0135 307,174.2315 307,174.4995 C307,174.7695 306.776435,174.9865 306.500755,174.9865" id="Fill-218" fill="#535451"></path>
                <path d="M302.5,174.748 C302.313,174.748 302.162,174.637 302.162,174.5 C302.162,174.364 302.313,174.252 302.5,174.252 C302.686,174.252 302.838,174.364 302.838,174.5 C302.838,174.637 302.686,174.748 302.5,174.748" id="Fill-219" fill="#535451"></path>
                <polyline id="Fill-220" fill="#F6C846" points="240 181.212433 226.605244 189 193 169.455116 202.390902 164 213.181005 164.808888 215.757859 173.226251 239.56196 173.716847 240 181.212433"></polyline>
                <path d="M225,164 C225,165.104542 223.432975,166 221.499577,166 C219.567025,166 218,165.104542 218,164 C218,162.895458 219.567025,162 221.499577,162 C223.432975,162 225,162.895458 225,164" id="Fill-221" fill="#F6C846"></path>
                <path d="M210,131.679 L210,136.763777 C206.286672,138.672555 201.323554,139.888752 195.849958,140 L195.747695,134.915223 L195,123 L210,131.679" id="Fill-222" fill="#5DC3E4"></path>
                <path d="M210,132 L210,136.888621 C206.352408,138.723764 201.477151,139.893044 196.100453,140 L196,135.111379 C201.417044,135.014073 206.321943,133.845597 210,132" id="Fill-223" fill="#3F609D"></path>
                <polyline id="Fill-224" fill="#FFFFFE" points="224.799356 63.1512339 223.87315 59.8000422 222.834994 61.9017085 221.550388 61.0841595 220 56 221.296688 56.786332 222.239807 60.3467623 223.284406 58.0037967 224.580288 58.7968783 225.522601 62.412993 226.645324 60.0607467 228 60.8909513 226.133092 64 224.799356 63.1512339"></polyline>
                <polyline id="Fill-225" fill="#FFFFFE" points="234.322723 69.016335 233.329511 65.3097713 232.115035 67.5693496 230.672691 66.6239976 229 61 230.45638 61.9106029 231.466104 65.8443718 232.690487 63.3192753 234.148518 64.2387882 235.156591 68.2376002 236.472617 65.7044847 238 66.6676567 235.82286 70 234.322723 69.016335"></polyline>
                <polyline id="Fill-226" fill="#FFFFFE" points="243.828063 73.9858333 242.777796 70.3466667 241.377996 72.495 239.77763 71.5216667 238 66 239.616178 66.9375 240.67976 70.795 242.095373 68.3883333 243.71488 69.3358333 244.77763 73.2608333 246.300599 70.8491667 248 71.8441667 245.495839 75 243.828063 73.9858333"></polyline>
                <path d="M249.997792,77.6130508 C249.962425,78.0594623 249.519861,78.1306152 248.935828,77.7690024 C248.369001,77.4171366 247.968495,76.8264698 248.00195,76.3829824 C248.036361,75.9287733 248.485617,75.8800385 249.055311,76.2289802 C249.6403,76.5876689 250.033159,77.1559176 249.997792,77.6130508" id="Fill-227" fill="#FFFFFE"></path>
                <path d="M298.889122,151 C292.874406,151 288,149.346665 288,147.304963 C288,145.859042 290.447415,144.606877 294.013015,144 L305,150.364102 C303.257196,150.765273 301.153577,151 298.889122,151" id="Fill-228" fill="#CDC9CC"></path>
                <path d="M305.150599,150 L294,143.404271 C295.488934,143.145962 297.169599,143 298.948721,143 C305.051279,143 310,144.714394 310,146.829521 C310,148.14849 308.077513,149.310881 305.150599,150" id="Fill-229" fill="#BB2666"></path>
                <polyline id="Fill-230" fill="#F9D7BC" points="301 82.1030664 296.908851 84 296.140499 81.2589438 296 80.7623509 297.032666 80.2725724 298.446435 79.6098807 299.741658 79 301 82.1030664"></polyline>
                <polyline id="Fill-231" fill="#E9AE7D" points="299 79 297.389947 82 297 80.520817 297.100533 80.1806756 297.7738 79.6111548 299 79"></polyline>
                <path d="M291,86.4779864 L288.945336,84.2912802 L287.740441,81.4274805 C287.740441,81.4274805 287.030187,80.7950305 286.796817,81.0686788 C286.561757,81.3423271 287.647431,85.667789 287.647431,85.667789 L286.002009,86.3043726 C286.002009,86.3043726 285.970724,86.6127437 286.155052,86.6937634 C286.33938,86.7756099 288.060055,87.4022728 288.060055,87.4022728 L289.538906,88 L291,86.4779864" id="Fill-232" fill="#F9D7BC"></path>
                <path d="M296,89.19967 L294.662404,94 L289,87.609736 C289.284207,86.5453795 290.695679,86 290.695679,86 L293.363919,87.879538 L296,89.19967" id="Fill-233" fill="#E36935"></path>
                <polyline id="Fill-234" fill="#DC3D39" points="284.961764 78.5970822 285 78.5970822 285 69 274 75.4140742 274 85 285 78.619395 285 78.5970822 284.961764 78.5970822 284.943071 78.5644711 274.075622 84.8678395 274.075622 75.4586998 284.924378 69.1321605 284.924378 78.5970822 284.961764 78.5970822 284.943071 78.5644711 284.961764 78.5970822"></polyline>
                <polyline id="Fill-235" fill="#F4F3F0" points="285 79.610384 285 70 274 76.423364 274 86 285 79.610384"></polyline>
                <polyline id="Fill-236" fill="#3C3D3A" points="285 78.6534326 285 71 275 76.3738627 275 84 285 78.6534326"></polyline>
                <polyline id="Fill-237" fill="#F4F3F0" points="274.7755 86 274.2245 85.7472256 274.2245 76 274.7755 76.2527744 274.7755 86"></polyline>
                <polyline id="Fill-238" fill="#B7B6B2" points="274.452044 76 274 75.7394293 284.547136 69 285 69.2605707 274.452044 76"></polyline>
                <polyline id="Fill-239" fill="#F4F3F0" points="284.869583 79 293 83.7146496 282.159162 90 274 85.2692189 284.869583 79"></polyline>
                <path d="M289.688912,82 L280,87.7371804 L280.314498,87.9273434 C280.478139,88.0242189 280.744908,88.0242189 280.904287,87.9273434 L289.877269,82.4745104 C290.04091,82.3776349 290.04091,82.2161758 289.877269,82.1157124 L289.688912,82" id="Fill-240" fill="#B7B6B2"></path>
                <polyline id="Fill-241" fill="#B7B6B2" points="279.373395 88 289 82.2072711 288.665731 82 279 87.7891085 279.373395 88"></polyline>
                <polyline id="Fill-242" fill="#B7B6B2" points="278 86.7934783 278.337671 87 288 81.2074275 287.665731 81 278 86.7934783"></polyline>
                <polyline id="Fill-243" fill="#B7B6B2" points="278 86.7925725 278.338493 87 288 81.2065217 287.66661 81 278 86.7925725"></polyline>
                <polyline id="Fill-244" fill="#B7B6B2" points="277 86.7934783 277.334383 87 287 81.2065217 286.669872 81 277 86.7934783"></polyline>
                <polyline id="Fill-245" fill="#B7B6B2" points="276 85.7934783 276.336706 86 286 80.2074275 285.662444 80 276 85.7934783"></polyline>
                <path d="M276.123826,85.9060948 L276.281229,86 L286,80.2293454 L285.745931,80.0731377 C285.585107,79.9756208 285.317351,79.9756208 285.152249,80.0731377 L276.123826,85.5476298 C275.958725,85.6451467 275.958725,85.8085779 276.123826,85.9060948" id="Fill-246" fill="#B7B6B2"></path>
                <polyline id="Fill-247" fill="#B7B6B2" points="293 84 293 84.5006241 282 91 282 90.4679231 293 84"></polyline>
                <polyline id="Fill-248" fill="#F4F3F0" points="283 90 274 85.4978355 274 85 283 89.5292208 283 90"></polyline>
                <path d="M286.136262,87 L286.201516,86.9731309 L287.92869,85.4214391 C287.994623,85.3621031 288.019772,85.2255184 287.983067,85.1180419 C287.947042,85.0083264 287.864116,84.9680227 287.798183,85.0273587 L286.071009,86.5790504 C286.005076,86.6383864 285.980606,86.7749711 286.016631,86.8835671 L286.136262,87" id="Fill-249" fill="#B7B6B2"></path>
                <g id="Group-252" transform="translate(275.000000, 73.000000)">
                    <mask id="mask-22" fill="white">
                        <use xlink:href="#path-21"></use>
                    </mask>
                    <g id="Clip-251"></g>
                    <polygon id="Fill-250" fill="#F1F0ED" mask="url(#mask-22)" points="0.201428571 3.7296 5.72571429 3.7296 5.72571429 0.7528 0.201428571 0.7528"></polygon>
                </g>
                <polyline id="Fill-253" fill="#676865" points="275.082247 84 275 76.1772653 280 73 277.908132 82.2132153 275.082247 84"></polyline>
                <polyline id="Fill-254" fill="#15101C" points="297 104.672786 298.032683 124.089749 300.086133 144.893818 302.593963 145 302.47163 121.348402 304 109.848733 303.948366 103 297.041307 103.375008 297 104.672786"></polyline>
                <path d="M301.41283,145 C301.41283,145 301.545427,145.532155 300.051558,145.585187 C298.55769,145.639134 296.288043,145.718683 297.216221,146.996952 C298.143539,148.27705 301.882946,147.636087 302.783573,147.493447 L302.805959,148 L303.954559,147.94331 C303.954559,147.94331 304.162064,146.907345 303.690226,145.150869 L301.41283,145" id="Fill-255" fill="#15101C"></path>
                <path d="M280.841311,93 L279.440367,90.075789 L276.012097,86.712779 C276.012097,86.712779 275.915176,86.1324587 276.270018,86.0034987 C276.625661,85.8753761 281.269845,89.308728 281.269845,89.308728 L282.500177,87.9010537 C282.500177,87.9010537 282.814169,87.9898184 282.827786,88.2075432 C282.840601,88.4244305 282.827786,90.4023762 282.827786,90.4023762 L283,91.5203091 L280.841311,93" id="Fill-256" fill="#F9D7BC"></path>
                <polyline id="Fill-257" fill="#D2572C" points="296 89.2941494 294.658239 94 292 91.0679428 293.355711 88 296 89.2941494"></polyline>
                <path d="M293,106.673629 L294.097922,126.090592 L296.279419,146.893818 L298.942787,147 L299.375711,123.264131 C299.375711,123.264131 304.263615,114.761151 304.904139,111.59929 C305.230731,109.980437 304.618055,105 304.618055,105 L293.044727,105.37585 L293,106.673629" id="Fill-258" fill="#15101C"></path>
                <path d="M293.415794,70.5694935 C293.415794,70.5694935 292.925981,75.8235433 293.009607,76.7174039 C293.092438,77.6112646 294.507719,80.834051 295.414073,80.9946666 C296.320427,81.1552822 300,77.6348331 300,77.6348331 L299.311076,69.5822315 L294.928242,69 L293.415794,70.5694935" id="Fill-259" fill="#F9D7BC"></path>
                <path d="M290,68.0815451 L291.692177,70.5855303 L293.392007,71.5101165 L297.352041,70.3133047 L297.54932,70.781729 L298.281463,73.8800327 C298.281463,73.8800327 298.75085,73.2194972 299.365646,73.4132434 C299.981293,73.6069896 300.098639,75.8706315 299.693027,76.1632945 C299.286565,76.45514 298.545918,76.4862048 298.545918,76.4862048 L299.140306,78.126916 L300.677721,79 L303,74.0329041 L302.460034,70.0402616 L299.554422,67 L294.589286,67.6621704 L292.268707,68.2041692 L290,68.0815451" id="Fill-260" fill="#221A13"></path>
                <path d="M292.388507,108 L305,107.378579 C304.913489,104.906626 304.217241,85.1215613 303.93192,84.1027391 C303.580053,82.8435881 301.527077,81.9002978 300.667789,82.0084457 L297.08839,82.970619 C297.08839,82.970619 294.035546,83.5791657 293.076437,87.5188406 C292.027489,91.831025 291.178183,97.582607 291.178183,97.582607 L283.148452,91.4885566 C283.148452,91.4885566 281.612048,92.2541753 281.068026,93.4034617 C280.914968,93.7279055 281.068026,93.7811212 281.068026,93.7811212 L290.620851,104.048309 L292.376861,104.994174 L292.388507,108" id="Fill-261" fill="#E36935"></path>
                <path d="M297.266262,146.029707 C297.266262,146.029707 297.434602,146.557934 295.959702,146.731534 C294.484803,146.905134 292.245109,147.168783 293.251732,148.388624 C294.25921,149.609394 297.914841,148.661557 298.796705,148.444325 L298.853958,148.954913 L299.987049,148.806378 C299.987049,148.806378 300.120354,147.740641 299.531591,146 L297.266262,146.029707" id="Fill-262" fill="#15101C"></path>
                <path d="M294,104 C294,104 295.921228,101.849059 296.492426,99.7130489 C297.063624,97.5779172 298,90 298,90 L297.816603,97.6033877 C297.816603,97.6033877 297.000606,101.171895 294,104" id="Fill-263" fill="#D2572C"></path>
                <g id="Group-266" transform="translate(227.000000, 275.000000)">
                    <mask id="mask-24" fill="white">
                        <use xlink:href="#path-23"></use>
                    </mask>
                    <g id="Clip-265"></g>
                    <path d="M12.3448276,8.7246 C5.5387931,8.7246 0.0206896552,6.7761 0.0206896552,4.3713 C0.0206896552,1.9683 5.5387931,0.0189 12.3448276,0.0189 C19.1517241,0.0189 24.6681034,1.9683 24.6681034,4.3713 C24.6681034,6.7761 19.1517241,8.7246 12.3448276,8.7246" id="Fill-264" mask="url(#mask-24)"></path>
                </g>
                <path d="M229.186054,233.00693 C229.186054,233.00693 228.906012,237.595581 229.033068,238.957595 C229.15926,240.320467 232.326159,247.956497 232.258741,251.449875 C232.191324,254.942396 232.699549,273.809898 232.699549,273.809898 C232.699549,273.809898 233.75403,274.260186 235.809402,273.774733 C235.809402,273.774733 238.653043,256.398756 238.601183,256.107141 C238.550188,255.815526 238.627113,248.147762 238.627113,248.147762 L240.830286,259.669135 C240.830286,259.669135 242.721436,270.779673 242.444851,273.587756 C242.444851,273.587756 244.102633,274.066348 245.387025,273.774733 C245.387025,273.774733 247.251381,252.315286 246.971339,249.410284 C246.690432,246.504425 245.871913,233.368876 245.871913,233.368876 L229.56463,232 L229.186054,233.00693" id="Fill-267" fill="#15101C"></path>
                <path d="M254.546799,213.71323 L256.31534,211.488581 C256.31534,211.488581 256.499654,208.144855 257.185128,208.208777 C257.870602,208.273599 257.711741,209.22882 257.953105,209.679872 C258.195347,210.131824 258.966834,209.542126 259.55664,208.896608 C260.146446,208.251991 261.389252,206.969059 261.813175,207.00057 C262.23622,207.032981 261.858815,208.51668 261.491063,209.475503 C261.12419,210.435226 257.185128,216 257.185128,216 L254,215.011467 L254.546799,213.71323" id="Fill-268" fill="#F9D7BC"></path>
                <polyline id="Fill-269" fill="#F9D7BC" points="241.597743 192 242.67634 193.170463 243.493753 194.108188 244 198.778193 242.67634 202.752521 241.027005 204 240 195.366669 241.597743 192"></polyline>
                <path d="M241.7702,205.050619 C241.7702,205.050619 246.863118,205.793462 247.887387,211.504069 C248.913379,217.212957 249.557747,220.556612 249.557747,220.556612 L255.063302,213.980214 C255.063302,213.980214 257.062738,213.769569 258,215.551017 L250.644903,226.725478 C250.644903,226.725478 248.55243,227.956672 246.92342,225.171869 C245.293548,222.387067 244.767199,221.813599 244.767199,221.813599 L245.547677,235.000786 C245.547677,235.000786 238.712037,237.965281 229,233.681895 L229.377317,212.064641 C229.377317,212.064641 229.231731,204.410088 233.425291,204.058441 C237.61799,203.707654 241.7702,205.050619 241.7702,205.050619" id="Fill-270" fill="#DC3A7E"></path>
                <path d="M235.565399,191.453868 C235.565399,191.453868 237.01871,189.749136 238.956174,190.031587 C240.894489,190.314873 242.419274,191.484787 242.577538,193.53715 C242.736654,195.590348 243.442888,198.564436 242.577538,199.673347 C241.712189,200.783094 241.211018,202.306488 241.345458,203.349383 C241.479897,204.391442 243.747505,210.175829 242.224421,212.29003 C240.702189,214.405903 237.686654,216.922053 233.448399,215.661889 C229.209292,214.400053 228.183976,208.200346 229.595594,205.814558 C231.00636,203.429605 233.162501,202.461084 232.957438,199.981703 C232.753226,197.502321 232.933613,190.764454 235.565399,191.453868" id="Fill-271" fill="#231A13"></path>
                <polyline id="Fill-272" fill="#15101C" points="232.058252 273.349337 232 276.263958 232.175602 277.856833 232.363867 281 233.100042 281 233.358379 277.004345 233.864078 276.562894 235.563529 279.356724 237.235965 279.583532 239.540734 278.499022 240 277.004345 240 276.562894 237.680034 276.120574 235.089067 273.124267 232.804559 273 232.058252 273.349337"></polyline>
                <polyline id="Fill-273" fill="#15101C" points="242.057408 273.348506 242 276.264313 242.174757 277.858229 242.363867 281 243.100042 281 243.357535 277.00478 243.863233 276.563281 245.563529 279.357414 247.234276 279.583379 249.540734 278.49962 250 277.00478 250 276.563281 247.680034 276.121782 244.937949 273.589245 242.803715 273 242.057408 273.348506"></polyline>
                <path d="M100.936188,160.342555 C100.936188,160.342555 101.82199,165.357022 96.992968,168.07249 C92.1639456,170.7888 89.7596258,185.282532 89.1065273,189.592208 C89.1065273,189.592208 86.172255,190.595439 85.3187257,189.454791 C84.4643471,188.3133 86.0406161,170.744118 87.1769566,167.017833 C87.1769566,167.017833 84.2859977,169.643937 82.8880781,175.753527 L81.1589382,186.465332 C81.1589382,186.465332 78.4098096,187.709675 77,185.847376 C77,185.847376 77.9690318,165.486009 79.2752288,163.700427 C80.5822751,161.915688 87.6822799,156 87.6822799,156 L100.936188,159.03667 L100.936188,160.342555" id="Fill-274" fill="#15101C"></path>
                <path d="M77.685457,185 C77.685457,185 76.6222388,186.498707 75.6221819,186.903862 C74.6230024,187.308101 71.9430255,189.378791 72.0009236,190.398095 C72.0588216,191.416483 75.3774312,191.000328 76.7301396,190.201018 C78.082848,189.402624 78.6916546,188.84164 79.1908057,188.760976 L79.3416915,189.113882 C79.3416915,189.113882 81.1400393,189.402624 81.6821753,189.113882 C81.6821753,189.113882 82.0909705,187.20727 81.9813151,185.671897 L80.6856275,185.439987 L77.685457,185" id="Fill-275" fill="#15101C"></path>
                <path d="M85.9154671,188.938345 C85.9154671,188.938345 85.2923879,191.856449 84.5062681,192.603497 C83.719267,193.350545 82.6749263,194.961728 83.0970691,195.414409 C83.5183306,195.866266 84.5679591,196.571261 85.9683452,195.185182 C87.3687312,193.799103 88.2808769,192.815408 88.7206457,191.904273 L88.8493156,192.469094 L89.972092,191.699783 C89.972092,191.699783 90.0884237,190.322775 89.8460661,189.072748 L87.7062692,188 L85.9154671,188.938345" id="Fill-276" fill="#15101C"></path>
                <path d="M89.8448708,136 C89.8448708,136 88.0295607,136.514125 85.6401996,146.47214 L84.7598203,150.089282 L76.104576,149.475986 C76.104576,149.475986 75.9039939,150.230209 76.0584169,151.717778 L85.4312249,155 C85.4312249,155 90.9887764,144.256444 89.8448708,136" id="Fill-277" fill="#94C453"></path>
                <path d="M91,139 C91,139 84.3155261,147.065379 86.4043127,153.942686 L86.9374303,155 L90.492736,145.465119 L91,139" id="Fill-278" fill="#74A141"></path>
                <path d="M102,144.809813 C102,144.809813 102.049451,140.531928 99.2976702,138.628113 C96.545889,136.724298 93.0384102,135.823468 90.8077996,136.028624 C89.527457,136.145977 88.2384281,136.582462 87.3124815,139.649672 C86.3874035,142.716883 86,156.621065 86,156.621065 C86,156.621065 92.3113771,159.479742 96.9445845,159.872325 C96.9445845,159.872325 98.8546751,160.43376 101.298097,159.201979 L102,144.809813" id="Fill-279" fill="#94C453"></path>
                <path d="M98.6443412,142 C98.6443412,142 97.9209951,143.17498 97.6610169,146.904414 C97.4010388,150.632115 97,156.760032 97,156.760032 L100,158 L98.6443412,142" id="Fill-280" fill="#74A141"></path>
                <polyline id="Fill-281" fill="#F4F3F0" points="87 162 93.9832576 157.283447 94 156.709576 87 152 87 162"></polyline>
                <polyline id="Fill-282" fill="#B7B6B2" points="86 161.538425 94 157 93.9819189 157.519173 86.0280258 162 86 161.538425"></polyline>
                <path d="M87,158 L88,159.118033 L87.2096475,159.948513 C87.0940012,160.071008 87,159.967198 87,159.719093 L87,158" id="Fill-283" fill="#B7B6B2"></path>
                <polyline id="Fill-284" fill="#B7B6B2" points="89 158.603896 88.4741712 159 87 157.820965 87 157 89 158.603896"></polyline>
                <polyline id="Fill-285" fill="#B7B6B2" points="90 158.763736 89.5734639 159 87 157.488226 87 157 90 158.763736"></polyline>
                <polyline id="Fill-286" fill="#B7B6B2" points="91 157.708661 90.5436307 158 87 155.599409 87 155 91 157.708661"></polyline>
                <polyline id="Fill-287" fill="#B7B6B2" points="91 157.662676 90.4642718 158 90.461148 158 87 155.693389 87 155 91 157.662676"></polyline>
                <path d="M91.8830909,157.738403 L91.5163173,158 L87,154.568798 L87,154.258687 C87,154.030384 87.1267036,153.935258 87.2825824,154.046555 L91.8830909,157.333165 C92.0389697,157.445414 92.0389697,157.627105 91.8830909,157.738403" id="Fill-288" fill="#B7B6B2"></path>
                <polyline id="Fill-289" fill="#8A8C87" points="76 155.199831 76.0008825 145 87 151.800169 87 162 76 155.199831"></polyline>
                <polyline id="Fill-290" fill="#B7B6B2" points="86.2565 162 86.7435 161.74104 86.7435 151 86.2565 151.25896 86.2565 162"></polyline>
                <polyline id="Fill-291" fill="#F4F3F0" points="76 145.244303 86.586332 152 87 151.755697 76.413668 145 76 145.244303"></polyline>
                <path d="M82,153.5 C82,154.328578 81.5524176,155 81.0004279,155 C80.4484382,155 80,154.328578 80,153.5 C80,152.671422 80.4484382,152 81.0004279,152 C81.5524176,152 82,152.671422 82,153.5" id="Fill-292" fill="#737370"></path>
                <path d="M97,138.234101 C93.3179916,139.638166 92.209205,138.68219 92.209205,138.68219 L92.18159,138.30455 L92,135.378459 L94.2,135.169569 L95.9723849,135 L96.1004184,135.407949 L97,138.234101" id="Fill-293" fill="#F9D7BC"></path>
                <path d="M90.3561509,158 L87.2332476,158.339778 C87.2332476,158.339778 86.3653828,158.564701 86.0379753,159.333588 C85.7097846,160.103272 87.6068681,160.567476 87.9609068,160.906456 C88.3149455,161.244639 91,160.557107 91,160.557107 L90.3561509,158" id="Fill-294" fill="#F9D7BC"></path>
                <path d="M90,157.423474 C90,157.423474 88.4360576,156 88.1315996,156 C87.8261498,156 88.0562289,157.929577 88.7821679,158 L90,157.423474" id="Fill-295" fill="#F9D7BC"></path>
                <path d="M76.2533397,152 C76.2533397,152 75.9715631,152.378055 76.002351,153.242605 C76.0324696,154.107898 76.2901513,154.688722 76.578621,154.953137 C76.8677599,155.218296 77.183671,154.308438 76.8697678,153.476569 C76.5545261,152.644699 76.2533397,152 76.2533397,152" id="Fill-296" fill="#F9D7BC"></path>
                <path d="M99.3950191,140.551454 C99.3950191,140.551454 98.1686724,142.418364 98.1006873,146.011904 C98.0327021,149.605445 98.1006873,155.913625 98.1006873,155.913625 L90,157.844611 C90,157.844611 90.0488098,160.088193 90.2039553,160.605143 L99.897063,161 C99.897063,161 101.72133,160.828549 102.323608,159.951379 C102.925015,159.073343 103.75914,144.855044 101.619352,140.917736 C101.619352,140.917736 100.521131,139.124429 99.3950191,140.551454" id="Fill-297" fill="#94C453"></path>
                <polyline id="Fill-298" fill="#E9AE7D" points="97 135.285341 96.6060276 135.666318 95.0074437 137.218448 92.1969862 138 92 135.199895 94.3865287 135 96.4480755 135.228116 97 135.285341"></polyline>
                <polyline id="Fill-299" fill="#F9D7BC" points="91 125.466662 91 130.84328 92.2316669 136.718511 93.6923693 137 96.2686192 136.197584 97.8086031 133.505413 98 126.269937 93.4144835 124 91 125.466662"></polyline>
                <path d="M91.0159902,126.001388 L89.6418358,125.043588 L89,123.768435 C89,123.768435 91.7449262,123.395319 91.927583,123.026304 C92.1102399,122.658109 96.4458026,121 96.4458026,121 L99.5738007,124.870561 L100,131.387371 L98.2055658,133.682647 L97.2550738,134 L97.2550738,131.770327 C97.2550738,131.770327 97.7134071,131.390652 98.0119157,130.746925 C98.3104244,130.104018 98.1641298,128.313064 97.4681734,128.501672 C96.7722171,128.689459 96.0830258,126.602473 96.0830258,126.602473 L92.8138069,125.763578 L91.0159902,126.001388" id="Fill-300" fill="#221A13"></path>
                <g id="Group-303" transform="translate(95.000000, 169.000000)">
                    <mask id="mask-26" fill="white">
                        <use xlink:href="#path-25"></use>
                    </mask>
                    <g id="Clip-302"></g>
                    <path d="M2.93,2.32 L2.93,2.32 L0.294,0.798 L0.295,0.796 L2.932,2.318 C2.931,2.319 2.931,2.32 2.93,2.32" id="Fill-301" mask="url(#mask-26)"></path>
                </g>
                <path d="M97.2162768,171 L95,169.662043 C95.6715226,168.59748 96.4086006,167.772905 97.212915,167.295566 C99.7006584,165.821352 100.656254,163.6975 101,162 C100.994957,163.330924 100.858804,166.142215 99.853621,167.503028 C99.3577532,168.170248 98.3248354,169.32184 97.2162768,171" id="Fill-304" fill="#CDC9CC"></path>
                <path d="M94.1038961,180 L94.1038961,180 L92,178.837071 C92.9253247,175.524125 94.1357733,172.223072 95.6658796,170 L98,171.292898 C96.5035419,173.348624 94.8742621,176.219844 94.1038961,180" id="Fill-305" fill="#648BB0"></path>
                <path d="M84.707291,175 L84.707291,175 L84,174.591758 C85.4847124,169.297427 88,167 88,167 C87.8682916,167.432155 87.7314518,168.048788 87.5937567,168.802071 C86.602523,170.051564 85.3991875,172.061172 84.707291,175" id="Fill-306" fill="#648BB0"></path>
                <path d="M91.3687759,179 L88.0781581,177.107513 L88.0781581,177.098993 C88.3172274,173.486141 88.8124423,169.327953 89.8028721,168.041301 L88.5136057,166.925066 C88.5136057,166.925066 87.7844444,167.431206 86.8785426,168.572152 C87.0160075,167.82061 87.1526185,167.205403 87.2841066,166.774247 C87.2841066,166.774247 84.7730254,169.066363 83.2907959,174.348454 L81,173.026014 L82.4771066,163.440028 L83.1345471,163.354819 L92.0057247,162.230064 L100.987899,162 C100.987899,162 101.00156,162.271816 101,162.707233 C100.65064,164.352614 99.6798484,166.411258 97.1525446,167.840209 C96.33544,168.302892 95.5866409,169.10215 94.9044397,170.134028 L94.9035858,170.135733 C93.4281869,172.365646 92.2610166,175.676858 91.3687759,179" id="Fill-307" fill="#110F16"></path>
            </g>
            <path d="M20.908,339.028 C27.676,339.028 31.96,335.284 31.96,327.652 L31.96,313.432 L26.416,313.432 L26.416,327.868 C26.416,331.864 24.364,333.916 20.98,333.916 C17.596,333.916 15.544,331.792 15.544,327.688 L15.544,313.432 L10,313.432 L10,327.832 C10,335.248 14.14,339.028 20.908,339.028 Z M43.408,338.632 L43.408,313.432 L37.864,313.432 L37.864,338.632 L43.408,338.632 Z M72.316,339.064 C77.176,339.064 80.056,337.336 82.648,334.564 L79.12,331 C77.14,332.8 75.376,333.952 72.496,333.952 C68.176,333.952 65.188,330.352 65.188,326.032 L65.188,325.96 C65.188,321.64 68.248,318.112 72.496,318.112 C75.016,318.112 76.996,319.192 78.94,320.956 L82.468,316.888 C80.128,314.584 77.284,313 72.532,313 C64.792,313 59.392,318.868 59.392,326.032 L59.392,326.104 C59.392,333.34 64.9,339.064 72.316,339.064 Z M98.596,339.064 C106.372,339.064 112.024,333.196 112.024,326.032 L112.024,325.96 C112.024,318.796 106.444,313 98.668,313 C90.892,313 85.24,318.868 85.24,326.032 L85.24,326.104 C85.24,333.268 90.82,339.064 98.596,339.064 Z M98.668,333.952 C94.204,333.952 91.036,330.352 91.036,326.032 L91.036,325.96 C91.036,321.64 94.132,318.112 98.596,318.112 C103.06,318.112 106.228,321.712 106.228,326.032 L106.228,326.104 C106.228,330.424 103.132,333.952 98.668,333.952 Z M122.392,338.632 L122.392,322.288 L129.412,332.944 L129.556,332.944 L136.648,322.18 L136.648,338.632 L142.156,338.632 L142.156,313.432 L136.18,313.432 L129.556,324.088 L122.932,313.432 L116.956,313.432 L116.956,338.632 L122.392,338.632 Z M153.748,338.632 L153.748,331.072 L157.96,331.072 C163.612,331.072 168.148,328.048 168.148,322.216 L168.148,322.144 C168.148,316.996 164.512,313.432 158.5,313.432 L148.204,313.432 L148.204,338.632 L153.748,338.632 Z M158.14,326.14 L153.748,326.14 L153.748,318.436 L158.032,318.436 C160.804,318.436 162.532,319.768 162.532,322.252 L162.532,322.324 C162.532,324.484 160.912,326.14 158.14,326.14 Z M184.492,339.064 C192.268,339.064 197.92,333.196 197.92,326.032 L197.92,325.96 C197.92,318.796 192.34,313 184.564,313 C176.788,313 171.136,318.868 171.136,326.032 L171.136,326.104 C171.136,333.268 176.716,339.064 184.492,339.064 Z M184.564,333.952 C180.1,333.952 176.932,330.352 176.932,326.032 L176.932,325.96 C176.932,321.64 180.028,318.112 184.492,318.112 C188.956,318.112 192.124,321.712 192.124,326.032 L192.124,326.104 C192.124,330.424 189.028,333.952 184.564,333.952 Z M208.324,338.632 L208.324,322.612 L220.528,338.632 L225.244,338.632 L225.244,313.432 L219.772,313.432 L219.772,328.948 L207.964,313.432 L202.852,313.432 L202.852,338.632 L208.324,338.632 Z M250.48,338.632 L250.48,333.7 L236.8,333.7 L236.8,328.408 L248.68,328.408 L248.68,323.476 L236.8,323.476 L236.8,318.364 L250.3,318.364 L250.3,313.432 L231.292,313.432 L231.292,338.632 L250.48,338.632 Z M260.884,338.632 L260.884,322.612 L273.088,338.632 L277.804,338.632 L277.804,313.432 L272.332,313.432 L272.332,328.948 L260.524,313.432 L255.412,313.432 L255.412,338.632 L260.884,338.632 Z M295.264,338.632 L295.264,318.544 L302.932,318.544 L302.932,313.432 L282.052,313.432 L282.052,318.544 L289.72,318.544 L289.72,338.632 L295.264,338.632 Z M315.604,338.992 C321.04,338.992 324.856,336.184 324.856,331.18 L324.856,331.108 C324.856,326.716 321.976,324.88 316.864,323.548 C312.508,322.432 311.428,321.892 311.428,320.236 L311.428,320.164 C311.428,318.94 312.544,317.968 314.668,317.968 C316.792,317.968 318.988,318.904 321.22,320.452 L324.1,316.276 C321.544,314.224 318.412,313.072 314.74,313.072 C309.592,313.072 305.92,316.096 305.92,320.668 L305.92,320.74 C305.92,325.744 309.196,327.148 314.272,328.444 C318.484,329.524 319.348,330.244 319.348,331.648 L319.348,331.72 C319.348,333.196 317.98,334.096 315.712,334.096 C312.832,334.096 310.456,332.908 308.188,331.036 L304.912,334.96 C307.936,337.66 311.788,338.992 315.604,338.992 Z" id="UICOMPONENTS" fill="#0C197B" fill-rule="nonzero"></path>
        </g>
    </g>
</svg>